<svg id="Layer_1" data-name="Layer 1" xmlns="http://www.w3.org/2000/svg" viewBox="0 0 384 379.39"><defs><style>.cls-1{opacity:0.27;}.cls-2{fill:#515151;}.cls-3{fill:#fafafa;}.cls-4{fill:#90665e;}.cls-5{fill:#ffdfd9;}.cls-6{fill:#f8c878;}.cls-7{fill:#ffbd5c;}.cls-8{fill:#ffcbbf;}.cls-9{fill:#fa9295;}.cls-10{fill:#f4f4f4;}.cls-11{fill:#fff;}.cls-12{opacity:0.28;}.cls-13{fill:#0af;}.cls-14{opacity:0.08;}</style></defs><title>Sign</title><g class="cls-1"><path class="cls-2" d="M15,372.09l.51-.27a22.59,22.59,0,0,1,17.15-1.5l-.08.26a22.33,22.33,0,0,0-16.42,1.22c32.29-.56,65.06-2.27,96.76-3.93,27.06-1.41,55-2.87,82.57-3.61,48.66-1.3,98.13-.42,146,.45a7.17,7.17,0,0,1,.87,0V365l-.85,0a7,7,0,0,0-4.47,1.91l-.19-.2A7.18,7.18,0,0,1,340,365c-47.38-.86-96.31-1.72-144.43-.43-27.54.74-55.51,2.2-82.57,3.61-31.9,1.67-64.88,3.39-97.36,3.94Z"/></g><g class="cls-1"><path class="cls-2" d="M296.5,375.56l-.06-.27,2.57-.56c-15.41.29-31.3.54-46.89-.92a2.35,2.35,0,0,1-1.58-.57,1.05,1.05,0,0,1-.19-1,.68.68,0,0,1,.55-.47l0,.27a.42.42,0,0,0-.33.3.78.78,0,0,0,.13.76,2.11,2.11,0,0,0,1.4.48c16,1.5,32.41,1.19,48.25.89l0,.27Z"/></g><path class="cls-3" d="M34,175.48c7.59,0,14.64-3.7,21.23-7.47,43-24.67,80.58-57.61,119.83-87.92s81.4-58.61,129.21-71.76c17.93-4.93,37.51-7.56,54.81-.73,10.57,4.17,20.6,13.8,19.35,25.09-1.16,10.5-11.16,17.39-20.12,23-31.8,19.88-62.64,41.59-89.75,67.49-11.92,11.38-23.3,23.87-29.82,39-2.42,5.63-3.66,13.25,1.2,17A13.89,13.89,0,0,0,246,181.4c13.82,2.5,28,.7,42-.4s28.53-1.44,41.59,3.73,24.35,17.11,24.71,31.16c.27,10.56-5.51,20.39-12.53,28.29-23.68,26.68-60.37,36.57-92.11,52.86-17.07,8.76-33.06,19.62-50.55,27.52S162,337.3,143.23,333.14a16.11,16.11,0,0,1-5.34-2c-6.49-4.2-5.22-14.22-1.4-20.94s9.53-13,9.79-20.7c.31-9.17-7.61-16.91-16.31-19.83s-18.13-2.24-27.3-2.21a183.17,183.17,0,0,1-38.8-4c-7.88-1.69-16.51-4.55-20.25-11.69-6.3-12,5.14-28.38-2.27-39.76-4.17-6.4-12.52-8.23-19.27-11.81S9.54,190.41,8.23,182.87c-.79-4.57,1.35-16.61,7.82-16.56C21.48,166.35,26.28,175.5,34,175.48Z"/><path class="cls-4" d="M187.78,61.18a1.56,1.56,0,0,1-.39,1.55c-2.42-2-5-4.32-5.78-7.48S182.95,48,186,48.44c.88.12,2.25.19,2.18-.75a1.61,1.61,0,0,0-.4-.79c-2-2.75-.57-7.07,2.2-8.83s6.31-1.53,9.47-.69c6.7,1.77,12.58,5.93,17.71,10.75,3.78,3.55,7.64,5.25,7.84,10.85a69.86,69.86,0,0,1-3.61,23.09c-.81,2.4.41,5.15.7,7.7l-1.12.15c-1.7,1.36-3.19.94-5.29.39a11.41,11.41,0,0,1-5.41-3.48"/><path class="cls-5" d="M134.54,128.56c-4.06,6.77,0,12,0,16.25,0,0,24.37-14.89,25.72-14.89s9.48-16.25,9.48-16.25l9.15-.92-15,43.69-9.09,1.91s-32.61,9.58-33.84,8.12c-1.39-1.64,3.44-41.66,2.39-44.7"/><path class="cls-5" d="M124.48,129.36s-11.28-13.55-5.64-19.24,11.06,13.82,11.06,13.82"/><path class="cls-6" d="M110.64,96.83c.4-.57,1.28,0,1.69.55,4.84,6.67,6,15.32,10.1,22.48,7.17,12.57,23.53,18.77,37.46,14.86,22.12-6.2,29-29.24,24.52-49.58a35,35,0,0,0-5-12.49c-4.55-6.56-12.18-10.46-20-12.16-8.65-1.89-18.28-1-26.11,3.26-8.1,4.44-11.83,10.82-22.33,9.94,1.23,4.31,2.42,8.7,2.32,13.18s-1.68,9.12-5.14,12C109,98.76,110.12,97.55,110.64,96.83Z"/><path class="cls-5" d="M69.19,351.58,93.93,314l24.37-51.44c0-1.35,17.6-36.55,29.78-47.38S164.33,194.9,163,188.13s0-28.43,0-28.43l12.45-41.88a9.94,9.94,0,0,1,9.55-7.14c4.24,0,8.52-1.2,11.51-4.34,3.76-3.95,2.58-10,1.38-14.93l15.6-3.91a44.8,44.8,0,0,0,5.71,11.65c2.43,3.55,7.2,5.67,11.48,6.39,8.12,1.35,17.6,1.35,17.6,8.12s8.12,19,10.83,21.66,10.37,22.76,6.31,30.88S235,144.53,235,144.53s-22,42.24-20.63,46.3-1.35,19,5.42,27.08,21.66,37.91,19,51.44,13.54,23,14.89,27.08,27.08,56.86,29.78,63.63l-8.12,2.71S230.66,319.44,228,308.61s-31.14-39.26-31.14-39.26-13.54-23-13.54-31.14c0,0-29.78,28.43-40.61,36.55s-13.08,26.54-16.25,31.14c-2.54,3.68-40.5,41.42-39.26,42,0,0-10.11,7-11.46,12.38"/><path class="cls-7" d="M118.84,110.11c-.19-.82,15.4,23.58,27.32,22.49s19.51-10.84,20.6-10.84S154.83,138,154.83,138L146,135.46S124,133.15,118.84,110.11Z"/><path class="cls-8" d="M236.32,145.94s6.32-18.76,7.4-18.76,6.89-5.2,6.89-5.2l-1.47-3.47-7.59,7.59Z"/><polygon class="cls-8" points="258.89 346.16 260.9 348.33 273.98 339.66 271.9 336.4 258.89 346.16"/><path class="cls-5" d="M274,361.41l8.76-2.25s2.07,2.25,7.49,5,27.08,1.35,27.08,9.48c0,7-31.36,2.92-39.86,1.67a2.79,2.79,0,0,1-2.37-2.43l-.87-7Z"/><path class="cls-5" d="M77.36,356.79l-8.17-5.21a17.17,17.17,0,0,1-8.29,5.72c-5.73,2-27-2.29-28.1,5.76-.94,7,31.16,7.08,39.73,7A2.61,2.61,0,0,0,75.06,368l1.49-6.8Z"/><path class="cls-8" d="M144.88,138.56l-2,1.22s0,12.74,6.53,20.13l2.4-.54Z"/><path class="cls-7" d="M113.64,71.9s6,17.36-2.4,24.4c0,0,3.15,5.25,3.48,4.87,3.55-4.06,14.86-13.88,6.5-29.27Z"/><path class="cls-9" d="M159.58,200.54c.67.36,32.53,13.42,55.62,3.64a87,87,0,0,0,6.33,16c3.76,6.76,16.82,30.28,17.34,41.83s.32,17,4.21,22.42,9.31,8.64,10.4,11.89,19,40.18,19,40.18-7.84,6.93-14,9.39-28.88-23.56-31.05-31.14-2.17-8.67-6.5-14.09-29.27-31.44-31.44-36.86c-1.71-4.29-9.63-3.43-10.84-7.59-.24-.82.64-.57,0,0-5.69,5-24.28,12.36-27.1,15.18-3.25,3.25-18.43,16.26-20.6,27.1s-5,9.25-5,9.25-35.14,40.61-38.39,40.61-13-7.59-14.09-9.76,29.27-43,29.27-43,26-67.57,35.77-74.07S159.58,200.54,159.58,200.54Z"/><path class="cls-10" d="M223.32,102.86c-7.39,6-27.29,1.57-27.29,1.57s2,4.17-5,5.34-18.89,1.17-21.06,4.42-8.12,13.88-8.12,13.88l1.62,28.4c-3.37,0-3.87,38.15-1.62,39.13,1,.45-7.05,2.07-2.72,5.32s40.41,13.36,52.72,4.51l3.65-1.26s5.42,4.34,6.5-21.68c0-.51,11.92-27.1,11.92-27.1L241.55,125l7.66-6.5c1.25-.08,0-10.57-7.58-11.18"/><path class="cls-10" d="M145.07,135.86s17.34-7.59,18.43-9.76,0,30.35,0,30.35l-12.21,2.91S143.48,150.47,145.07,135.86Z"/><path class="cls-10" d="M229.63,106.59c-10.84,8.67-40.11,3.79-40.11,3.79s2.17-3.79,3.25-6c0,0,26,4.34,31.44-4.34Z"/><path class="cls-6" d="M90,92.39c-3-6.28-2.79-14.22,1.35-19.81s12.41-8,18.54-4.74a16.27,16.27,0,0,1,4.33,3.48c3.69,4.07,5.72,9.84,4.52,15.2a18.32,18.32,0,0,1-6.07,9.57,13.81,13.81,0,0,1-4.08,2.59c-3,1.15-6.41.7-9.5-.22A17.91,17.91,0,0,1,91,93.92a9.46,9.46,0,0,1-2.57-8.62"/><ellipse class="cls-11" cx="102.8" cy="82.74" rx="8.67" ry="10.84"/><path class="cls-11" d="M81,113.51a21.8,21.8,0,0,0-4,5.76,21.43,21.43,0,0,0-1.44,7c-.53,7.3.77,15.67,6.81,19.81a14.52,14.52,0,0,0,11.24,2,19.59,19.59,0,0,0,9.93-5.91,14.34,14.34,0,0,0,4-7.71c.35-2.68-.38-5.36-1.14-8-1.44-4.92-3-10-2.37-15.07.71-5.4,4-10.12,4.56-15.53.36-3.27-1.68-11-6.05-7.26-1.51,1.3-2.25,4-3.34,5.66a49.06,49.06,0,0,1-5.59,6.62C89.51,105.17,85,109.07,81,113.51Z"/><path class="cls-8" d="M123.43,127.2a3.61,3.61,0,0,0,1.05,2.15s-1.08,35.77-3.25,36.86S123.43,127.2,123.43,127.2Z"/><g class="cls-1"><path class="cls-2" d="M203.91,112.19c-10.51,0-14.42-2.2-14.46-2.23l.14-.23c.07,0,6.8,3.82,26.51,1.38.09,0,8.07-.36,11.25-4.59l.22.16c-1.7,2.27-4.73,3.43-7,4a24.19,24.19,0,0,1-4.48.7A99.71,99.71,0,0,1,203.91,112.19Z"/></g><g class="cls-12"><path class="cls-2" d="M154.74,158.42c-.18-.26-4.38-6.32-3.29-9.6l.26.09c-1.05,3.15,3.21,9.29,3.26,9.35Z"/></g><g class="cls-1"><path class="cls-2" d="M170.93,199.3a15.08,15.08,0,0,1-7.22-2.12c-.65-.42-1.43-1.05-1.42-1.7h.27c0,.41.46.93,1.3,1.47,2.22,1.42,7,2.77,9.35,1.66l.12.25A5.69,5.69,0,0,1,170.93,199.3Z"/></g><g class="cls-1"><path class="cls-2" d="M214.72,202.55a2.88,2.88,0,0,1-1.43-.45l.15-.23a2.15,2.15,0,0,0,1.92.25c.74-.4,1.12-1.54,1.12-3.39,0-5.62,0-7.72,1.22-7.72v.27c-.95,0-.95,2.33-.95,7.45,0,2-.42,3.18-1.26,3.63A1.63,1.63,0,0,1,214.72,202.55Z"/></g><g class="cls-1"><path class="cls-2" d="M262.52,165.24a7.72,7.72,0,0,1-1.76-.23l.06-.26c1.91.45,3.15.23,3.69-.67a2,2,0,0,0-.77-2.53,3.22,3.22,0,0,0-2.9-.08l-.1-.25a3.49,3.49,0,0,1,3.15.09,2.22,2.22,0,0,1,.86,2.9A2.39,2.39,0,0,1,262.52,165.24Z"/></g><g class="cls-12"><path class="cls-2" d="M124.7,164.5a2.9,2.9,0,0,1-1.29-.32,3.9,3.9,0,0,1-2-2.35,8.06,8.06,0,0,1,.73-5.15l.25.1a7.82,7.82,0,0,0-.72,5,3.62,3.62,0,0,0,1.82,2.19,2.6,2.6,0,0,0,1.39.28,3.87,3.87,0,0,1-2.65-2.88l.27-.05a3.57,3.57,0,0,0,3,2.79l.54.06-.51.2A2.43,2.43,0,0,1,124.7,164.5Z"/></g><path class="cls-13" d="M59.38,148.34c-3.67,9.31.64,21.07,9.49,25.77,2.39,1.27,5.41,2,7.75.68s3.25-4.54,5.32-6.45c2.4-2.21,6-2.38,9.27-2s6.53,1.21,9.73.54a13.63,13.63,0,0,0,5.1-2.37c5.94-4.28,8.92-11.75,9.4-19.05s-1.21-14.56-3-21.65-3.66-14.28-3.56-21.6c.06-4.17,2.5-11.39-2.56-13.28-4.1-1.53-9.91,1.79-12.35,4.87-1.7,2.14-2.7,4.73-3.89,7.18a46.32,46.32,0,0,1-11.58,14.9c-3.5,3-7.44,5.42-10.76,8.6s-6,7.33-6.19,11.92c-.06,2,.37,4,.06,6-.7,4.5-4.31,7.11-6.64,10.75a65.67,65.67,0,0,0,17.52,89.43c9.15,6.41,20.06,9.47,31.1,6.94,11.55-2.65,21.4-12.69,31.24-18.81A98.2,98.2,0,0,1,189.61,216c15.74.53,31.1,4.85,46.75,6.62,22.57,2.55,46-.4,66.47-10.19s37.85-26.68,46.54-47.66c3-7.14,4.91-14.66,7.93-21.78,4.41-10.39,11.21-20.34,11.25-31.63a28.12,28.12,0,0,0-7.37-18.81c-2.6-2.85-3.27-3.38-4-7.09a79.83,79.83,0,0,0-2.66-9.93C350,62.76,341.76,51,330,43.94a51.59,51.59,0,0,0-46.09-3.27c-4.93,2.1-9.68,5.13-12.54,9.67s-3.4,10.81-.26,15.15c1.34,1.86,3.3,3.34,4,5.51,1.25,3.67-1.46,7.39-3.9,10.41-8.11,10-15.33,23.25-10.78,35.32,2.66,7.06,8.85,12.11,13.12,18.33,5.41,7.88,7.66,18.13,4.89,27.28s-11,16.71-20.46,17.68c-7.6.77-17-1.86-21.73,4.1-1.43,1.79-2.16,4.13-3.9,5.62a10.19,10.19,0,0,1-5.23,2c-14.4,2.13-28.59-4.58-40.89-12.36-8.65-5.47-17.6-11.79-27.83-11.93-9-.13-17.3,4.61-25.83,7.56s-19.25,3.65-25.41-3a14.76,14.76,0,0,1-.11-19.31"/><g class="cls-14"><path class="cls-11" d="M356.1,84.61c1.44-6.17-3.75-15-6.34-19.63a56.18,56.18,0,0,0-19.73-21,51.59,51.59,0,0,0-46.09-3.27c-4.93,2.1-9.68,5.13-12.54,9.67s-3.4,10.81-.26,15.15c1.34,1.86,3.3,3.34,4,5.51,1.25,3.67-1.46,7.39-3.9,10.41-8.11,10-15.33,23.25-10.78,35.32,2.66,7.06,8.85,12.11,13.12,18.33,5.41,7.88,7.66,18.13,4.89,27.28s-11,16.71-20.46,17.68c-7.6.77-17-1.86-21.73,4.1-1.43,1.79-2.16,4.13-3.9,5.62a10.19,10.19,0,0,1-5.23,2c-14.4,2.13-28.59-4.58-40.89-12.36-8.65-5.47-17.6-11.79-27.83-11.93-9-.13-17.3,4.61-25.83,7.56s-19.25,3.65-25.41-3a13.63,13.63,0,0,1-3.24-6.25,16.18,16.18,0,0,0,2-1.25c5.94-4.28,8.92-11.75,9.4-19.05s-1.21-14.56-3-21.65-3.66-14.28-3.56-21.6c.06-4.17,2.5-11.39-2.56-13.28-4.1-1.53-9.91,1.79-12.35,4.87-1.7,2.14-2.7,4.73-3.89,7.18a46.32,46.32,0,0,1-11.58,14.9c-3.5,3-7.44,5.42-10.76,8.6s-6,7.33-6.19,11.92c-.06,2,.37,4,.06,6-.57,3.71-3.54,5.9-4.93,9.17-1.86,4.36-2.51,9.93-3,14.61-1.06,9.3-.16,19.12,5.15,27.09,9.31,13.94,29.48,17.29,45.15,11.37,4.95-1.87,9.6-4.49,14.64-6.1,14.23-4.53,29.57-.5,44.16,2.7a390.17,390.17,0,0,0,54.22,8c12.25.93,24.79,1.34,36.92-1,10.69-2,20.41-9.27,28.34-16.45,8.11-7.33,15.54-15.74,19.85-25.79s5.17-22,.39-31.8c-2.53-5.19-6.46-9.55-9.57-14.41-4.54-7.09-7.35-15.45-6.95-23.86s4.26-16.8,11-21.81,16.47-6.15,23.79-2c3.61,2,6.48,5.17,9.26,8.25s5.61,6.22,9.19,8.33,8.09,3.05,11.92,1.45A7.72,7.72,0,0,0,356.1,84.61Z"/></g><path class="cls-11" d="M68.5,215.08a17.82,17.82,0,0,1-7.79-1.79c-5-2.44-9.08-7.12-11.48-13.16-3.32-8.34-2.36-17.53,2.44-23.41,3-3.66,8.41-6.33,13-4.36,4.32,1.85,6.52,7.69,4.71,12.5a7.47,7.47,0,0,1-3.56,4.26,4.51,4.51,0,0,1-5.28-.89l.21-.17a4.23,4.23,0,0,0,5,.82,7.21,7.21,0,0,0,3.43-4.11c1.76-4.68-.37-10.36-4.57-12.16-4.48-1.92-9.78.7-12.7,4.28-4.74,5.8-5.68,14.89-2.4,23.14,2.38,6,6.41,10.61,11.35,13,5.54,2.71,12.26,2.28,16.71-1.07,4.11-3.09,6.6-8.8,6.66-15.28,0-5-1.2-10.06-2.4-14.91q-.27-1.08-.53-2.15c-2-8.18-3.78-17.82-2-27.22,1.33-7.21,5.05-12.37,10-13.79a10.94,10.94,0,0,1,10,2.27,11.94,11.94,0,0,1,3.94,9.48A10.08,10.08,0,0,1,97.76,159c-3.35,1.6-7.65.46-9.4-2.51a6,6,0,0,1-.17-5.43,5.15,5.15,0,0,1,3.6-3.1l.05.27a4.88,4.88,0,0,0-3.41,2.94,5.77,5.77,0,0,0,.16,5.18c1.67,2.85,5.82,3.95,9,2.4a9.81,9.81,0,0,0,5.17-8.38A11.66,11.66,0,0,0,99,141.1a10.66,10.66,0,0,0-9.7-2.22c-4.81,1.39-8.46,6.46-9.77,13.57-1.72,9.35.07,18.95,2,27.1l.53,2.15c1.21,4.87,2.46,9.9,2.41,15-.06,6.66-2.53,12.31-6.77,15.49A15.35,15.35,0,0,1,68.5,215.08Z"/><path class="cls-11" d="M76.32,135.46a3.25,3.25,0,0,1-1.17-.21,2.74,2.74,0,0,1-1.62-2.41,1.86,1.86,0,0,1,1-1.86l.12.24a1.6,1.6,0,0,0-.82,1.6A2.46,2.46,0,0,0,75.25,135c1.62.62,3.43-.39,4.48-1.44a17.8,17.8,0,0,0,2.84-4.2c3.84-7,7.82-14.32,10.15-22.15.27-.89.52-1.82.77-2.72,1.14-4.14,2.31-8.42,5.22-11.59A4.64,4.64,0,0,1,102.31,91a2.49,2.49,0,0,1,2,1.36,1.68,1.68,0,0,1,0,1.69,1,1,0,0,1-1.17.44.59.59,0,0,1-.21-.75.41.41,0,0,1,.51-.28l-.08.26c-.1,0-.15.05-.18.12a.33.33,0,0,0,.09.4c.27.14.64-.07.82-.35a1.4,1.4,0,0,0,0-1.43,2.21,2.21,0,0,0-1.74-1.21,4.4,4.4,0,0,0-3.39,1.77c-2.87,3.11-4,7.36-5.16,11.47-.25.9-.5,1.83-.77,2.73-2.34,7.85-6.32,15.15-10.17,22.2a18,18,0,0,1-2.88,4.26A5.42,5.42,0,0,1,76.32,135.46Z"/><path class="cls-11" d="M86.51,253.12a15,15,0,0,1-12.11-5.87c-4.39-6.06-3.28-15.43,2.43-20.47,2.55-2.25,5.55-3.28,8.21-2.82,2.82.48,5.64,3.21,5.18,6.35a4.51,4.51,0,0,1-3.11,3.46,3.62,3.62,0,0,1-3.77-.67l.19-.2a3.36,3.36,0,0,0,3.49.61A4.3,4.3,0,0,0,90,230.27c.35-2.4-1.6-5.47-5-6A9.86,9.86,0,0,0,77,227c-5.61,4.95-6.7,14.15-2.39,20.11s13.76,7.63,19.71,3.38c3-2.11,4.95-5.29,6.87-8.36.65-1,1.32-2.1,2-3.12a42.33,42.33,0,0,1,38.24-17.78l0,.27a42.06,42.06,0,0,0-38,17.66c-.69,1-1.36,2.08-2,3.11-1.94,3.1-3.94,6.3-6.94,8.44A13.7,13.7,0,0,1,86.51,253.12Z"/><path class="cls-11" d="M104.61,134.45c-2.23-8.56-4.2-17.29-5.85-26-.59-3.11-1.07-6.64.87-9.19a3.57,3.57,0,0,1,2.17-1.46A2.07,2.07,0,0,1,104.06,99a1.57,1.57,0,0,1-.21,1.45,1.28,1.28,0,0,1-1,.59h0v-.27h0a1,1,0,0,0,.82-.47,1.31,1.31,0,0,0,.18-1.19,1.82,1.82,0,0,0-2-1,3.3,3.3,0,0,0-2,1.36c-1.87,2.46-1.4,5.92-.82,9,1.66,8.66,3.62,17.39,5.85,25.94Z"/><path class="cls-11" d="M357.68,101.71a6.26,6.26,0,0,1-3.43-1.09,14.63,14.63,0,0,1-4-4.81c-3-5-6-10.22-8.82-15.24-3.21-5.66-6.52-11.52-10-17.15-2.43-4-5.34-8.48-9.08-12.06a33.92,33.92,0,0,0-38.94-4.93,16,16,0,0,0-5.73,4.88,8.08,8.08,0,0,0-1.17,7.16,5.48,5.48,0,0,0,5.83,3.63,4.26,4.26,0,0,0,2.93-2.41,3.53,3.53,0,0,0,0-3.23l.24-.13a3.79,3.79,0,0,1,0,3.47,4.53,4.53,0,0,1-3.13,2.56,5.76,5.76,0,0,1-6.13-3.8,8.34,8.34,0,0,1,1.2-7.41,16.27,16.27,0,0,1,5.82-5,34.19,34.19,0,0,1,39.26,5c3.77,3.6,6.69,8.14,9.13,12.11,3.47,5.64,6.78,11.5,10,17.16,2.84,5,5.78,10.21,8.81,15.23a14.42,14.42,0,0,0,3.88,4.73c1.52,1,3.94,1.58,5.67.3l.16.22A4.2,4.2,0,0,1,357.68,101.71Z"/><path class="cls-11" d="M284.59,122.27a12.25,12.25,0,0,1-6.69-2.11,16.36,16.36,0,0,1-7-10.65c-1.36-8.18,2.93-16.07,6.76-21.24a60.72,60.72,0,0,1,14.23-13.79c.85-.59,1.72-1.16,2.57-1.72a54.51,54.51,0,0,0,5.61-4,15.49,15.49,0,0,0,5.42-8.13c.78-3.43-.41-7.07-2.9-8.85a6.31,6.31,0,0,0-5.07-.92,5.07,5.07,0,0,0-3.42,2.51l-.24-.12a5.33,5.33,0,0,1,3.6-2.65,6.58,6.58,0,0,1,5.29,1c2.57,1.84,3.81,5.59,3,9.13a15.74,15.74,0,0,1-5.51,8.27A54.42,54.42,0,0,1,294.58,73c-.85.55-1.72,1.13-2.57,1.71a60.43,60.43,0,0,0-14.17,13.73c-3.8,5.13-8.05,12.95-6.71,21a16.08,16.08,0,0,0,6.9,10.47,11.35,11.35,0,0,0,9,1.76,10.83,10.83,0,0,0,4.88-18.27c-1.52-1.47-4.2-2.88-6.74-2s-3.72,3.36-4.11,5.46a6.39,6.39,0,0,0,1.08,5.31,4,4,0,0,0,2.7,1.34,3,3,0,0,0,2.19-.69,2.57,2.57,0,0,0,.58-2.69,2,2,0,0,0-1.63-1.46l0-.27A2.22,2.22,0,0,1,287.9,110a2.85,2.85,0,0,1-.65,3,3.22,3.22,0,0,1-2.39.76,4.22,4.22,0,0,1-2.89-1.44,6.66,6.66,0,0,1-1.13-5.53c.4-2.17,1.73-4.8,4.29-5.66,2.18-.74,4.94.08,7,2.09a11.1,11.1,0,0,1-5,18.73A10.4,10.4,0,0,1,284.59,122.27Z"/><path class="cls-11" d="M210.86,195.37a52.33,52.33,0,0,1-24.35-6c-3-1.59-5.9-3.51-8.7-5.36-2.27-1.5-4.62-3.06-7-4.43-6.51-3.72-12.25-5.28-17.51-4.76a19.87,19.87,0,0,0-13.62,7.58l-.21-.16a20.14,20.14,0,0,1,13.8-7.68c5.33-.53,11.11,1,17.67,4.8,2.41,1.38,4.77,2.94,7,4.44,2.79,1.85,5.67,3.75,8.68,5.34a52.15,52.15,0,0,0,37.77,4.14,22.24,22.24,0,0,0,9-4.4l-1.61-.14,0-.27,2.22.19-.22.21c-2.83,2.67-6.68,3.95-9.33,4.68A51.52,51.52,0,0,1,210.86,195.37Z"/><path class="cls-11" d="M277.81,207.56l-.06-.27c12.8-2.72,25.13-10.1,34.72-20.76,8.56-9.52,15.22-22,19.27-36,1.31-4.53,2.47-9.82,1.18-14.7l.26-.07c1.31,4.95.14,10.28-1.18,14.84-4.05,14-10.74,26.52-19.33,36.08C303,197.42,290.66,204.83,277.81,207.56Z"/><path class="cls-11" d="M118,210.28h-.48c-4.85-.16-9.37-3.14-11-7.25-1.78-4.47.26-10,4.36-11.92a7.2,7.2,0,0,1,8.41,1.66,5.78,5.78,0,0,1,1.11,4.63,5,5,0,0,1-2.28,3.46,4.63,4.63,0,0,1-4.61-.18,4,4,0,0,1-2.13-3.48h.27a3.73,3.73,0,0,0,2,3.24,4.35,4.35,0,0,0,4.34.18,4.7,4.7,0,0,0,2.15-3.27,5.51,5.51,0,0,0-1.05-4.41,6.92,6.92,0,0,0-8.09-1.59c-4,1.82-5.94,7.23-4.22,11.57,1.6,4,6,6.92,10.77,7.08H118c3.63,0,7.15-1.36,10.55-2.68l1-.4c9.56-3.67,18-5.54,25.71-5.72h1.27c8.63,0,17.21,2,25.53,3.9S199,209,207.56,209h.38A80.14,80.14,0,0,0,225,206.77c14.23-3.18,24-8,30.81-15.08l.2.19c-6.83,7.15-16.67,12-31,15.16a80.35,80.35,0,0,1-17.14,2.23h-.38c-8.64,0-17.24-2-25.56-3.9s-16.87-3.89-25.47-3.89h-1.26c-7.71.18-16.09,2-25.61,5.7l-1,.4C125.21,208.9,121.67,210.28,118,210.28Z"/><g class="cls-1"><path class="cls-2" d="M120.76,87.53l-.26-.09a21.11,21.11,0,0,0-.4-15.16l.25-.11A21.39,21.39,0,0,1,120.76,87.53Z"/></g><g class="cls-1"><path class="cls-2" d="M146.63,131.68l-.12-.24s0,0,0-.08a.22.22,0,0,0-.11-.19.85.85,0,0,0-.53,0,11.43,11.43,0,0,1-6.26-.67,24.28,24.28,0,0,1-14.05-13.08.41.41,0,0,1,0-.44.21.21,0,0,1,.23-.06.25.25,0,0,1,.18.18.18.18,0,0,1-.08.18l-.15-.22a.09.09,0,0,0,0,.07.07.07,0,0,0,0,0,.06.06,0,0,0,0,0s0,0,0,.15a24,24,0,0,0,13.89,12.94,11.17,11.17,0,0,0,6.11.66,1,1,0,0,1,.71,0,.5.5,0,0,1,.26.43A.34.34,0,0,1,146.63,131.68Z"/></g><path class="cls-5" d="M217.7,90.33,215.31,76s5.74-5.65.5-7.88-3.64,5.4-3.64,5.4-2.73,1-3.51.41c-.52-.41,3.8-16.64-1.92-15.14-3.7,1-2.84-4.85-5.64-4.41l-9,1.39A4.91,4.91,0,0,0,188,61.14l1.17,10-1.91,7.44a1.48,1.48,0,0,0,1.61,1.84l1.36-.16c.53,4.55-1.45,8.68-.29,13.23a2.75,2.75,0,0,0,.69,1.39,3,3,0,0,0,2.5.39c4.34-.63,8.51-1.4,12.86-1.91"/><line class="cls-5" x1="215.27" y1="89.38" x2="208.13" y2="92.32"/><path class="cls-8" d="M198.54,94.47s14.83-2,14.83-3.05-14.57,8.33-14.33,8S198.54,94.47,198.54,94.47Z"/><g class="cls-1"><path class="cls-2" d="M214.92,74.47a1,1,0,0,1-.42-.09.66.66,0,0,1-.41-.59h.27a.4.4,0,0,0,.25.35.69.69,0,0,0,.69-.05,1.49,1.49,0,0,0,.39-1.27,1.52,1.52,0,0,0-.53-1.17.72.72,0,0,0-.67,0,.44.44,0,0,0-.27.33l-.27,0a.7.7,0,0,1,.43-.55,1,1,0,0,1,.93.06,1.77,1.77,0,0,1,.65,1.37,1.68,1.68,0,0,1-.49,1.51A.89.89,0,0,1,214.92,74.47Z"/></g><g class="cls-1"><path class="cls-2" d="M179.62,90.63l-.27-.05a15.65,15.65,0,0,0-6.22-15.52l.15-.22A15.92,15.92,0,0,1,179.62,90.63Z"/></g><g class="cls-1"><path class="cls-2" d="M219,189.79l-.21-8.57a4.56,4.56,0,0,1,.08-1.18,4.51,4.51,0,0,1,.59-1.25l6.1-10.12.23.14-6.1,10.12a4.27,4.27,0,0,0-.56,1.17,4.32,4.32,0,0,0-.07,1.11l.21,8.57Z"/></g><g class="cls-1"><path class="cls-2" d="M168.94,261.67l-.09-.26a26.58,26.58,0,0,0,17.66-26.25,1.17,1.17,0,0,0-.29-.78.26.26,0,0,0-.22-.06l0-.27a.54.54,0,0,1,.43.12,1.42,1.42,0,0,1,.39,1,26.85,26.85,0,0,1-17.84,26.52Z"/></g><g class="cls-1"><path class="cls-2" d="M124.81,305.14a1.57,1.57,0,0,1-1-.34l.17-.21a1.36,1.36,0,0,0,1.12.25,2.26,2.26,0,0,0,1.48-1,6,6,0,0,0,.59-2.94v-.2a34.93,34.93,0,0,1,2.07-10.63l.25.09a34.68,34.68,0,0,0-2.05,10.55v.2a6.23,6.23,0,0,1-.63,3.07,2.55,2.55,0,0,1-1.66,1.15Z"/></g><g class="cls-1"><path class="cls-2" d="M248.65,299.27a.59.59,0,0,1-.41-.34,1,1,0,0,1,0-.81,2.37,2.37,0,0,1,.5-.62c.09-.09.19-.18.27-.28a2.88,2.88,0,0,0-.17-3.4,9.1,9.1,0,0,0-2.6-2.14l-.35-.22a34.78,34.78,0,0,1-6-4.87l.19-.19a34.53,34.53,0,0,0,5.93,4.83l.35.22a9.32,9.32,0,0,1,2.67,2.21,3.11,3.11,0,0,1,.16,3.74c-.09.11-.19.2-.29.3a2.15,2.15,0,0,0-.45.54.7.7,0,0,0,0,.58.33.33,0,0,0,.22.19Z"/></g><polygon class="cls-8" points="74.71 343.2 84.53 349.85 86.1 347.99 76 341.25 74.71 343.2"/><g class="cls-1"><path class="cls-2" d="M70.11,367.89a2.52,2.52,0,0,1-.82-.14l.09-.26a2.38,2.38,0,0,0,2.38-.52,2.35,2.35,0,0,0,.6-2.35l.26-.08a2.62,2.62,0,0,1-.67,2.63A2.66,2.66,0,0,1,70.11,367.89Z"/></g><g class="cls-1"><polygon class="cls-2" points="193.31 68.06 193.27 67.79 196 67.43 196.04 67.7 193.31 68.06"/></g><path class="cls-8" d="M195.81,69.82c0,.14.1-.15,0-.18a2.61,2.61,0,0,0-3,2.8,4.33,4.33,0,0,0,4.8-1.41,1.46,1.46,0,0,0,.37-1.08,1.2,1.2,0,0,0-1.16-.88,3.49,3.49,0,0,0-1.51.4"/></svg>