<svg id="Layer_1" data-name="Layer 1" xmlns="http://www.w3.org/2000/svg" viewBox="0 0 300 431.88"><defs><style>.cls-1{fill:#fafafa;}.cls-2{opacity:0.27;}.cls-3{fill:#515151;}.cls-4{fill:#f59295;}.cls-5{fill:#90665e;}.cls-6{fill:#ffdfd9;}.cls-7{fill:#ffcbbf;}.cls-8{fill:#f8c878;}.cls-9{fill:#f4b65b;}.cls-10{fill:#f4f4f4;}.cls-11{fill:#ea6e77;}</style></defs><title>Sign</title><path class="cls-1" d="M250.59,384.77a161,161,0,0,1,19.25-83.4c6.63-12.21,14.83-23.53,21.16-35.89,3.42-6.68,6.19-15,2.11-21.33-3.17-4.9-9.6-6.73-15.42-6.4-10,.57-19,6.21-28.33,9.88s-21.16,5-28.5-1.89c-7.52-7-6.79-19.1-4.28-29.09,10.18-40.65,38.89-73.56,62.85-107.95,4.63-6.65,9.23-13.68,10.5-21.68a10.05,10.05,0,0,0-.66-6.45c-3.18-5.73-11.91-2.89-17.36.73a446.53,446.53,0,0,0-92.84,82.45c-22.77,26.77-42.6,56.45-69.57,79-4,3.34-8.66,6.68-13.86,6.37-6.32-.38-11.07-6.06-13.5-11.9s-3.42-12.28-6.51-17.8-9.41-10.09-15.48-8.3c-3,.88-5.36,3.13-7.41,5.47-8.5,9.69-13.53,22-16.45,34.58-10.87,46.62,5.54,95.1,4.27,143a13,13,0,0,1-1.26,5,147.86,147.86,0,0,0,52.63-8.41c8.66-3.06,17.14-6.94,26.23-8.24a47.8,47.8,0,0,1,18,.86c5,1.21,9.76,3.22,14.77,4.3a81.53,81.53,0,0,0,11.93,1.35l11,.7c11.64.74,23.28,1.21,34.94,1,8.9-.19,17.78-.69,26.67-1.19C240.9,389.12,246.33,388.11,250.59,384.77Z"/><g class="cls-2"><path class="cls-3" d="M39.55,399.38q-5.5,0-11-.3c-7.45-.41-15.21-1.31-21.85-4.91l2.07,1.64-.17.21L5,393.18l.16-.22c6.93,4.38,15.33,5.4,23.38,5.84a197.49,197.49,0,0,0,68.7-8.31l4-1.24a97.68,97.68,0,0,1,16.53-4.19c9.48-1.25,19.15.33,28.5,1.86l1.87.31C171,391,189.49,392.48,206.31,392c21.37-.58,39.72-4.38,56.09-11.6l.11.25c-16.4,7.23-34.78,11-56.19,11.62-16.84.46-35.36-1.06-58.26-4.78l-1.87-.31c-9.33-1.53-19-3.11-28.42-1.86a97.54,97.54,0,0,0-16.49,4.18l-4,1.24A197.62,197.62,0,0,1,39.55,399.38Z"/></g><path class="cls-4" d="M124.75,59.46a62.28,62.28,0,0,1-13.14-8.64c-3.45-3-6.67-6.46-8-10.81a19.13,19.13,0,0,1,.73-12,19.15,19.15,0,0,1,8.24-10.32c3.93-2.18,9.1-2.36,12.79.2s5.26,8.06,2.89,11.88-8.68,4.58-11.46,1c1.27,6.53,9.83,9.56,16,7,7.46-3.13,11.25-12.53,8.9-20.28s-10-13.3-18-14.18-16.21,2.5-22.08,8.06c-9.3,8.82-12.89,23-9.65,35.36s12.9,22.76,24.76,27.61a8.17,8.17,0,0,0,5.08.79,2.94,2.94,0,0,0,1.5-1.47,44.37,44.37,0,0,0,3-15.14C126.36,58.06,125.17,59.18,124.75,59.46Z"/><path class="cls-4" d="M161,65.05a56.44,56.44,0,0,1-5.35-13.21c-1.05-4-1.65-8.25-.39-12.17A17.34,17.34,0,0,1,162,31.11a17.35,17.35,0,0,1,11.45-3.46c4.05.39,8,2.92,9.44,6.73s-.22,8.72-4,10.35-8.83-1.05-9.08-5.12c-2.41,5.52,2.42,12.19,8.32,13.42,7.17,1.5,14.84-3.57,17.07-10.55s-.59-15-6.13-19.83-13.38-6.48-20.62-5.34c-11.48,1.79-21.42,10.5-25.39,21.42S141,62.35,147.39,72.07a7.41,7.41,0,0,0,3.39,3.2,2.67,2.67,0,0,0,1.88-.33,40.21,40.21,0,0,0,10-9.74C163,64.84,161.5,65.06,161,65.05Z"/><path class="cls-5" d="M159.57,67.65A1.56,1.56,0,0,0,160,69.2c2.42-2,5-4.32,5.78-7.48s-1.33-7.23-4.39-6.82c-.88.12-2.25.19-2.18-.75a1.62,1.62,0,0,1,.4-.79c2-2.75.57-7.07-2.2-8.83s-6.31-1.53-9.48-.69c-6.7,1.77-12.59,5.93-17.72,10.76-3.78,3.56-7.65,5.25-7.85,10.85a69.91,69.91,0,0,0,3.61,23.1c.81,2.41-.41,5.16-.7,7.71l1.12.15c1.7,1.36,3.19.94,5.29.39a11.41,11.41,0,0,0,5.41-3.48"/><path class="cls-6" d="M147.89,100.81c4.35.51,2,.36,6.36,1a3,3,0,0,0,2.5-.39,2.75,2.75,0,0,0,.69-1.39c1.16-4.55-.82-8.69-.29-13.24l1.36.16a1.48,1.48,0,0,0,1.61-1.84l-1.91-7.45,1.17-10a4.92,4.92,0,0,0-4.13-5.43l-9-1.39c-2.8-.43-1.94,5.39-5.65,4.42-5.73-1.51-1.4,14.74-1.93,15.15-.78.62-3.51-.41-3.51-.41s1.6-7.64-3.64-5.41.5,7.89.5,7.89l-2.4,14.39L125,107.21l17.56-1.33,6.2-4.92"/><line class="cls-6" x1="132.06" y1="95.87" x2="139.21" y2="98.81"/><path class="cls-7" d="M148.8,101s-18-2.47-18-3.55,14.58,8.33,14.34,8S148.8,101,148.8,101Z"/><g class="cls-2"><path class="cls-3" d="M132.41,80.94a.89.89,0,0,1-.55-.18,1.68,1.68,0,0,1-.49-1.51,1.77,1.77,0,0,1,.66-1.37,1,1,0,0,1,.93-.06.7.7,0,0,1,.43.55l-.27,0a.44.44,0,0,0-.27-.33.71.71,0,0,0-.67,0,1.52,1.52,0,0,0-.54,1.17,1.5,1.5,0,0,0,.39,1.27.69.69,0,0,0,.69.05.4.4,0,0,0,.25-.35h.27a.66.66,0,0,1-.41.59A1,1,0,0,1,132.41,80.94Z"/></g><g class="cls-2"><polygon class="cls-3" points="154.04 74.54 151.31 74.17 151.34 73.91 154.07 74.27 154.04 74.54"/></g><path class="cls-7" d="M151.53,76.3c0,.14-.1-.15,0-.19a2.61,2.61,0,0,1,3,2.8,4.33,4.33,0,0,1-4.81-1.41,1.46,1.46,0,0,1-.37-1.08,1.2,1.2,0,0,1,1.16-.88,3.5,3.5,0,0,1,1.51.4"/><path class="cls-6" d="M152.71,376.51l8.45-1.08a19,19,0,0,0,5.47,7.17c4.23,3.65,23.91,7.33,22.07,14.6-1.59,6.3-29.11-4.66-36.41-7.69a2.41,2.41,0,0,1-1.45-2.63l1.06-6.33Z"/><path class="cls-6" d="M164.32,224.54c-.9,6.33-9.72,28.08-15.37,41.39-.81,1.91-1.56,3.64-2.2,5.13-5.17,11.89-7.24,24.29-8.79,34.63s-1.56,11.37-8.79,21.19-13.44,62.54-14.47,76,32.56,21.71,27.41,24.81S104.88,423,104.88,423a94.09,94.09,0,0,0-2.07-21.71c-2.58-12.92-1.55-60,0-73.39s16.54-18.09,15-36.7,11.37-46.52,11.37-50.13.52-27.91-.52-34.11,12.92-27.39,13.44-36.18-8.27-15-17.06-33.59,0-30,0-30,17.57-.52,21.71-3.62,42.9,46,44.45,53.75-1,12.92-9.3,6.72-17.57-18.61-17.57-18.61,11.37,9.82,10.85,18.61-1,40.31-1,40.31,6.55,45,4.65,55.3c-4.89,26.45-10.59,45.31-8.79,47,0,0-9.3,61.5-7.75,71.84h-9.82s-11.89-42.9-12.4-50.13,9.3-27.39,9.3-32,2.58-39.78,1-45"/><path class="cls-8" d="M135.63,192.39s36.6,3,38.66,3.5,8.56,58.5,7.56,63.5-9.5,45-9.5,50.5-6.9,58-6.45,56.5-22.17,0-19.47,0S139,335,140,328.42s9.28-29.55,9.3-32,2.42-32.22,1.47-34.85-10.95,36.36-10.95,41.86-4.36,19-10.68,23.48-8.48,72.15-11.32,72.25-21.5-.73-20.5-2.23,3.27-71,3.89-74.5,10.11-34.5,10.61-37,15-67,15-67S126.39,191.62,135.63,192.39Z"/><g class="cls-2"><path class="cls-3" d="M127.06,319.15l-.13-.24a8.36,8.36,0,0,0,3.23-2.78,4,4,0,0,0,.28-4,2.83,2.83,0,0,0-1.79-1.31,2.23,2.23,0,0,0-1.76.26,2,2,0,0,0-.78,1.9,1.61,1.61,0,0,0,1,1.39l-.09.25a1.87,1.87,0,0,1-1.16-1.62,2.26,2.26,0,0,1,.9-2.16,2.48,2.48,0,0,1,2-.3,3.11,3.11,0,0,1,2,1.44,4.28,4.28,0,0,1-.29,4.29A8.62,8.62,0,0,1,127.06,319.15Z"/></g><g class="cls-2"><path class="cls-3" d="M131,210.51l-.21-.17a13.5,13.5,0,0,1,4.34-3.06,11.77,11.77,0,0,0,4.53-3.38c1.51-2.2,1.34-5.06,1-8a1.49,1.49,0,0,0-.82-1.15c-.08,0-.17,0-.26.15l-.24-.13a.49.49,0,0,1,.55-.28,1.72,1.72,0,0,1,1,1.39c.33,3,.51,6-1.05,8.23a12,12,0,0,1-4.63,3.47A13.32,13.32,0,0,0,131,210.51Z"/></g><g class="cls-2"><polygon class="cls-3" points="114.91 394.71 114.77 394.69 101.39 393.49 101.42 393.22 114.64 394.41 114.75 389.89 115.02 389.89 114.91 394.71"/></g><path class="cls-9" d="M150.8,261.52s8.45,29.36,3.25,40.36-8.55,21-7.62,26-2.34,23-2.34,23-3.89-17.44-4.07-22.47,6.1-20.77,7.35-24.86,1.59-27.17,2-28.67Z"/><path class="cls-7" d="M102.34,398.24l.47,3.05s12,.93,12.07,0,.15-2.17.15-2.17Z"/><path class="cls-7" d="M149.06,366.16l.73,2.7s12.59-.58,12.65-1.35a16.08,16.08,0,0,0,0-1.76Z"/><path class="cls-9" d="M114.52,273.39s12.54-20.67,11.44-25.5-.93-11-.93-13.67,1.83-15.83,1.83-15.83l-6.17,28.33Z"/><path class="cls-10" d="M149.41,104.44c-14.78,4.71-25.27.59-25.39.94-.33,1-2.81,3.84-1.74,4.34a4.73,4.73,0,0,0,2.75,0s-.86-2.83-3,1.83-1.17,22.17,0,24.5,15.5,25.83,16.17,27.83.83,10.33,0,12.5-7.06,18.4-7.39,19,44.39,7.69,46.89,2-3.18-12.18-3.09-15.68.66-17.53.59-18.47-2.5-9.85-2.5-9.85-10.83-18.5-10.67-19,8.17-7.17,8.67-8.83-18.23-22.4-20.33-22.1S149.41,104.44,149.41,104.44Z"/><path class="cls-11" d="M122.56,3.26c-7.67-.46-15.35,2.85-20.94,8.15-9.3,8.82-12.89,23-9.65,35.36A39.86,39.86,0,0,0,100.8,63c.76-6.93-4-13.18-6-19.9-2.93-10.12,1-21.45,8.46-28.93A44.33,44.33,0,0,1,122.56,3.26Z"/><path class="cls-11" d="M116.83,30.83s3.22,11.26,16,7C132.8,37.81,126.93,38.35,116.83,30.83Z"/><path class="cls-11" d="M169.86,39.62s-4,7.74,8.32,13.42C178.18,53,171.53,47.85,169.86,39.62Z"/><g class="cls-2"><path class="cls-3" d="M157.28,137a52.47,52.47,0,0,1-8.33-11.3l.24-.13a52.15,52.15,0,0,0,8.29,11.24Z"/></g><g class="cls-2"><path class="cls-3" d="M172.74,195.23a1.48,1.48,0,0,1-1.18-.54l.21-.17a1.29,1.29,0,0,0,1.26.42,2.21,2.21,0,0,0,1.66-1.31,5.62,5.62,0,0,0-.41-3.77,28.31,28.31,0,0,0-1.59-3.91l.24-.13a28.57,28.57,0,0,1,1.6,3.95,5.83,5.83,0,0,1,.41,4,2.49,2.49,0,0,1-1.87,1.48Z"/></g><g class="cls-2"><path class="cls-3" d="M130.18,111a11.21,11.21,0,0,1-4.8-1.08l-.06,0a2,2,0,0,0-.94-.27.65.65,0,0,0-.46.27.35.35,0,0,0-.05.3l-.26.08a.61.61,0,0,1,.09-.54.91.91,0,0,1,.66-.39,2.11,2.11,0,0,1,1.08.3l.06,0a10.92,10.92,0,0,0,6.55.89l0,.27A11,11,0,0,1,130.18,111Z"/></g><g class="cls-2"><path class="cls-3" d="M186.79,162.58a2.4,2.4,0,0,1-1.09-.25A3.45,3.45,0,0,1,184,159l.27,0a3.18,3.18,0,0,0,1.54,3,2.29,2.29,0,0,0,1.87,0,1.78,1.78,0,0,0,1.06-1.07,1.63,1.63,0,0,0-.52-1.64,1.29,1.29,0,0,0-1.39-.32l-.11-.25a1.55,1.55,0,0,1,1.68.37,1.89,1.89,0,0,1,.6,1.92,2,2,0,0,1-1.21,1.24A2.64,2.64,0,0,1,186.79,162.58Z"/></g><path class="cls-11" d="M30.39,323.07A183,183,0,0,1,47,359.2c-.26-.79-5.75-4.17-6.71-5.29a34.13,34.13,0,0,1-5.4-9.46C32.09,337.68,31,330.31,30.39,323.07Z"/><path class="cls-11" d="M65.59,316.68a183,183,0,0,1,11.5,38c-.15-.82-5.13-4.92-5.93-6.15a34.13,34.13,0,0,1-4.07-10.1C65.29,331.38,65.19,323.93,65.59,316.68Z"/><path class="cls-11" d="M60,350.8a183,183,0,0,0-16.56,36.12c.26-.79,5.75-4.17,6.71-5.29a34.13,34.13,0,0,0,5.4-9.46C58.29,365.41,59.4,358,60,350.8Z"/><path class="cls-11" d="M92.53,354.38A183,183,0,0,0,76,390.5c.26-.79,5.75-4.17,6.71-5.29a34.13,34.13,0,0,0,5.4-9.46C90.83,369,91.94,361.62,92.53,354.38Z"/><path class="cls-11" d="M55.17,305.2c1.12,4.19-.85,30-7.22,27.47C40.52,329.7,56.25,309.21,55.17,305.2Z"/><path class="cls-11" d="M95.22,313c-.4,4.32-11.19,27.87-16.28,23.27C73,330.91,94.84,317.12,95.22,313Z"/><path class="cls-11" d="M104.91,275.83c0,4.34-8.41,28.83-13.93,24.75C84.54,295.83,104.94,280,104.91,275.83Z"/><path class="cls-11" d="M25.42,349c4.19,1.12,25.6,15.7,20.21,20C39.35,373.88,29.43,350,25.42,349Z"/><path class="cls-11" d="M42.85,327.39c1-1.25-8-11-9.43-13.88-2.19-4.55-5.9-15.43-1.55-19.71,4.76,4.5,7,14.34,9.28,20.39C42,316.44,44,324.67,42.85,327.39Z"/><path class="cls-11" d="M38,262.88c.51-.84,1.52-1.73,2.34-1.2,1.5,9.55.75,20.64-3.48,29.45C32.3,287,35,267.87,38,262.88Z"/><path class="cls-11" d="M53.76,336.87c.53-.68,1.32-1.41,2.12-1.1,3.12,1.22-3.09,19.51-7,18.57C42.48,352.81,52.1,339,53.76,336.87Z"/><path class="cls-11" d="M65.39,357c-.25-.82-.38-1.9.33-2.36,2.8-1.83,14.09,13.84,11.06,16.48C71.82,375.44,66.16,359.58,65.39,357Z"/><path class="cls-11" d="M99.36,239.9c.53-.68,1.32-1.41,2.12-1.1,3.12,1.22-3.09,19.51-7,18.57C88.08,255.83,97.71,242,99.36,239.9Z"/><path class="cls-11" d="M45.28,400.22c-1.83-19.8,6.64-38.86,3.72-58.72-2.81-19.13-12.48-37-10.8-56.73.16-1.92-2.84-1.91-3,0-1.61,18.84,6.95,36,10.34,54.19,3.88,20.74-5.17,40.57-3.27,61.26.18,1.91,3.18,1.92,3,0Z"/><path class="cls-11" d="M216.14,314.13a183,183,0,0,0-16.56,36.12c.26-.79,5.75-4.17,6.71-5.29a34.13,34.13,0,0,0,5.4-9.46C214.44,328.74,215.55,321.37,216.14,314.13Z"/><path class="cls-11" d="M186.54,341.86A183,183,0,0,1,203.1,378c-.26-.79-5.75-4.17-6.71-5.29a34.13,34.13,0,0,1-5.4-9.46C188.24,356.47,187.13,349.1,186.54,341.86Z"/><path class="cls-11" d="M191.36,296.26c-1.12,4.19.85,30,7.22,27.47C206,320.76,190.28,300.27,191.36,296.26Z"/><path class="cls-11" d="M221.11,340c-4.19,1.12-25.6,15.7-20.21,20C207.18,364.94,217.1,341.09,221.11,340Z"/><path class="cls-11" d="M203.68,318.45c-1-1.25,8-11,9.43-13.88,2.19-4.55,5.9-15.43,1.55-19.71-4.76,4.5-7,14.34-9.28,20.39C204.54,307.5,202.52,315.73,203.68,318.45Z"/><path class="cls-11" d="M208.5,253.94c-.51-.84-1.52-1.73-2.34-1.2-1.5,9.55-.75,20.64,3.48,29.45C214.23,278,211.51,258.93,208.5,253.94Z"/><path class="cls-11" d="M192.77,327.93c-.53-.68-1.32-1.41-2.12-1.1-3.12,1.22,3.09,19.51,7,18.57C204.05,343.87,194.42,330.06,192.77,327.93Z"/><path class="cls-11" d="M204.25,391.28c1.91-20.69-7.15-40.52-3.27-61.26,3.4-18.14,12-35.35,10.34-54.19-.16-1.91-3.16-1.93-3,0,1.68,19.72-8,37.6-10.8,56.73-2.91,19.86,5.54,38.92,3.72,58.72-.18,1.92,2.82,1.91,3,0Z"/><path class="cls-11" d="M77.39,394.7a253,253,0,0,1,9.25-84.82c3.52-12.59,7.38-25.28,8-38.42.4-9.18-1.28-18.85-9-24.68-1.54-1.16-3,1.44-1.51,2.59,9.92,7.49,8.07,22.93,6.21,33.61-2.18,12.54-6.4,24.6-9.42,36.94a247.71,247.71,0,0,0-6.47,74.79c.12,1.92,3.12,1.93,3,0Z"/><path class="cls-11" d="M82,260.89a4.71,4.71,0,0,1,1.24-2.3,1.91,1.91,0,0,1,2.42-.19,2.79,2.79,0,0,1,.63,1c1.47,3.14,9.75,27.51,4.55,29.21C83.24,291,80.88,264.65,82,260.89Z"/><path class="cls-11" d="M72.78,225.29c1.24-.83,2.69.7,3.4,2l5.6,10.3c2.51,4.61,7.12,11.78,5.83,17.07C77.66,252.08,72.84,234,72.78,225.29Z"/></svg>