<svg id="Layer_1" data-name="Layer 1" xmlns="http://www.w3.org/2000/svg" viewBox="0 0 358.06 332.5"><defs><style>.cls-1{opacity:0.27;}.cls-2{fill:#515151;}.cls-3{fill:#fafafa;}.cls-4{fill:#fdbc5c;}.cls-5{fill:#90665e;}.cls-6{fill:#ffdfd9;}.cls-7{fill:#f4f4f4;}.cls-8{fill:#ffcbbf;}.cls-9{fill:#7f5954;}.cls-10{fill:#e0e0e0;}.cls-11{fill:#fff;}.cls-12{fill:#f2a744;}</style></defs><title>Sign</title><g class="cls-1"><path class="cls-2" d="M43,308.51c-18.21,0-36.32-1.58-54.09-5.83l.09-.36c44.23,10.56,90.57,4.61,135.38-1.15,41-5.27,83.42-10.72,124.38-3.62,2.89.5,5.83,1.08,8.67,1.63,8.55,1.67,17.4,3.4,26.23,3.4h.33c13.57-.07,25.19-4.75,31.88-12.86l.29.24c-6.76,8.19-18.49,12.93-32.17,13h-.33c-8.86,0-17.72-1.73-26.3-3.41-2.84-.55-5.77-1.13-8.67-1.63-40.89-7.1-83.28-1.65-124.27,3.62C97.54,305,70.13,308.51,43,308.51Z"/></g><path class="cls-3" d="M268,302.26c7.94-7.63,12.39-29.79,11.06-40.71s-6.74-21-13.72-29.56c-3-3.68-6.35-7.14-8.74-11.25-3.37-5.81-4.66-12.63-4.84-19.35-.88-32,21.69-59.95,46.52-80.19,12.57-10.25,26.13-19.48,36.94-31.56s18.82-27.84,17.35-44c-.4-4.44-1.59-9-4.44-12.41C343,27.15,334.25,26,326.35,26,279,26.07,236.41,53.55,199,82.57c-19.69,15.28-40.19,31.88-64.89,35.25-12.29,1.68-24.79-.08-37.16.87-38.16,2.93-70.57,32-87.06,66.56C4.09,197.41-.16,210.61,0,224.09c.15,12.68,4.17,24.95,8.14,37,5,15.17,10.06,30.44,17.87,44.38,1.44,2.57,5.71,4.92,6.56,2.09,26.85-1.46,53.46-1,80.31-2.48a180.33,180.33,0,0,0,18.15-1.6c5.58-.88,11.06-2.27,16.58-3.49,29.08-6.41,59-7.82,88.74-9.19C247.73,290.26,257.08,298.84,268,302.26Z"/><path class="cls-4" d="M205.07,155.38l-6.47-8.78,19-3.36s5.82,6.17,2.29,7.24S205.07,155.38,205.07,155.38Z"/><path class="cls-4" d="M225.32,147.12s-2.18-4.94-1-5.49,9.53-2,9.53-2l1.64,6.33Z"/><path class="cls-4" d="M290.82,153.39a3.13,3.13,0,0,1-1.06-3.86c.58-1.26,1.33-2.5,2-2.3a57.22,57.22,0,0,1,5.94,3.31,3.14,3.14,0,0,1,1.17,4.13h0a3.15,3.15,0,0,1-4.61,1.14Z"/><path class="cls-4" d="M241.49,143.46s-4-5.89-2.9-5.91,10.3-.44,13-.2,4.64,4.59,4.64,4.59a10.25,10.25,0,0,1-6.84-.22C246.14,140.24,241.49,143.46,241.49,143.46Z"/><path class="cls-4" d="M260.94,138.74a2.9,2.9,0,0,0,.57,3.64l16.85,5.76,8,.34a64.83,64.83,0,0,1-5.08-4.79c-3.94-3.93-17.14-6.14-17.2-6.44S260.94,138.74,260.94,138.74Z"/><path class="cls-4" d="M171.21,103.77a4.84,4.84,0,0,1-1.4-5.3,12.3,12.3,0,0,1,3.29-4.78c5.54-5.62,12.19-10.19,17-16.48s7.31-15.24,3.38-22.08c-.43-.74-1.9-1.16-1.79-.3-9.52,6.67-24.62,5.25-34.56-.77-4.45-2.69-8.12-6.47-12.24-9.64a53.72,53.72,0,0,0-45.16-9.33c-.63-4,4.65-6,8.7-6.54,25.22-3.1,51.22-6.16,75.72.62,9.41,2.6,18.9,7,24.35,15.13,4.5,6.69,5.68,15.09,5.62,23.15a50.45,50.45,0,0,1-3.21,18.62c-4.07,10-12.41,17.55-20.49,24.73a11.23,11.23,0,0,1-4.4,2.82C179.5,115.3,177.87,104.22,171.21,103.77Z"/><path class="cls-4" d="M90.73,42.43s9.73,16.24,25.66,12.82S135,48,136.74,49.08,140.27,39,90.73,42.43Z"/><path class="cls-4" d="M90.17,134.9a4.84,4.84,0,0,0-4.76-2.72,12.3,12.3,0,0,0-5.46,1.94c-6.86,3.9-13,9.15-20.3,12.12s-16.61,3.13-22.2-2.44c-.61-.6-.63-2.13.17-1.81,8.9-7.47,11.42-22.43,8.18-33.59-1.45-5-4.16-9.51-6.15-14.32a53.72,53.72,0,0,1,2.65-46c-3.73-1.65-7,2.94-8.56,6.71-9.51,23.57-19.18,47.9-19,73.31.09,9.76,1.91,20.07,8.33,27.43,5.3,6.08,13.11,9.39,20.92,11.41a50.45,50.45,0,0,0,18.82,1.71C73.57,167.27,83,161.16,92,155.21a11.23,11.23,0,0,0,3.86-3.52C99.17,145.88,88.89,141.45,90.17,134.9Z"/><path class="cls-4" d="M48,41.31S61.19,54.9,53.78,69.4,42,85.49,42.56,87.47,31.92,88.29,48,41.31Z"/><polygon class="cls-5" points="162.84 228.39 218 197.91 236.7 272.22 214 274.41 139 243.91 162.84 228.39"/><path class="cls-5" d="M185.32,244.62c3-1-24.58-30.86-68.06-13.68s-43,21.18-42.47,22.68-11,9-3,21,46.91,15.5,55.45,15.5,37-10,42-4.5,16-21.5,16-21.5-37.53-21.5-46.53-20-30.5,1-32.5,1.5"/><path class="cls-6" d="M114.28,107.9a86.07,86.07,0,0,0-14.49,10.72c-7,6.5-13.5,14.5-12,20.5s7.89,21,7.45,24.5,9.05,30.5,11.55,35,6,34,6,34l23-6.5s-5-20-5-22.5.5-10.5.5-10.5"/><path class="cls-7" d="M151.71,201.42c9.13,3.15,51.08-33.3,51.08-33.3s-17.3-43.51-17.47-45-58.07-41-58.07-41l-19.1,17.73c3.56,7.33-2.27,25,0,32.86,3.57,12.58.18,23.94,3.2,36.09a25.3,25.3,0,0,0,1.88,5.64,18.78,18.78,0,0,0,3.83,4.82c5.27,5,11.17,7.1,17.91,9.29,5.66,1.84,6.16,5.22,10.62,9.09,2.07,1.8,5.12,2.66,6.12,5,1.37,3.18-.6,11-.79,14.55-.12,2.22-.21,4.58.87,6.52,1.86,3.36,6.32,4.1,10.16,4.1,17.27,0,34-7.45,47.37-18.36,4.44-3.62,8.83-8.08,9.58-13.76.73-5.48-2.09-10.76-5.05-15.43-3.24-5.11-7.1-10.31-12.77-12.42"/><path class="cls-6" d="M139.29,126.12s6.5,8,8,13.5,1,50,3,55.5,4,21.5-3.5,36-4.5,51-5.5,57.5L156,292.23c3.5-5.5,7.76-5,6.76-13.5s12.07-45.12,9.07-50.12,1.5-23,5-40.5,10.5-52,8-70-24-25.5-31.5-28.5-20-13-20-13l-24,23.84"/><path class="cls-5" d="M247.5,165.41c6.5,2.5,10,34,8.5,45.5s-7.5,58.5-7.5,58.5-17.5,4-19.5,5c0,0-4.5-28-10-38s-16-36.5-16-41.5,7-50,17.5-51.25,18.5.75,25,6.75,21.5,24,20.5,64.5-16.48,46.5-16.48,46.5"/><path class="cls-6" d="M245.79,267.19a1.87,1.87,0,0,1,2.76,1.53q3.82,10.93,7.05,22.06a14.87,14.87,0,0,1,.86,5.6c-.25,2.39-1.6,4.5-3,6.48a150.12,150.12,0,0,1-16,19.43,10.4,10.4,0,0,1-3.91,2.88,10.2,10.2,0,0,1-3.68.32c-5.81-.24-12.14-1.26-16-5.59a3.29,3.29,0,0,1-1-1.91,3.62,3.62,0,0,1,.89-2.19c3.73-5.2,8.69-9.4,12.65-14.43s7-11.42,5.72-17.7c-.81-4.11-4.86-8.86-1.41-12.14C233.54,268.88,242.1,268.22,245.79,267.19Z"/><path class="cls-6" d="M171.8,314.45c1.18,4.49,5.88,6.93,10.11,8.84a3.35,3.35,0,0,0,1.66.42,3.28,3.28,0,0,0,1.91-1.23,61.62,61.62,0,0,0,10.27-14.86c1.49-3,2.78-6.26,5.07-8.75,1.53-1.66,3.44-2.92,5.12-4.44a22,22,0,0,0,4.92-6.5,11.33,11.33,0,0,0,1.26-7.8c-1.21-4.57-6.19-6.88-10.64-8.48-5.57-2-11.35-3.86-17.26-3.6a2.92,2.92,0,0,0-1.75.48c-.77.63-.76,1.77-.77,2.77-.07,5.7-7.06,9.16-8.25,13.69-1.23,4.71,6.28,3.88,6.24,8.62C179.65,301.27,169.65,306.27,171.8,314.45Z"/><path class="cls-5" d="M87.77,40.71a2.14,2.14,0,0,1-.53,2.13C83.9,40,80.38,36.91,79.29,32.57s1.83-9.93,6-9.37c1.22.16,3.09.26,3-1a2.22,2.22,0,0,0-.55-1.08C85,17.3,87,11.35,90.79,8.93s8.67-2.1,13-.95c9.21,2.44,17.3,8.15,24.35,14.78,5.2,4.89,10.51,7.22,10.78,14.91.36,10.14-1.77,22.21-5,31.74-1.11,3.3.57,7.09,1,10.59l-1.54.21c-2.33,1.87-4.38,1.29-7.28.54A15.68,15.68,0,0,1,118.7,76"/><path class="cls-6" d="M128.91,80.79,125.61,61s7.9-7.77.69-10.84-5,7.43-5,7.43-3.75,1.41-4.82.56c-.72-.57,5.22-22.88-2.65-20.81-5.09,1.34-3.91-6.66-7.76-6.07L93.71,33.2A6.76,6.76,0,0,0,88,40.66l1.61,13.8L87,64.68a2,2,0,0,0,2.21,2.53L91.1,67c.73,6.25-2,11.94-.4,18.19a3.78,3.78,0,0,0,.94,1.91c.88.82,2.25.71,3.44.54,6-.87,11.7-1.92,17.68-2.63"/><path class="cls-6" d="M108.31,102.79c.22,1.83,2.86,2.23,4.43,2.31,3.83.2,10.2-3.35,13.93-4.55,1.57-.5,3.31-1.14,4-2.63a5.58,5.58,0,0,0,.39-2.6A29.31,29.31,0,0,0,127,81.11a1.74,1.74,0,0,0-.77-.81,1.85,1.85,0,0,0-1.52.36,39.22,39.22,0,0,1-10.1,4c-2.58.63-11.83.79-9.19,1.73,3.64,1.3,0,5.5.56,1.35C106.44,84.26,106.31,86,108.31,102.79Z"/><line class="cls-6" x1="125.57" y1="79.49" x2="115.74" y2="83.52"/><path class="cls-8" d="M105.39,86.41s17.55-2.64,17.55-4.13-16.07,11.47-15.74,11S105.39,86.41,105.39,86.41Z"/><g class="cls-1"><path class="cls-2" d="M125.09,59a1.36,1.36,0,0,1-.58-.13.91.91,0,0,1-.56-.81h.37a.55.55,0,0,0,.35.48.94.94,0,0,0,.94-.07,2.05,2.05,0,0,0,.54-1.75,2.08,2.08,0,0,0-.73-1.6,1,1,0,0,0-.92,0,.6.6,0,0,0-.37.46l-.37,0a1,1,0,0,1,.58-.75,1.37,1.37,0,0,1,1.28.08,2.43,2.43,0,0,1,.9,1.89,2.31,2.31,0,0,1-.68,2.07A1.23,1.23,0,0,1,125.09,59Z"/></g><g class="cls-1"><rect class="cls-2" x="95.33" y="49.55" width="3.79" height="0.37" transform="translate(-5.68 13.18) rotate(-7.54)"/></g><path class="cls-8" d="M98.81,52.59c.06.19.13-.21-.06-.25a3.59,3.59,0,0,0-4.15,3.85,6,6,0,0,0,6.61-1.93,2,2,0,0,0,.51-1.48,1.64,1.64,0,0,0-1.6-1.21,4.8,4.8,0,0,0-2.07.54"/><path class="cls-9" d="M207.75,210.7,194.37,220c4.61-7,37.47,49.56,34.39,53-.66.73-5.26-26.24-7.51-31.41S207.75,210.7,207.75,210.7Z"/><path class="cls-9" d="M104.92,243.57l39.43-5.72L143,244.47S109.9,245.23,104.92,243.57Z"/><path class="cls-9" d="M250.51,168.9s10.6,23.91,5.69,40c0,0-3.3,26.12-3.11,24.68"/><path class="cls-9" d="M79.06,280.46,134.85,289S113.51,292.68,79.06,280.46Z"/><path class="cls-6" d="M141.29,288.62l-3.67,11-11.27,12.67s-8.94,8.65,0,11.49,20.67-2.16,21-3.82S151,301.57,151,301.57l5-9.33Z"/><path class="cls-8" d="M141.29,288.62,156,292.23l-2.16,4c-.45.85-13.72-4-13.72-4l1.21-3.62"/><path class="cls-8" d="M249.48,271.39s4.91,18.85,4.52,23.18-9.53,20.06-9.53,20.06,12.86-12.65,12-18.25S249.48,271.39,249.48,271.39Z"/><path class="cls-8" d="M173.43,286.73l14.42-21.12-2.53-1.5L171.5,285S172.36,288.22,173.43,286.73Z"/><g class="cls-1"><path class="cls-2" d="M203.3,287.65h0a.42.42,0,0,1-.36-.27.5.5,0,0,1,0-.5.31.31,0,0,1,.33-.09l-.1.36s0,0,.05,0a.18.18,0,0,0,0,.13c.16,0,.3-.1.46-.4l2.1-4a1.29,1.29,0,0,0,.23-.8,1.17,1.17,0,0,0-.5-.62,8.27,8.27,0,0,0-3.6-1.56l.06-.37a8.63,8.63,0,0,1,3.76,1.63,1.49,1.49,0,0,1,.64.85,1.57,1.57,0,0,1-.26,1l-2.1,4C204,287.2,203.73,287.65,203.3,287.65Zm-.06-.69,0,.18h0Z"/></g><g class="cls-1"><path class="cls-2" d="M163,230.93a3.26,3.26,0,0,1-1.57-.39l.18-.33a3.24,3.24,0,0,0,3.1-.1,3.82,3.82,0,0,0,2.08-2.89,4.15,4.15,0,0,0-1-3,5,5,0,0,0-3.16-1.79l-1.2,1.63-.3-.22,1.33-1.8h.11A5.27,5.27,0,0,1,166.1,224a4.51,4.51,0,0,1,1.08,3.3,4.19,4.19,0,0,1-2.28,3.18A4.05,4.05,0,0,1,163,230.93Z"/></g><path class="cls-7" d="M139.73,119.44l2.49,11.93,2.39,11.45s43,.42,43.26-3.58-1.25-25.33-2.55-31.33S152,86.57,151,87.71s-9.47-9.83-9.47-9.83l-13.2,15.37-13.54,11.85,29.61,28.23"/><path class="cls-7" d="M109.32,106.63s-24,19.27-22.37,27.27,3,30.33,3,30.33,19-1.89,21.73-9.23S109.32,106.63,109.32,106.63Z"/><path class="cls-10" d="M147.32,143.3s-.3-5.74,0-6.74-12.47-15.33-12.47-15.33,16.51,10.33,16.47,12.67,0,8.92,0,8.92Z"/><path class="cls-10" d="M157.3,89.86c-1.18-.34,16.29,14.68,21.45,15.25s6.57,2.79,6.57,2.79S178.18,95.95,157.3,89.86Z"/><path class="cls-10" d="M177.53,184.42l9.8-57.89s-11.56,78.27-9.8,82.32-6,9-6,9Z"/><path class="cls-10" d="M114.74,105.11s18.89-16.33,21-17.1,7.29-7.77,7.29-7.77l-3-3.62Z"/><path class="cls-11" d="M39.28,142.83s-24.91-5.79-25.07-7.4,2.12,6.66,2.68,8.37S39.28,142.83,39.28,142.83Z"/><path class="cls-11" d="M189.34,57.73s22.58-12,23.76-10.9-4.44-5.67-6-6.6S189.34,57.73,189.34,57.73Z"/><polygon class="cls-11" points="51.34 168.41 55.66 147.53 59.65 146.24 57.13 168.9 51.34 168.41"/><polygon class="cls-11" points="208.43 91.72 187.9 76.87 188.27 72.61 211.51 86.78 208.43 91.72"/><path class="cls-12" d="M37.61,142a42.88,42.88,0,0,1-8.16-2.2s15.67-15.4,9.83-31.9a70.94,70.94,0,0,1-3.53-31.28s3.58,20.7,8.89,28.49,3,30.76-5.36,34.69"/><path class="cls-12" d="M57.12,168.9l2.52-8.5s.8,3.5,15.3,0S82,161.51,82,161.51,67.06,170.14,57.12,168.9Z"/><path class="cls-12" d="M208.43,91.72s-11.14,6.68-14.06,9.18-9.05,7-9.05,7l.65,5.73S206,97.36,208.43,91.72Z"/><path class="cls-12" d="M138.38,40.2s15.2,8,28.64,11.36a110.66,110.66,0,0,0,24.63,3.26s-16.13,9.22-31.41.9S138.38,40.2,138.38,40.2Z"/><path class="cls-4" d="M191.95,132.27l4.93,9.73,11.56-15.46s-2.89-8-5.44-5.31S191.95,132.27,191.95,132.27Z"/><path class="cls-4" d="M208.43,117.9s3.43,4.17,4.47,3.33,6.07-7.61,6.07-7.61l-4.92-4.32Z"/><path class="cls-4" d="M232.3,56.58a3.13,3.13,0,0,0,3,2.68c1.39.05,2.84-.06,3-.73a57.22,57.22,0,0,0-.29-6.8,3.14,3.14,0,0,0-3.16-2.9h0a3.15,3.15,0,0,0-3.09,3.61Z"/><path class="cls-4" d="M219,105.11s3.47,6.2,4,5.25,5-9,6-11.48-2-6.2-2-6.2a10.25,10.25,0,0,0-2.88,6.2C224,102.4,219,105.11,219,105.11Z"/><path class="cls-4" d="M232,89.86a2.9,2.9,0,0,1-3-2.15l2.44-17.64,3.31-7.32a64.83,64.83,0,0,0,2,6.7c1.74,5.29-2.23,18.07-2,18.26S232,89.86,232,89.86Z"/><path class="cls-4" d="M97.56,181.64l4.59,9.9-19.3-.5s-4.47-7.21-.8-7.56S97.56,181.64,97.56,181.64Z"/><path class="cls-4" d="M76.07,185.69s1.15,5.27-.15,5.58-9.73.06-9.73.06l-.35-6.53Z"/><path class="cls-4" d="M13.14,166.46a3.13,3.13,0,0,1,.27,4c-.82,1.12-1.8,2.19-2.4,1.86a57.22,57.22,0,0,1-5.16-4.43,3.14,3.14,0,0,1-.32-4.28h0a3.15,3.15,0,0,1,4.75-.19Z"/><path class="cls-4" d="M59.5,186.05s2.72,6.57,1.66,6.37S51,190.79,48.43,190s-3.63-5.42-3.63-5.42a10.25,10.25,0,0,1,6.65,1.58C54.29,188.28,59.5,186.05,59.5,186.05Z"/><path class="cls-4" d="M39.49,186.79a2.9,2.9,0,0,0,.16-3.68l-15.36-9-7.79-1.93a64.83,64.83,0,0,1,4,5.71c3.08,4.64,15.57,9.44,15.57,9.74S39.49,186.79,39.49,186.79Z"/><path class="cls-4" d="M101.52,208.1l.72-10.88-17.83,7.41s-1.57,8.33,2,7.34S101.52,208.1,101.52,208.1Z"/><path class="cls-4" d="M80,212.06s-.83-5.33-2.15-5.15-9.1,3.45-9.1,3.45l2,6.22Z"/><path class="cls-4" d="M28.22,252.64A3.13,3.13,0,0,0,27,248.82c-1.17-.75-2.47-1.39-2.91-.87a57.22,57.22,0,0,0-3.22,6,3.14,3.14,0,0,0,1.24,4.11h0a3.15,3.15,0,0,0,4.5-1.53Z"/><path class="cls-4" d="M64.42,217.69s.18-7.1-.74-6.54-8.91,5.18-11,6.81-1.43,6.36-1.43,6.36a10.25,10.25,0,0,0,5.64-3.87C58.76,217.48,64.42,217.69,64.42,217.69Z"/><path class="cls-4" d="M45.48,224.2A2.9,2.9,0,0,1,47,227.57L35.87,241.5l-6.58,4.61a64.83,64.83,0,0,0,1.7-6.77c1.2-5.44,11.13-14.41,11-14.69S45.48,224.2,45.48,224.2Z"/></svg>