<svg id="Layer_1" data-name="Layer 1" xmlns="http://www.w3.org/2000/svg" viewBox="0 0 285.65 340.44"><defs><style>.cls-1{fill:#fafafa;}.cls-2{fill:#ffdfd9;}.cls-3{fill:#90665e;}.cls-4{fill:#ffcbbf;}.cls-5{opacity:0.32;}.cls-6{fill:#515151;}.cls-7{opacity:0.27;}.cls-8{fill:none;}.cls-9{fill:#fa9295;}.cls-10{fill:#876aaa;}.cls-11{opacity:0.29;}.cls-12{fill:#fff;}.cls-13{fill:#f7727c;}.cls-14{fill:#775aa0;}.cls-15{opacity:0.39;}</style></defs><title>Sign</title><path class="cls-1" d="M224.51,247.55c9.17-25.37-2.36-54.17,4.39-80.28,2.85-11,8.81-20.94,14.7-30.69L277.76,80c2.69-4.45,5.42-9,6.46-14.11s.07-10.91-3.76-14.44c-4.15-3.82-10.51-4-16-2.88-13.9,2.92-25.12,12.74-36.94,20.61s-26.7,14.15-39.95,9c-3.27-1.26-6.31-3.19-9.75-3.88-9.45-1.9-18.06,6-23,14.28-7.89,13.23-11.11,28.75-18.18,42.44S116.34,157.36,101,156.19c-9.61-.73-18.08-6.77-24.58-13.88-5.07-5.54-9.44-12-15.93-15.77-11.94-7-27.87-2.56-38.19,6.63-14.12,12.57-20,32.64-18.51,51.48s9.52,36.62,19.53,52.65c2.17,3.48,6.15,4.41,10.2,3.81,10.89-1.61,21.93-1.82,32.93-2,17.67-.34,35.37-.68,53,.43,20.37,1.29,40.58,4.5,60.91,6.25A430.63,430.63,0,0,0,224.51,247.55Z"/><path class="cls-2" d="M121.39,108.15a1,1,0,0,1,.33,1.08,103.93,103.93,0,0,1-2.58-19,3.11,3.11,0,0,0-.67-2.2c5.71.8,12.09,1.15,17.64,2.7a1.22,1.22,0,0,1,1.14,1.16l3.39,16.59a1.92,1.92,0,0,1,0,1.26c-.28.54-1,.68-1.59.75l-4.72.58a27.58,27.58,0,0,1-7.54.23C124.26,110.89,122.8,110.24,121.39,108.15Z"/><path class="cls-3" d="M97.47,58.6A9.05,9.05,0,0,1,107,55.84a12.06,12.06,0,0,1,7.4,7c2.93,7,.1,15.74,4.06,22.24,1.28,2.1,3.3,4.36,2.44,6.67a28.58,28.58,0,0,1-18.24,2.12,11.67,11.67,0,0,1-5.42-2.44c-2.4-2.16-3.11-5.69-2.78-8.89,1-9.58,6.87-15.47-1-22.65A35.93,35.93,0,0,1,81.63,37.66,32.94,32.94,0,0,1,82.76,22.1a20.6,20.6,0,0,1,9.88-11.75c4.7-2.33,10.68-2.27,15,.72s6.46,9,4.44,13.87c-1.28,3.06-4.3,5.49-7.61,5.45S98,27.3,98.37,24c.55,1.83,3.32,2.2,4.71.89a4.81,4.81,0,0,0,.71-5.33,7.31,7.31,0,0,0-10.14-3.16c-2.73,1.7-4,5.17-3.73,8.38a18.63,18.63,0,0,0,3.6,8.83,27.79,27.79,0,0,0,10,9.28c3.34,1.71,12.55,3,13.14,7.3.23,1.68-1.46,4.4-1.87,6.07-.58,2.36-.65,5.1-2,7.19s-3.6,1.92-6.21,1.72a23.68,23.68,0,0,1-9.37-2.81"/><path class="cls-3" d="M161,63.71c1.71,1.89,3.85,1.35,6.4.75A24.92,24.92,0,0,0,181.43,55c4.53-6.12,6.41-13.91,6.33-21.52a32.94,32.94,0,0,0-3.49-15.2A20.6,20.6,0,0,0,172.7,8.14c-5-1.58-10.9-.61-14.71,3s-5,9.91-2.26,14.39c1.73,2.82,5.09,4.77,8.35,4.22s5.92-4,5-7.23c-.27,1.89-2.94,2.68-4.51,1.6A4.81,4.81,0,0,1,163.1,19a7.31,7.31,0,0,1,9.54-4.67c3,1.27,4.72,4.5,5,7.71a18.63,18.63,0,0,1-2.2,9.27A27.79,27.79,0,0,1,167,42c-3,2.2-11.95,4.84-11.87,9.22,0,1.7,2.12,4.12,2.78,5.71C158.8,59.16,159.28,61.85,161,63.71Z"/><path class="cls-4" d="M119.94,100.11q-.13-.66-.28-1.31c.81.73,1.49.43,2.52.29l3.75-.51,8.91-1.21c1.24-.17,1.88-1.6,3.12-1.76l.81,3.73c-3.72.77-6.84,1.79-14.9,4.14a6.38,6.38,0,0,1-1.7.15,12.16,12.16,0,0,1-1.69-.36Q120.26,101.67,119.94,100.11Z"/><path class="cls-2" d="M148.88,89.25s-22.2,16.28-28.86,9.62l-1.11-1.14a29.36,29.36,0,0,1-8-21.64l1-20.89s1.48-11.1,7.4-10.36c0,0,4.44-.74,11.84,17.76C131.11,62.61,133.33,66.31,148.88,89.25Z"/><path class="cls-4" d="M114.92,45.47s9.17,14.9,14.9,17.19S139.47,81,139.47,81s7.54-13.75,1.81-21.77a150.48,150.48,0,0,0-13.75-16Z"/><path class="cls-3" d="M140.42,73.93c-.5,4.76-2.89,9.62-2.36,14.43.36,3.23,1.22,7.59,4.69,8.82s8.72-.36,12.36-2c.51-.22,1-.45,1.43-.66,4.55-2.22,8.56-5.39,12.54-8.54A13.2,13.2,0,0,0,173,81.84c2.82-5.68-2.45-19.22-4.92-24.57-4.34-9.42-8.81-20.41-20.28-23,0,0-26.65-5.91-34.79,12.58,0-1.6,6.67,1.2,7,1.43a16.06,16.06,0,0,1,5.37,6.78c1.22,2.84,4,4.91,6.13,7.09a18.82,18.82,0,0,0,4.15,3.45,16.15,16.15,0,0,1,3,1.66c6.15,5.32-5.63,14.53,4.81,20.37,4.78,2.67,10.68,2.05,16,.93"/><g class="cls-5"><path class="cls-6" d="M117.57,68.3c-3-1.37-4.75,0-4.77,0l-.18-.22c.08-.06,1.89-1.47,5.07,0Z"/></g><g class="cls-5"><path class="cls-6" d="M133.09,68.93c-3-1.37-4.75,0-4.77,0l-.18-.22c.08-.06,1.89-1.47,5.07,0Z"/></g><path class="cls-4" d="M116.36,70.57a2.71,2.71,0,1,0-1.49,4.9,5.36,5.36,0,0,0,2.32-.86,3.09,3.09,0,0,0,1.57-1.48,2,2,0,0,0-.93-2.22,4,4,0,0,0-2.52-.44"/><path class="cls-4" d="M131.6,70.57a2.71,2.71,0,1,0-1.49,4.9,5.36,5.36,0,0,0,2.32-.86A3.09,3.09,0,0,0,134,73.13a2,2,0,0,0-.93-2.22,4,4,0,0,0-2.52-.44"/><g class="cls-7"><path class="cls-6" d="M195.67,248.06q-2.78,0-5.56-.16c-5.09-.31-10.24-1.07-15.21-1.81l-2.62-.39c-53.83-7.85-108.87-7-162.1-6.12v-.23c53.24-.85,108.29-1.73,162.13,6.13l2.62.39c5,.74,10.11,1.5,15.19,1.81,14,.84,28.13-1.74,41.78-4.24l0,.23C220.09,245.82,207.87,248.06,195.67,248.06Z"/></g><path class="cls-8" d="M87,113.55a3.65,3.65,0,0,0,1.72-3.81"/><path class="cls-2" d="M136,109.74s-.78-11.8,28.09,5.53c0,0,9.9,1.51,8.49,36-1.42,34.8,5.8,94.73,1.54,92.27a145.81,145.81,0,0,0,18.28,10.19c7.92,3.4,4,21.51,0,20.94s-4.53-7.36-8.49-11.32-1.7-4.53,0,0,2.44,8.93-2.08,3.84S167.08,255.63,168.21,250s-4.28-18.14-4.85-19.15"/><path class="cls-9" d="M139.12,104a36.84,36.84,0,0,1-8.75,6.2,6.81,6.81,0,0,1-9.67-6.2h0s-17.55,12.17-17.55,16.15-4,23.23,0,31.72S110,186.41,110,186.41L101.39,209l55.3,8.53s-2.6-23.83-4.3-27.79,6.79-42.42,7.92-44.7-5-26.23-3.63-29.81S139.12,104,139.12,104Z"/><path class="cls-10" d="M156.35,217.57,101,209s9.12,7.27,8.55,13.25c0,0,38-4.42,46.75,12.67s3.77,17.65,3.77,17.65S162.71,239.65,156.35,217.57Z"/><path class="cls-10" d="M134.15,266.73c7.35.14,11.81,7.75,16.8,13.14,7.48,8.09,18.67,12.27,29.69,12.28a38.43,38.43,0,0,0,21.69-6.23c6.3-4.31,11-11.11,12.11-18.67,1.24-8.79-2.39-17.54-6.85-25.22a114.51,114.51,0,0,0-10.8-15.51c14.38,1.1,26.84,14.17,27.25,28.59a28.1,28.1,0,0,0,.36-24.66c6.14,2.53,10.22,8.47,12.86,14.57a57,57,0,0,1-22,70.92c-14.53,9.12-32.26,11.2-49.33,12.9-14.49,1.44-29.09,2.76-43.59,1.44s-29-5.44-40.83-14C72.21,309.56,65,300.4,57.93,291.36c-10.31-13.16-27.1-38.49-9.3-52.52,15.91-12.53,41.86-14.88,61-17.63,0,0,29.59-11.49,48.7,4,1.64.13,21.22,37.72-18.46,40.9-35.31,2.84-92.85-10-97-14.15"/><path class="cls-2" d="M107.47,129.76s-2.83-17.07-9.62-15-5.66,26.93-5.66,26.93l-.07,50.17a7.79,7.79,0,0,0,2.74,5.95c6.28,5.34,21.38,18.1,24.5,19.81a24.31,24.31,0,0,1,3.62,2.68,64.59,64.59,0,0,1,13.08,15.52l3.42,5.6s-4.34,18.77-.37,18.77,12,17.36,16.48,4.91-2.83-19.49-3.4-21.07-6.79-14.66-9.62-18.31c-2.35-3-18.34-18.35-25.33-28a45.91,45.91,0,0,0-10.33-10.37h0l.57-14.51v-43"/><path class="cls-10" d="M117.63,266.53,113,226.08c-1.29-3.78-13.26-30.38-32-31.79S63.77,209,63.77,209c-1.33,4.56.2,12,4,21.78"/><path class="cls-9" d="M139.12,104l24.64,7.66a62.58,62.58,0,0,1,13,32.63s-12.29,3.12-16.3,4.17"/><path class="cls-9" d="M120.69,104l-12,2.56A27,27,0,0,0,87.69,128.1a11.35,11.35,0,0,0-.15,4.2c1.23,5.21,19.57,2.6,19.57,2.6Z"/><line class="cls-4" x1="89.35" y1="301.86" x2="91.44" y2="309.06"/><g class="cls-7"><path class="cls-6" d="M154.39,215.75a4.17,4.17,0,0,1-1.16-.22,36.41,36.41,0,0,0-10-1.56v-.26a36.71,36.71,0,0,1,10.05,1.57,2,2,0,0,0,1.78,0,.89.89,0,0,0,.32-.52.39.39,0,0,0,0-.1.19.19,0,0,1-.2.07.35.35,0,0,1-.19-.36.23.23,0,0,1,.22-.21.37.37,0,0,1,.3.13.65.65,0,0,1,.13.53,1.15,1.15,0,0,1-.42.68A1.35,1.35,0,0,1,154.39,215.75Zm.88-1.28h0a.07.07,0,0,0,0,0l.19.1a.32.32,0,0,0-.06-.14.09.09,0,0,0-.08,0s0,.06,0,.07Z"/></g><g class="cls-7"><path class="cls-6" d="M158.52,185l-.26-.05c.36-1.73,2.34-2.58,4-2.51a12.59,12.59,0,0,1,3.17.69c.55.17,1.11.34,1.67.47l-.06.25c-.57-.13-1.14-.31-1.69-.48a12.42,12.42,0,0,0-3.1-.68C160.71,182.67,158.85,183.45,158.52,185Z"/></g><g class="cls-7"><path class="cls-6" d="M96.9,196.93a.92.92,0,0,1-.56-.18,3.77,3.77,0,0,1,0-5.55l.17.2a3.51,3.51,0,0,0,0,5.15.64.64,0,0,0,.65.06s0,0,0-.09l.23-.12a.31.31,0,0,1-.07.41A.67.67,0,0,1,96.9,196.93Z"/></g><g class="cls-11"><path class="cls-12" d="M82.26,251.94c-4-6.21-8.17-12.63-11-19.6C68,224.47,66.92,217,68,210.29c.2-1.21.85-2.57,2-2.44l0,.26c-1.07-.12-1.59,1.34-1.74,2.23-1.11,6.71,0,14.08,3.17,21.91,2.85,7,7,13.36,11,19.56Z"/></g><g class="cls-11"><path class="cls-12" d="M51.45,263.47a.57.57,0,0,1-.45-.23A31.48,31.48,0,0,1,46.93,255a10.63,10.63,0,0,1,1.14-8.92l.21.15a10.37,10.37,0,0,0-1.1,8.7,31.25,31.25,0,0,0,4,8.16.31.31,0,0,0,.25.11.07.07,0,0,0,0,.07l.22-.13a.2.2,0,0,1-.06.29A.3.3,0,0,1,51.45,263.47Z"/></g><g class="cls-11"><path class="cls-12" d="M160.18,250.33l-.23-.11a21,21,0,0,0,0-17.93c-.23-.48-.78-1.23-1.35-1l-.1-.24c.7-.3,1.35.42,1.68,1.12A21.29,21.29,0,0,1,160.18,250.33Z"/></g><g class="cls-7"><path class="cls-6" d="M161.4,114.29a13.38,13.38,0,0,0-7.86-2.33v-.26h.36a13.56,13.56,0,0,1,7.66,2.38Z"/></g><polygon class="cls-4" points="107.05 139.1 92.11 137.72 92.14 135.13 107.11 134.91 107.05 139.1"/><path class="cls-4" d="M172.7,145.31l-13.06,2-1.24,5s14.26-3.68,14.25-3.51S172.7,145.31,172.7,145.31Z"/><path class="cls-4" d="M141.49,224.41s-31-22.24-34.59-37.12c0,0,9.84,8.56,11.71,12.2S141.49,224.41,141.49,224.41Z"/><path class="cls-13" d="M130,138.24c-.17-.76,1.07,20.15-9.1,20.32C120.88,158.56,135,161.33,130,138.24Z"/><path class="cls-13" d="M156.42,138.62c-.17-.76,1.07,20.15-9.1,20.32C147.33,158.94,161.46,161.7,156.42,138.62Z"/><path class="cls-13" d="M121.05,104s-20.36,4.86-29.2,13.89C91.85,117.87,94.7,107.08,121.05,104Z"/><g class="cls-11"><path class="cls-12" d="M111.62,251.55a73.85,73.85,0,0,1-.89-12.14c-.12-6.45-.24-13.12-3.17-18.9-1.82-3.59-4.6-6.6-7.29-9.5a5.81,5.81,0,0,0-3.2-2.18l0-.26a6,6,0,0,1,3.36,2.26c2.7,2.92,5.5,5.93,7.33,9.56,3,5.83,3.08,12.53,3.2,19a73.67,73.67,0,0,0,.89,12.1Z"/></g><polygon class="cls-14" points="75.63 254.26 66.55 229.39 59.87 232.97 75.63 254.26"/><path class="cls-14" d="M104,208.69s4.17,11.88,11.41,33.24c0,0-2.21-30.58-5.7-31.21A17.23,17.23,0,0,1,104,208.69Z"/><g class="cls-5"><path class="cls-12" d="M78.33,300.32a7.35,7.35,0,0,1-5-4.52A20,20,0,0,1,72,289c-.11-1.73,0-3.65,1.26-4.7a4.58,4.58,0,0,1,2.61-.82,12.87,12.87,0,0,1,7.88,2.21,9.13,9.13,0,0,1-1-3.69,6.53,6.53,0,0,1,.93-4.25c1.22-1.74,3.76-2.52,6.77-2.08a16.66,16.66,0,0,1,8.3,3.76l.06.05,0,.08a1.53,1.53,0,0,1-1.2,1.08l0-.26a1.29,1.29,0,0,0,1-.81,16.41,16.41,0,0,0-8.11-3.65c-2.92-.43-5.36.31-6.52,2a6.28,6.28,0,0,0-.88,4.09,8.46,8.46,0,0,0,1.2,4.07,12.15,12.15,0,0,1,1.88,1.74l.43.49L86,288a4.94,4.94,0,0,1-1.91-1.76,12.62,12.62,0,0,0-8.18-2.49,4.35,4.35,0,0,0-2.46.76c-1.21,1-1.27,2.81-1.17,4.48a19.84,19.84,0,0,0,1.24,6.71,7.1,7.1,0,0,0,4.84,4.37Z"/></g><g class="cls-5"><path class="cls-12" d="M100.32,274.83a20.4,20.4,0,0,1-.71-6.58,2.74,2.74,0,0,1,.49-1.66,2.59,2.59,0,0,1,1.7-.74,9.17,9.17,0,0,1,7.84,2.95c-.93-3.11-1.64-7.18,1-9.42,1.59-1.33,3.87-1.43,5.66-1.35a14.38,14.38,0,0,1,5.88,1.25,6.55,6.55,0,0,1,3.69,4.6l-.26,0a6.29,6.29,0,0,0-3.55-4.41,14.14,14.14,0,0,0-5.78-1.23c-1.75-.06-4,0-5.48,1.29-2.74,2.3-1.75,6.67-.76,9.77l.23.71-.45-.59a8.9,8.9,0,0,0-8-3.35,2.36,2.36,0,0,0-1.54.65,2.53,2.53,0,0,0-.43,1.5,20.13,20.13,0,0,0,.71,6.5Z"/></g><g class="cls-5"><path class="cls-12" d="M94.9,309.54c-2.32-1.19-2.33-4.39-2.14-6.69a6.52,6.52,0,0,1,.87-3.25,4.21,4.21,0,0,1,4.56-1.35,7.78,7.78,0,0,1,3.28,2,12.63,12.63,0,0,1-1.46-5.56,3.69,3.69,0,0,1,.43-2.09,3.47,3.47,0,0,1,2.08-1.33,10.13,10.13,0,0,1,10.29,3.08l-.19.18-1-.89,0-.05a9.91,9.91,0,0,0-9.1-2.06,3.24,3.24,0,0,0-1.93,1.22,3.48,3.48,0,0,0-.39,1.94,12.38,12.38,0,0,0,2,6.37l-.21.16a8.5,8.5,0,0,0-3.91-2.74,3.94,3.94,0,0,0-4.28,1.24,6.23,6.23,0,0,0-.82,3.12c-.18,2.23-.18,5.32,2,6.44Z"/></g><g class="cls-5"><path class="cls-12" d="M118.5,281.6a2.46,2.46,0,0,1-.94-2.08,3.26,3.26,0,0,1,1.34-2.58,4.85,4.85,0,0,1,5.08.21,13.31,13.31,0,0,1,3.48,3.58,7.34,7.34,0,0,0-.11-3.15c-.24-1.34-.48-2.73.21-3.9,1-1.77,3.66-1.92,5.59-1a8.5,8.5,0,0,1,4.87,7.94h-.26a8.23,8.23,0,0,0-4.72-7.69c-1.83-.83-4.29-.71-5.26.94-.65,1.09-.42,2.37-.18,3.73a6.89,6.89,0,0,1,0,3.52l-.08.23-.14-.2a13.76,13.76,0,0,0-3.56-3.71,4.58,4.58,0,0,0-4.8-.22,3,3,0,0,0-1.23,2.37,2.21,2.21,0,0,0,.83,1.87Z"/></g><g class="cls-5"><path class="cls-12" d="M109.64,317.81a2.88,2.88,0,0,1-2.2-1.22,7.45,7.45,0,0,1-1.05-3,6,6,0,0,1-.12-2.69c.47-1.78,2.41-2.71,4.1-2.71h0a8.09,8.09,0,0,1,2.7.54,4.15,4.15,0,0,1-.61-4.2,5.1,5.1,0,0,1,6-2.35,11.09,11.09,0,0,1,4.14,2.81l-.18.19a10.88,10.88,0,0,0-4-2.75,4.83,4.83,0,0,0-5.71,2.21,3.75,3.75,0,0,0,.21,3.38,3.63,3.63,0,0,0,.73.92c.57.23,1.13.5,1.65.75l.68.32-.75-.08a3.08,3.08,0,0,1-1.72-.77,8.49,8.49,0,0,0-3.13-.72h0a3.87,3.87,0,0,0-3.84,2.52,5.82,5.82,0,0,0,.13,2.57,7.24,7.24,0,0,0,1,2.85,2.38,2.38,0,0,0,2.55,1l.09.25A1.93,1.93,0,0,1,109.64,317.81Z"/></g><g class="cls-5"><path class="cls-12" d="M132.54,296.71a16,16,0,0,1-1.07-8.12v-.1h.1a4.72,4.72,0,0,1,4.44,2.36c-.29-2.37-.06-5,2-5.88,1.2-.53,2.71-.29,4.46.74a7.1,7.1,0,0,1,3.33,3.47,3.61,3.61,0,0,1-1.34,4.39l-.12-.23a3.35,3.35,0,0,0,1.22-4.07,6.85,6.85,0,0,0-3.22-3.34c-1.68-1-3.1-1.22-4.22-.72-2.27,1-2.18,4.2-1.7,6.72l-.25.06a4.44,4.44,0,0,0-4.49-3.23,15.74,15.74,0,0,0,1.07,7.88Z"/></g><g class="cls-15"><path class="cls-12" d="M220.16,267.55l-.26,0A50.26,50.26,0,0,0,217.84,250c-1.64-5.44-4-9.12-7.12-11.28l.15-.21c3.21,2.19,5.57,5.92,7.23,11.42A50.54,50.54,0,0,1,220.16,267.55Z"/></g><g class="cls-15"><path class="cls-12" d="M236.74,272.82l-.26,0a56.74,56.74,0,0,0-4.36-29.33,40.68,40.68,0,0,1-3.87,19.08l-.23-.11a40.41,40.41,0,0,0,3.81-19.65l0-.7.29.64A57,57,0,0,1,236.74,272.82Z"/></g></svg>