<svg id="Layer_1" data-name="Layer 1" xmlns="http://www.w3.org/2000/svg" viewBox="0 0 333.65 418.65"><defs><style>.cls-1{opacity:0.27;}.cls-2{fill:#515151;}.cls-3{fill:#fafafa;}.cls-4{fill:none;}.cls-5{fill:#f99512;}.cls-6{fill:#ffe544;}.cls-7{fill:#ffbd5c;}.cls-8{fill:#ffdfd9;}.cls-9{fill:#ffcbbf;}.cls-10{opacity:0.32;}.cls-11{fill:#96c65d;}.cls-12{fill:#f49103;}.cls-13{fill:#fa9295;}.cls-14{fill:#90665e;}.cls-15{opacity:0.29;}.cls-16{fill:#fff;}.cls-17{fill:#f7727c;}</style></defs><title>Sign</title><g class="cls-1"><path class="cls-2" d="M65.32,397.67c-2.22-.36-3.5-2.89-3.29-5s1.57-4.13,2.88-5.73c11.33-13.87,29.32-20.4,45.29-25.42,11.39-3.59,24.67-7.46,38.1-8,14.36-.58,27.53,2.93,37.06,9.92a13,13,0,0,1,4.14,4.38c1.39,2.77,1,6.56-1.07,9.66-1.91,2.9-4.87,5-7.52,6.61A79.43,79.43,0,0,1,163,392.29l-.08-.24a79.18,79.18,0,0,0,17.83-8.21c2.63-1.63,5.57-3.68,7.44-6.54,2-3,2.4-6.71,1.05-9.41a12.79,12.79,0,0,0-4.07-4.29c-9.48-7-22.57-10.46-36.9-9.87-13.4.55-26.66,4.42-38,8-15.94,5-33.88,11.53-45.17,25.34-1.28,1.57-2.62,3.46-2.83,5.59s1,4.42,3.09,4.76Z"/></g><path class="cls-3" d="M255.83,245.07c5.9-15.68,19-26.52,32.67-36.2s28.51-18,40.48-29.69c3.3-3.24,6.46-8.5,3.51-12.06-1.36-1.64-3.6-2.22-5.7-2.6-17.77-3.24-36.27.55-54-2.8-3.2-.6-6.52-1.53-8.8-3.85-4.31-4.38-3.16-11.66-.91-17.38,11.55-29.37,42.12-46.65,59.05-73.29,2.1-3.3,4-7.37,2.54-11-2.19-5.3-9.61-5.47-15.19-4.18-14.1,3.25-27.14,10-39.69,17.17-36,20.64-69.41,45.56-105.07,66.8-9.85,5.87-19.94,11.49-30.78,15.23-3.63,1.25-8.09,2.14-10.93-.44a9.3,9.3,0,0,1-2.5-5.19c-2.14-10.67,3-21.67,1.6-32.46-.26-1.94-.81-4-2.28-5.29-1.72-1.52-4.26-1.63-6.55-1.46-7.11.55-13.91,3.1-20.43,6-26,11.52-49.69,29.36-64.85,53.39s-21,54.57-12.36,81.62l1.49,4.44s23.52,2.61,25.22,2.72,18.52,1.71,31.26-.87,53-4.88,53-4.88Z"/><g class="cls-1"><path class="cls-2" d="M51.52,254.27c-15,0-30.08-2.15-44.69-4.23l0-.25c16.82,2.4,34.21,4.88,51.49,4.07,6.26-.29,12.59-1,18.71-1.73l3.24-.37c66.33-7.54,134.15-6.7,199.75-5.88v.25c-65.58-.82-133.4-1.66-199.72,5.88l-3.23.37c-6.13.71-12.46,1.44-18.73,1.74Q54.94,254.28,51.52,254.27Z"/></g><path class="cls-4" d="M156.94,113.31a3.51,3.51,0,0,1-1.65-3.66"/><path class="cls-5" d="M111.89,23.94s22-1.26,27.65-14c0,0,2.72,8.61-13.82,17.81"/><path class="cls-5" d="M165,79.51c.07,2-.2,4.33-1.82,5.55A93.25,93.25,0,0,0,160,70.71a32.64,32.64,0,0,0-7.37-12.49C161.69,50.31,164.88,74.74,165,79.51Z"/><path class="cls-5" d="M156.5,103.2c-.9,1.82-2.22,3.73-4.22,4a93.25,93.25,0,0,0,3.93-14.16,32.64,32.64,0,0,0-.61-14.48C167.32,75.87,158.61,98.92,156.5,103.2Z"/><path class="cls-6" d="M104.49,103.69c-.17-.14.23-.34.33-.15s-.06.42-.21.57a14.47,14.47,0,0,1-2.06,1.8,13.54,13.54,0,0,1-3,1.63,13.08,13.08,0,0,1-15-4.59,14.46,14.46,0,0,0-4.19,5.16,13.82,13.82,0,0,1-1-18.39c-1.82-1-4.25-.21-5.68,1.33A14.15,14.15,0,0,0,71,96.68a14.34,14.34,0,0,1,1.9-17.34C65.65,68,64.51,51.59,70.29,39.44a21.71,21.71,0,0,0,6.44,12.71c1.88-2.62,2.34-6,3.35-9A32.17,32.17,0,0,1,90.16,29a45,45,0,0,1,16.39-8.8c4.15-1.21,8.46-1.82,12.59-3.08a41.5,41.5,0,0,0,15.78-9c-1.18,7.8-7.75,13.49-13.88,18.44,5.41.57,10.88,0,16.31.4s11.07,1.81,14.95,5.62A17.08,17.08,0,0,0,142.7,34c1.62,0,3,1.06,4.26,2.11l8.49,7.16c6.61,5.58,13.77,12.23,14,20.88L161.24,63a16.6,16.6,0,0,1,4.58,12.95l-2.46,0A73.15,73.15,0,0,0,164,93.44a12.35,12.35,0,0,0-5.35-1.88C156.36,102,146,110.18,135.28,109.9a11.15,11.15,0,0,1-4.39-.86c-1.79-.82-3.16-2.33-4.77-3.47C119.75,101,112.09,101.82,104.49,103.69Z"/><path class="cls-7" d="M76.52,85.34C71,87.72,71,96.68,71,96.68s1.94-9.56,8.38-6.95"/><path class="cls-6" d="M75.77,243.13A25,25,0,0,1,53.84,229.2c-4.62-9.49-3.3-21.85,3.35-31.48,5.63-8.15,15-14.52,26.28-17.93,10.57-3.18,21.77-3.62,31.33-3.63,18,0,33.71,1.54,48.07,4.76,2.61.59,5.28,1.25,7.86,1.88,12.81,3.16,26.06,6.43,38.19,2.46,6.22-2,11.06-5.89,13.27-10.58,2.48-5.26,1.27-11.8-2.75-14.89a2,2,0,0,1,2.44-3.17c5.55,4.26,7.24,12.76,3.93,19.77-2.68,5.68-8.38,10.3-15.65,12.67-13.22,4.32-27,.92-40.39-2.38-2.56-.63-5.21-1.29-7.78-1.86-14-3.14-29.3-4.66-46.85-4.66h-.33c-9.27,0-20.11.43-30.19,3.46-10.45,3.15-19,9-24.14,16.37-5.85,8.47-7,19.25-3,27.46,4.24,8.71,15,13.69,23.42,10.87a2,2,0,1,1,1.27,3.79A20.06,20.06,0,0,1,75.77,243.13Z"/><path class="cls-8" d="M124.23,104.13l-3.39-12.81-10.95,3c-1.9,4.94-4.19,10.41-4.08,15.71.08,3.91.87,8.11,3.68,10.83a10.39,10.39,0,0,0,12.06,1.27,12.72,12.72,0,0,0,6.08-10.84C127.66,108.06,127.47,104.13,124.23,104.13Z"/><path class="cls-9" d="M108.41,98.22c1.14.83,4.05,3.43,13.84-1.6l.87,3.31s-8.86,4.45-16.22,2.81Z"/><path class="cls-8" d="M109.9,109.65s.75-11.33-27,5.31c0,0-9.51,1.45-8.15,34.58,1.37,33.41-5.57,91-1.47,88.61a140,140,0,0,1-17.55,9.78c-7.61,3.26-3.81,20.66,0,20.11s4.35-7.07,8.15-10.87,1.63-4.35,0,0-2.35,8.58,2,3.68,14.14-11.11,13-16.55,4.11-17.42,4.65-18.38"/><g class="cls-10"><path class="cls-2" d="M109.36,62.81a81.07,81.07,0,0,1-16.7-1.74l.06-.27c.3.07,29.82,6.86,45.85-7.23l.18.21c-8.44,7.42-20.52,9-29.18,9Z"/></g><path class="cls-11" d="M125.77,60.14a8.27,8.27,0,0,1,4.51-4.7,5,5,0,0,1-1.53,3.5,14.74,14.74,0,0,1-3.18,2.29A8.29,8.29,0,0,0,129,60.15a4,4,0,0,1,3.48-.22c0,1.5-1.52,2.65-3,2.71a8.61,8.61,0,0,1-4.24-1.33"/><path class="cls-11" d="M113,61.47a8.27,8.27,0,0,1,5.83-2.91,5,5,0,0,1-2.62,2.78,14.74,14.74,0,0,1-3.76,1.09,8.29,8.29,0,0,0,3.58.13,4,4,0,0,1,3.35,1c-.46,1.43-2.32,2-3.75,1.54a8.61,8.61,0,0,1-3.54-2.68"/><path class="cls-12" d="M124.11,96.85a12.72,12.72,0,0,1-.23-9.48c2.4-6.3,9.23-9.49,15.39-12.23s12.9-6.4,14.63-12.91c.84,6.05,1.66,12.4-.46,18.14a21.78,21.78,0,0,1-12.74,12.37,30.8,30.8,0,0,1-18,.82l-1.15-3"/><path class="cls-11" d="M100.24,61a8.27,8.27,0,0,1,5.24-3.87,5,5,0,0,1-2.1,3.19,14.74,14.74,0,0,1-3.52,1.72,8.29,8.29,0,0,0,3.55-.49,4,4,0,0,1,3.46.37c-.21,1.48-1.94,2.35-3.43,2.16a8.61,8.61,0,0,1-4-2"/><path class="cls-6" d="M104.7,46.76c-4.25.91-7.66,4.5-9.73,8.13-2.46,4.33-2.81,9-3.62,13.85A103.84,103.84,0,0,0,89.9,86.84c0,2.39.15,4.9,1.38,6.95a9.39,9.39,0,0,0,6.85,4.11,21.36,21.36,0,0,0,8.17-.82"/><path class="cls-8" d="M134.62,90.15s-21.32,15.64-27.72,9.24l-1.06-1.09a28.2,28.2,0,0,1-7.71-20.78l1-20.06s1.42-10.66,7.11-10c0,0,4.26-.71,11.37,17.06C117.56,64.56,119.7,68.12,134.62,90.15Z"/><path class="cls-9" d="M102,48.11s8.8,14.31,14.31,16.51,9.26,17.61,9.26,17.61,7.24-13.21,1.74-20.91a144.51,144.51,0,0,0-13.21-15.41Z"/><path class="cls-6" d="M140.61,95.88c.49-.21.95-.43,1.37-.64,4.37-2.13,8.22-5.18,12-8.2a12.68,12.68,0,0,0,3.77-4c2.7-5.46-2.35-18.45-4.72-23.59-4.17-9-8.46-19.6-19.47-22,0,0-25.59-5.68-33.4,12.08,0-1.54,6.41,1.15,6.72,1.38a15.42,15.42,0,0,1,5.16,6.51c1.17,2.73,3.82,4.72,5.89,6.81a18.07,18.07,0,0,0,4,3.32,15.5,15.5,0,0,1,2.84,1.59c1.64,1.41,1.92,3.84,1.74,6-.39,4.69-2.82,9.47-2.3,14.22.34,3.1,1.17,7.29,4.5,8.47S137.11,97.42,140.61,95.88Z"/><g class="cls-10"><path class="cls-2" d="M104.55,70c-2.89-1.32-4.56,0-4.58,0l-.17-.21c.07-.06,1.82-1.41,4.87,0Z"/></g><g class="cls-10"><path class="cls-2" d="M119.46,70.64c-2.88-1.32-4.56,0-4.58,0l-.17-.21c.07-.06,1.82-1.41,4.87,0Z"/></g><path class="cls-9" d="M103.4,72.21a2.61,2.61,0,1,0-1.43,4.7,5.14,5.14,0,0,0,2.23-.82,3,3,0,0,0,1.51-1.42,1.92,1.92,0,0,0-.89-2.14,3.82,3.82,0,0,0-2.42-.42"/><path class="cls-9" d="M118,72.21a2.61,2.61,0,1,0-1.43,4.7,5.14,5.14,0,0,0,2.23-.82,3,3,0,0,0,1.51-1.42,1.92,1.92,0,0,0-.89-2.14,3.82,3.82,0,0,0-2.42-.42"/><path class="cls-13" d="M106.89,104.13a35.38,35.38,0,0,0,8.4,6,6.54,6.54,0,0,0,9.29-6h0s16.85,11.69,16.85,15.51,3.81,22.3,0,30.46-6.59,33.19-6.59,33.19L143.12,205,90,213.2s2.49-22.88,4.13-26.69-6.52-40.73-7.61-42.93S91.28,118.4,90,115,106.89,104.13,106.89,104.13Z"/><path class="cls-14" d="M90.34,213.2,143.45,205s-8.76,7-8.21,12.72c0,0-36.52-4.24-44.89,12.16s-3.62,17-3.62,17S84.23,234.41,90.34,213.2Z"/><path class="cls-8" d="M86,233.06s9.38-18.34,48.52-15.32,62,17.58,62,17.58,9.24,11-4.35,32.75c0,0-11.42,22.82-12,24.45s-16.85,32.62-17.39,34.25-13.59,35.06-13.59,35.06-3.26,32.89.54,40.5,8.29,11.42,2.24,14.13-16.92-.54-17.46-6.52S134,392,130.76,388.19s-12.75-10.33-9.91-16.31,15.89-18.48,15.89-20.11,17.94-56,17.94-57.62,12-41.59,12-41.59-37.45,6.44-52.22,4.27-26.19-3.34-28.77-6.16C81.88,246.54,82.52,232.8,86,233.06Z"/><path class="cls-9" d="M134.63,354.78l-7.56,8.59s-6.17,5.79-6.23,8.5-2.69,3.72,3.11,9.48a103.68,103.68,0,0,1,7.82,8.51c-.27-3.06-2.36-5.51-3.66-8.21-1.77-3.68-2-7.9-2.08-12a18.24,18.24,0,0,1,.76-6.82"/><path class="cls-8" d="M134,221.37a24.7,24.7,0,0,1,2.74-8.09c4.07-7.43,13.89-21.61,29.89-22.41,21.74-1.09,8.77,35.07,8.77,35.07L127.5,357.2l-6.65,38.05s-2,14.68-11.29,13.59-12.5-16.31-12-19.57S114.41,348,114.41,348Z"/><path class="cls-14" d="M88.47,220.55c-1.57.12-20.37,36.22,17.73,39.28,35.24,2.83,93.54-10.64,93.39-14s6.81-18.86-64.36-29.12C135.23,216.7,106.82,205.66,88.47,220.55Z"/><path class="cls-8" d="M137.28,128.88s2.72-16.39,9.24-14.45S152,140.29,152,140.29l.06,48.18a7.48,7.48,0,0,1-2.63,5.71c-6,5.13-20.53,17.38-23.52,19a23.34,23.34,0,0,0-3.47,2.57,62,62,0,0,0-12.56,14.9l-3.28,5.38s4.16,18,.36,18-11.48,16.67-15.83,4.71,2.72-18.72,3.26-20.23,6.52-14.08,9.24-17.58c2.26-2.9,17.61-17.62,24.33-26.9a44.08,44.08,0,0,1,9.92-10h0l-.54-13.94V128.88"/><path class="cls-14" d="M166.63,252.55c-4.08,9.27-8,26.52-12,41.59l24.6,8.45s23.38-45.24,20.32-56.78"/><path class="cls-14" d="M132,221.37c1.23-3.63,12.73-29.18,30.73-30.53S179.24,205,179.24,205c1.28,4.38-.19,11.55-3.84,20.92l-32,91.48-22.6-11Z"/><path class="cls-13" d="M106.89,104.13l-23.66,7.36a60.09,60.09,0,0,0-12.49,31.33s11.8,3,15.65,4"/><path class="cls-13" d="M124.58,104.13l11.48,2.46a25.94,25.94,0,0,1,20.22,20.7,10.9,10.9,0,0,1,.15,4c-1.18,5-18.8,2.5-18.8,2.5Z"/><polygon class="cls-9" points="154.68 294.14 152.67 301.06 173.21 306.38 175.78 301.39 154.68 294.14"/><path class="cls-9" d="M120.85,306.38l-1,6.48c.12-.77,20.82,8.26,20.81,8.28l1.58-4.32Z"/><path class="cls-9" d="M101,380.09a.91.91,0,0,0,.89,1.15c.57-.05-1.18,11.88.71,18.26a18.92,18.92,0,0,1,1.14,6.13s-7.23-9.81-6.23-14.53A101.19,101.19,0,0,1,101.43,379"/><g class="cls-1"><path class="cls-2" d="M146.9,413.91a7.62,7.62,0,0,1-1.93-.25,7.88,7.88,0,0,1-4.61-3.39l-.16.13a1.07,1.07,0,0,1-.21-.86l.07-.36.16.33a7.51,7.51,0,0,0,10.92,2.86l.14.21A7.86,7.86,0,0,1,146.9,413.91Z"/></g><g class="cls-1"><path class="cls-2" d="M105.7,373.1l.17-.5a63.42,63.42,0,0,1,5.83-11.74c.62-1.06,1.27-2.16,1.88-3.25,2.55-4.53,5.17-9.94,5.25-15.77h.25c-.08,5.88-2.72,11.33-5.28,15.89-.62,1.09-1.26,2.19-1.88,3.26a66,66,0,0,0-5.63,11.18l1.16-1.15.18.18Z"/></g><g class="cls-1"><path class="cls-2" d="M92.22,211.46a1.3,1.3,0,0,1-.83-.26,1.11,1.11,0,0,1-.4-.65.63.63,0,0,1,.12-.51.32.32,0,0,1,.28-.12.22.22,0,0,1,.21.21.34.34,0,0,1-.19.34.18.18,0,0,1-.19-.06.36.36,0,0,0,0,.1.85.85,0,0,0,.31.5,1.94,1.94,0,0,0,1.71,0,35.26,35.26,0,0,1,9.65-1.51v.25a35,35,0,0,0-9.58,1.5A4,4,0,0,1,92.22,211.46Zm-.85-1.31s0,0-.06.06a.31.31,0,0,0-.06.14l.18-.1,0,0h0A.13.13,0,0,0,91.37,210.15Zm.06.1-.11.06.11-.05Z"/></g><g class="cls-1"><path class="cls-2" d="M88.25,182c-.32-1.52-2.09-2.28-3.59-2.21a11.93,11.93,0,0,0-3,.66c-.53.16-1.07.33-1.62.46l-.06-.24c.54-.12,1.08-.29,1.6-.46a12.13,12.13,0,0,1,3-.67c1.6-.06,3.5.75,3.85,2.41Z"/></g><g class="cls-1"><path class="cls-2" d="M147.43,193.38a.64.64,0,0,1-.4-.12.3.3,0,0,1-.07-.4l.22.12c0,.06,0,.07,0,.09a.62.62,0,0,0,.63-.06,3.37,3.37,0,0,0,0-4.94l.16-.19a3.62,3.62,0,0,1,0,5.33A.87.87,0,0,1,147.43,193.38Z"/></g><g class="cls-15"><path class="cls-16" d="M161.49,246.21l-.21-.14c3.85-5.95,7.83-12.1,10.57-18.78,3.09-7.52,4.11-14.6,3-21-.14-.85-.65-2.25-1.67-2.14l0-.25c1.14-.11,1.75,1.19,1.94,2.34,1.07,6.49,0,13.61-3.06,21.18C169.33,234.09,165.34,240.25,161.49,246.21Z"/></g><g class="cls-15"><path class="cls-16" d="M191.08,257.28a.3.3,0,0,1-.15,0,.19.19,0,0,1-.06-.28l.22.12a.07.07,0,0,0,0-.06.29.29,0,0,0,.24-.1,30,30,0,0,0,3.88-7.84,10,10,0,0,0-1.06-8.36l.21-.14a10.22,10.22,0,0,1,1.09,8.57,30.26,30.26,0,0,1-3.91,7.9A.54.54,0,0,1,191.08,257.28Z"/></g><g class="cls-15"><path class="cls-16" d="M86.66,244.66a20.44,20.44,0,0,1,0-17.43c.32-.67.94-1.36,1.61-1.08l-.1.23c-.54-.23-1.07.49-1.29,1a20.18,20.18,0,0,0,0,17.22Z"/></g><g class="cls-1"><path class="cls-2" d="M85.49,114l-.14-.21A13.06,13.06,0,0,1,93,111.53v.25H92.7A12.76,12.76,0,0,0,85.49,114Z"/></g><path class="cls-4" d="M125.32,87.59l.47,2.26"/><path class="cls-14" d="M93.71,58.13h0a4.92,4.92,0,0,1-3.1-7.18,3.37,3.37,0,0,1,2.33-1.78c1.65-.24,3,1.14,4.14,2.4a1.4,1.4,0,0,1,.42.77,1.37,1.37,0,0,1-.2.69,27.55,27.55,0,0,1-3.58,5.1"/><path class="cls-14" d="M128.06,51.06h0a4.92,4.92,0,0,1,6.63-4.16,3.37,3.37,0,0,1,2.11,2c.49,1.6-.66,3.18-1.74,4.46a1.4,1.4,0,0,1-.7.53,1.37,1.37,0,0,1-.72-.1,27.55,27.55,0,0,1-5.58-2.77"/><g class="cls-15"><path class="cls-16" d="M133.56,51.5a.2.2,0,0,1-.2-.2c0-.2.31-.42.54-.45a1.18,1.18,0,0,0,.88-.63,1.45,1.45,0,0,0,.09-1.3,1.92,1.92,0,0,0-2.2-.91,2.94,2.94,0,0,0-1.8,1.63h0l-.09.13-.22-.12a3.22,3.22,0,0,1,2-1.9,2.15,2.15,0,0,1,2.49,1,1.71,1.71,0,0,1-.1,1.53,1.43,1.43,0,0,1-1.08.76.49.49,0,0,0-.32.21.06.06,0,0,0,0-.06Z"/></g><g class="cls-15"><path class="cls-16" d="M92.74,55.72a4.28,4.28,0,0,1-1.21-2.57,1.83,1.83,0,0,1,.87-1.49,1.16,1.16,0,0,1,1.17-.08,2.24,2.24,0,0,1,.88,1.15l.48,1.06-.23.1-.48-1.06a2,2,0,0,0-.77-1,.92.92,0,0,0-.92.07,1.59,1.59,0,0,0-.75,1.27,4.09,4.09,0,0,0,1.16,2.42Z"/></g><path class="cls-7" d="M134.93,8.18a49.53,49.53,0,0,1-25,17.16c-16.11,4.5-25.28,14.25-27.45,18s-5.73,8.81-5.73,8.81,1-22.31,20.77-29.31S112.07,20.27,134.93,8.18Z"/><path class="cls-7" d="M72.87,79.34s-5.08-19-3.58-25.73l1-14.17s-5,11.19-3.68,19.6,3.59,16.3,6.26,20.3"/><path class="cls-5" d="M76.72,52.16c-.18,2.21,2-15.81,14.92-23.31s20.61-9.4,20.44-10S96.31,22,91.65,25.65,78.16,34.72,76.72,52.16Z"/><path class="cls-7" d="M213.36,157.88c-2.5-5.89-1.48-12.62-.28-18.9l4.68,13.32c1.9-3.67,1.91-8,1.88-12.12,0-4.47-.24-9.39-3.26-12.69,3.85,2.27,5.89,6.63,7.54,10.78,2.63,6.61,5.6,15.41,2.48,22.39C223.42,167.32,215.51,162.95,213.36,157.88Z"/><path class="cls-5" d="M216.39,127.49s11.19,13,7.45,27.08a5.79,5.79,0,0,1-3.35,3.93c-1.81.72-4.43.72-7.69-2.16,0,0,3.58,9,10.66,7.39s2.5-19.86,2.5-19.86S222.49,129.89,216.39,127.49Z"/><path class="cls-5" d="M79.35,89.73s-7,9.41,1,18.39C80.33,108.12,75.66,102.38,79.35,89.73Z"/><path class="cls-5" d="M70.29,39.44s-1.75,18.44-1.5,24.62a47.53,47.53,0,0,0,1.93,11.37S61.29,56.54,70.29,39.44Z"/><path class="cls-5" d="M71,96.68c-.08,1.36,2.44-9.56,8.38-6.95C79.35,89.73,71.65,85,71,96.68Z"/><path class="cls-5" d="M121.05,26.63l17.62.51s8.91-.93,13.64,5.51C152.31,32.65,143.67,28.12,121.05,26.63Z"/><path class="cls-5" d="M142.7,34c-1.25-.9,27.32,14.08,25.7,31.21C168.4,65.22,162.82,48.48,142.7,34Z"/><path class="cls-7" d="M149,39c-.63-.43,14.2,14.47,12.36,20C161.38,59,169.26,53,149,39Z"/><path class="cls-7" d="M101.07,50.09s9.3.2,10.64,8.46,12.38,8.24,12.38,8.24-8.2-4.8-8.67-13.38S101.87,41.42,101.07,50.09Z"/><path class="cls-7" d="M121.05,26.63s20,6.87,23.49,3.54S121.05,26.63,121.05,26.63Z"/><path class="cls-5" d="M103.19,49.94s7,2.08,6.3,8.61,7.66,8.8,7.66,8.8-5.21-5.33-3.79-11.93S105.59,43.55,103.19,49.94Z"/><g class="cls-1"><path class="cls-2" d="M91.09,60.57a3.14,3.14,0,0,1-1.29-.27,2.55,2.55,0,0,1-1.39-1.94A1.76,1.76,0,0,1,89,56.71l.16.19a1.5,1.5,0,0,0-.49,1.41,2.29,2.29,0,0,0,1.25,1.75,4.32,4.32,0,0,0,3.82-.6,9.7,9.7,0,0,0,4.46-9.3.8.8,0,0,0-.47-.61s-.07,0-.11.07l-.22-.11a.34.34,0,0,1,.37-.21,1,1,0,0,1,.68.82,10,10,0,0,1-4.58,9.55A5.59,5.59,0,0,1,91.09,60.57Z"/></g><g class="cls-1"><path class="cls-2" d="M135,57.5a9,9,0,0,1-7.4-4c-.28-.43-.59-.81-1-.75l0-.25c.59-.12,1,.52,1.21.86a8.72,8.72,0,0,0,7.81,3.87l0,.25Z"/></g><polygon class="cls-9" points="137.68 137.84 152.03 136.52 152 134.03 137.62 133.82 137.68 137.84"/><path class="cls-9" d="M74.64,143.81l12.54,1.9,1.19,4.84S74.68,147,74.69,147.18,74.64,143.81,74.64,143.81Z"/><path class="cls-9" d="M104.61,219.77s29.75-21.36,33.21-35.64c0,0-9.45,8.22-11.24,11.72S104.61,219.77,104.61,219.77Z"/><g class="cls-1"><path class="cls-2" d="M119,84.69l-.22-.12a6.17,6.17,0,0,1,3.54-2.72,13.75,13.75,0,0,1,4.46-.53c1.21,0,2.43.09,3.63.23.37,0,.89.15,1,.58l0,.08-.44.4-.17-.18.31-.28c-.11-.18-.37-.29-.8-.34-1.19-.13-2.41-.21-3.6-.23a13.51,13.51,0,0,0-4.38.51A5.92,5.92,0,0,0,119,84.69Z"/></g><g class="cls-1"><path class="cls-2" d="M120.58,86.84c0-.87,1-1.34,1.4-1.5a9.39,9.39,0,0,1,8,.74l.47.28-1-.08,0-.2a9.14,9.14,0,0,0-7.36-.51c-.38.14-1.27.54-1.24,1.25Z"/></g><g class="cls-1"><path class="cls-2" d="M133.43,94.95V94.7h.21a19.31,19.31,0,0,0-9.63-6,5.2,5.2,0,0,0-2.41-.18l-.06-.24a5.35,5.35,0,0,1,2.53.18A19.55,19.55,0,0,1,134,94.72l.17.2Z"/></g><g class="cls-1"><path class="cls-2" d="M105,86.57a5.91,5.91,0,0,0-3.4-2.6,13.64,13.64,0,0,0-4.38-.51c-1.2,0-2.41.09-3.6.23-.43,0-.69.16-.8.34l.31.28-.17.19-.44-.4,0-.08c.15-.43.67-.54,1-.58,1.2-.14,2.42-.21,3.63-.23a13.75,13.75,0,0,1,4.46.53,6.16,6.16,0,0,1,3.54,2.72Z"/></g><g class="cls-1"><path class="cls-2" d="M103.41,88.72h-.25c0-.71-.85-1.11-1.24-1.25a9.15,9.15,0,0,0-7.36.5l0,.2-1,.08.47-.28a9.39,9.39,0,0,1,8-.74C102.45,87.38,103.46,87.85,103.41,88.72Z"/></g><g class="cls-1"><path class="cls-2" d="M90.57,96.83l-.72,0L90,96.6a19.55,19.55,0,0,1,9.93-6.26,5.37,5.37,0,0,1,2.53-.18l-.06.24a5.17,5.17,0,0,0-2.41.18,19.31,19.31,0,0,0-9.63,6h.21Z"/></g><path class="cls-17" d="M115.67,137c.16-.73-1,19.35,8.74,19.51C124.4,156.53,110.83,159.19,115.67,137Z"/><path class="cls-17" d="M90.27,137.39c.16-.73-1,19.35,8.74,19.51C99,156.9,85.43,159.55,90.27,137.39Z"/><path class="cls-17" d="M124.23,104.13s19.56,4.67,28,13.34C152.28,117.46,149.54,107.1,124.23,104.13Z"/><g class="cls-15"><path class="cls-16" d="M133.29,245.83l-.25,0a70.67,70.67,0,0,0,.85-11.62c.11-6.22.23-12.66,3.07-18.26,1.76-3.48,4.45-6.38,7-9.18a5.79,5.79,0,0,1,3.22-2.17l0,.25a5.59,5.59,0,0,0-3.07,2.09c-2.58,2.79-5.25,5.67-7,9.12-2.81,5.55-2.93,12-3,18.15A70.93,70.93,0,0,1,133.29,245.83Z"/></g></svg>