<svg id="Layer_1" data-name="Layer 1" xmlns="http://www.w3.org/2000/svg" viewBox="0 0 336 414.85"><defs><style>.cls-1{fill:#fafafa;}.cls-2{opacity:0.27;}.cls-3{fill:#515151;}.cls-4{fill:#ffdfd9;}.cls-5{fill:#90665e;}.cls-6{fill:#ffcbbf;}.cls-7{fill:#b7ec7f;}.cls-8{fill:#fa9295;}.cls-9{opacity:0.55;}.cls-10{fill:#eaeaea;}.cls-11{fill:#a2d16b;}</style></defs><title>Sign</title><path class="cls-1" d="M78.64,353.44A1040.62,1040.62,0,0,1,67,153.46c1.77-46.19,6.91-93.32,26.67-135.11,2.25-4.77,4.82-9.61,9-12.84S113,1.07,117.4,4c2.72,1.83,4.31,4.89,5.61,7.89,6.68,15.49,8.26,32.61,11.5,49.17s8.67,33.6,21,45.12c3.2,3,7,5.63,11.38,6.14,7.24.85,13.75-4.26,18.8-9.51,20.47-21.27,32.86-50.13,56.55-67.74,9.52-7.08,23.83-11.64,32.53-3.58,3.3,3.06,5.08,7.43,6.23,11.78,2.84,10.7,2.46,22,1.44,33-2.76,29.82-10,59-17.71,88q-18,68-39.09,135.15c-10.68,34-23.82,70.44-53.6,90.06-26.18,17.25-60,17.72-91,13-4.12-.62-12.21-2.88-10.1-8.87,1.13-3.21,5.3-4,7-7.33C82.77,376.71,80.2,363.51,78.64,353.44Z"/><g class="cls-2"><path class="cls-3" d="M128,402.7c-4.53,0-9-.11-13.47-.21-16.64-.39-35.51-.83-53.32-4.59-3-.64-6.1-1.39-9.06-2.11a145.89,145.89,0,0,0-18.44-3.67c-10.78-1.19-20.13.51-27,4.92l-.17-.26c7-4.44,16.4-6.16,27.25-5a146.09,146.09,0,0,1,18.48,3.68c3,.72,6,1.47,9.05,2.11,17.78,3.75,36.63,4.2,53.26,4.59,13,.31,26.52.62,39.8-1.75,5.66-1,11.32-2.52,16.79-4,5.66-1.52,11.51-3.09,17.39-4.1,12.62-2.17,25.67-1.84,38.29-1.51,3.51.09,7.13.18,10.69.22,30.89.32,62-3.49,92.18-7.18l0,.31c-30.14,3.69-61.3,7.51-92.22,7.18-3.56,0-7.19-.13-10.7-.22-12.61-.32-25.64-.66-38.23,1.51-5.86,1-11.71,2.58-17.36,4.09-5.48,1.47-11.14,3-16.81,4A150,150,0,0,1,128,402.7Z"/></g><path class="cls-4" d="M179.21,145.48a.88.88,0,0,1-1.33.08c2.61-1.3,2.71-5.18,5-7,.71-.58,1.63-1,2-1.8.28-.59.26-1.36.76-1.78a2.05,2.05,0,0,1,.93-.36l17.93-3.73c-.77,3.78-4,11.66-3.05,15.34.68,2.49,4.68,3.88,6.76,4.87,7.89,3.74,27.46,8.45,22.84,17.24-7.44,14.18-27.46,55.34-18.1,62.93,2,1.58,8.19,34.05,6.47,48.28s.86,37.5,4.31,42.67,15.52,17.24,17.24,30.17,10.21,38.5,10.21,38.5L241,393.29s-29.31-37.07-28-41.38-2.59-14.66-5.17-19.4-33.62-56-34.05-57.33-19.4,44-33.62,54.31,0,11.64-25,38.36S94,391.13,94,391.13s-7.15-2.49-8.87-2.49,27.84-71.65,32.15-79.41S139.67,257.17,144,252s12.5-22,15.52-28.07-8.19-45.26-7.76-53.45,9.48-27.59,10.78-26.72,11.21,0,11.21,0,21.12,3,26.29,3l1.05,0"/><path class="cls-5" d="M181.32,99.49a1.77,1.77,0,0,1-.89,1.58c-2-3-4.18-6.21-4.1-9.92s3.61-7.51,6.84-6.16c.93.39,2.41.88,2.61-.18a1.83,1.83,0,0,0-.21-1c-1.38-3.61,1.48-7.92,5-9s7.37.21,10.59,2.07c6.81,3.94,12,10.25,16.2,17.06,3.08,5,6.81,8,5.36,14.22a79.32,79.32,0,0,1-10.84,24.22c-1.6,2.39-1.08,5.77-1.53,8.65l-1.27-.17c-2.27,1-3.77.08-5.91-1.15a13,13,0,0,1-4.89-5.43"/><path class="cls-4" d="M205.41,140.35l1.66-16.47s8-4.48,2.9-8.49-5.6,4.84-5.6,4.84-3.29.31-4-.6c-.45-.61,9.12-17.1,2.4-17.16-4.35,0-1.67-6.16-4.87-6.52l-10.26-1.16a5.58,5.58,0,0,0-6.14,4.71l-1.71,11.34-4.31,7.58a1.68,1.68,0,0,0,1.21,2.5l1.54.23c-.78,5.14-4.17,9.08-4.26,14.41a3.12,3.12,0,0,0,.34,1.73,3.41,3.41,0,0,0,2.62,1.18c4.95.6,9.74,1,14.66,1.74"/><line class="cls-4" x1="201.29" y1="132.78" x2="192.94" y2="135.47"/><g class="cls-2"><path class="cls-3" d="M207.39,122.18a1.13,1.13,0,0,1-.73-.27.75.75,0,0,1-.27-.76l.3.08a.45.45,0,0,0,.17.45.78.78,0,0,0,.77.15,1.69,1.69,0,0,0,.81-1.28,1.72,1.72,0,0,0-.24-1.44.81.81,0,0,0-.72-.24.5.5,0,0,0-.4.29l-.29-.12a.8.8,0,0,1,.63-.47,1.13,1.13,0,0,1,1,.34,2,2,0,0,1,.31,1.7,1.91,1.91,0,0,1-1,1.5A.93.93,0,0,1,207.39,122.18Z"/></g><g class="cls-2"><rect class="cls-3" x="186.74" y="107.17" width="0.31" height="3.13" transform="translate(54.15 279.41) rotate(-82.32)"/></g><path class="cls-6" d="M187.54,111.35c0,.17.15-.14,0-.22a3,3,0,0,0-4.14,2.16,4.91,4.91,0,0,0,5.68-.11,1.66,1.66,0,0,0,.73-1.07,1.36,1.36,0,0,0-1-1.31,4,4,0,0,0-1.77,0"/><path class="cls-4" d="M241.13,391l8.08-2.17s1.91,2.17,6.91,4.78,25,1.31,25,9.14c0,6.77-28.93,2.81-36.77,1.61a2.64,2.64,0,0,1-2.18-2.34l-.8-6.73Z"/><path class="cls-4" d="M93.36,391,86,387.2a23.18,23.18,0,0,1-7.65,6.39c-5,2.61-25,1.31-25,9.14,0,6.77,28.93,2.81,36.77,1.61A2.64,2.64,0,0,0,92.35,402l.8-6.73Z"/><path class="cls-4" d="M162.68,143.88s-30.71,5.6-36.26,9.48-53.39,0-53.39,0-5.17-5.6-9.05-3.88S49.32,159,51.9,162s19.83,0,21.12,0,40.41,10.78,53.39,8.62,31.09-4.35,31.09-4.35Z"/><path class="cls-5" d="M156.86,230.73s-49.14,77.18-49.77,90-14.64,35-14.64,35,27.5,18.5,29,16,17.18-26,18-34,35.56-52.65,35-57.5,23,34,22.67,38.5,10.33,33.5,11.33,36,12.84,20.11,15.59,20,22.15-12.88,22.15-12.88-15.24-32.12-17.74-42.12-8.08-74-9.5-77.5-2-.17-1.5-3.1C218.06,235.47,156.86,230.73,156.86,230.73Z"/><path class="cls-7" d="M248,206.33c3.75-7.49-3.32-26-5.82-28.49s-10-13.74-10-20c0-3.09-2.15-4.65-5.22-5.59a36.74,36.74,0,0,0-10.13,9.41,32,32,0,0,0-5,15.47c-.51,6.18.06,14,2.53,20.3,3.17-6.35,5.65-11.12,5.65-11.12S244.27,213.82,248,206.33Z"/><path class="cls-7" d="M156.73,230.43l0,.13c-6.32,18.23,42.24,27.26,57.44,6.47,5.7-7.8,7.65-46.15,7.65-46.15s14.5,3.15,17-4.85-8-37.42-19.5-34.42L208.78,147c-14.5,6.5-29.15-2.5-29.15-2.5-5-3.1-15.1-3.29-20.78-3.7-12.1-.89-21.2,3.8-32.3,7.71-11.57,4.08-24.47-.07-36.56,2a3.22,3.22,0,0,0-1.8.73,3.38,3.38,0,0,0-.68,2.32l-.38,10.13a8.1,8.1,0,0,0,.45,3.74c.9,1.94,3.14,2.83,5.23,3.3a49.31,49.31,0,0,0,8.87.95c16.7.66,34,.44,50.09-3.7q1.58,15.36,3,30.74c.64,7.14,1.28,14.29,1.73,21.44.13,2.13.87,5.22.36,7.31-.9,3.67-4.24,4.45-5.61,8.26,18.49,12.94,42.81,12.79,65.37,12.14,1.69,0,3.49-.14,4.85-1.13,2.79-2,2.08-6.27,1.49-9.68-2.08-12,1-24.21,1.58-36.38.21-4.46-.38-9.75-4.24-12"/><path class="cls-5" d="M21.89,250.12l-.73-.18c7.63-30.47,11.86-46.05,12.58-46.31l.37.05c.71.52,8.1,28.7,12.45,45.45l-.73.19c-4.21-16.22-10.52-40.1-12-44.45C32.3,209.21,26,233.59,21.89,250.12Z"/><rect class="cls-5" x="33.22" y="195.74" width="0.75" height="54.29"/><path class="cls-5" d="M84,250.12l-.73-.18c7.63-30.47,11.86-46.05,12.58-46.31l.37.05c.71.52,8.1,28.7,12.45,45.45l-.73.19c-4.21-16.22-10.52-40.1-12-44.45C94.37,209.21,88.09,233.59,84,250.12Z"/><rect class="cls-5" x="95.55" y="197.74" width="0.75" height="52.29"/><rect class="cls-5" x="64.61" y="163.14" width="0.75" height="28.54"/><path class="cls-8" d="M107.8,187.2c.3,6.21-8.33,11.35-13.39,9.05s-9.82-8.42-11.61-8.82c-6.65-1.48-11.61,4.41-11.61,4.41s-11.61-.44-12.5,0-3.27-3.42-9.52-4.31-8.93,4.46-16.66,8-10.71-8-10.71-8-2.38,10.71,6.84,11.31,15.47-5.66,19-3.41S60.23,204.5,65,203.61s16-8.32,16-8.32c3.27.88,11.19,3.41,15.18,4.75,2.63.88,9.55-2.72,11.61-6C109.24,191.85,107.8,187.2,107.8,187.2Z"/><path class="cls-8" d="M15.55,245.14c.89-1.33,36.9,0,36.9,0S50.37,262.69,34,261.5,14.36,246.92,15.55,245.14Z"/><path class="cls-8" d="M77.74,246.62c.89-1.33,36.9,0,36.9,0S112.56,264.18,96.19,263,76.55,248.41,77.74,246.62Z"/><g class="cls-2"><path class="cls-3" d="M93.48,165.4c-.47-2.61-.88-5.27-1.21-7.91a1.83,1.83,0,0,1,.27-1.51,1.85,1.85,0,0,1,1.41-.42l4.5,0v.31l-4.5,0a1.14,1.14,0,0,0-1.37,1.58c.33,2.63.74,5.29,1.21,7.9Z"/></g><g class="cls-2"><path class="cls-3" d="M242.16,196.78a3.27,3.27,0,0,1-1.44-.33,8,8,0,0,1-2.94-3.22l.26-.16a7.79,7.79,0,0,0,2.82,3.1,3,3,0,0,0,2.37.1,1.88,1.88,0,0,0,1.11-1.08c.41-1.11-.28-2.39-2-3.82l.19-.24c1.87,1.52,2.59,2.92,2.13,4.16a2.17,2.17,0,0,1-1.29,1.26A3.2,3.2,0,0,1,242.16,196.78Z"/></g><g class="cls-2"><path class="cls-3" d="M193.68,154.49a19.74,19.74,0,0,1-7.27-1.24,30.88,30.88,0,0,1-5.74-3.27l-4.88-3.27.17-.26,4.88,3.27a30.61,30.61,0,0,0,5.68,3.24c5.29,2.09,11.46,1,16.41.18l.05.3A55.4,55.4,0,0,1,193.68,154.49Z"/></g><g class="cls-2"><polygon class="cls-3" points="216.21 243.7 209.8 243.19 209.82 242.88 215.89 243.36 215.28 229.71 215.59 229.69 216.21 243.7"/></g><g class="cls-2"><path class="cls-3" d="M79,402.07v-.31l3.82-.16a2.17,2.17,0,0,0,2.62-2.4l.45-4,.31,0-.45,4a3.19,3.19,0,0,1-.73,2,3.22,3.22,0,0,1-2.19.65Z"/></g><g class="cls-2"><path class="cls-3" d="M257.86,402.47a10.07,10.07,0,0,0-4.74-.6c-.54,0-1.11,0-1.66,0-2.14,0-4.85-.9-5.42-3.16l.3-.08c.53,2.09,3.09,2.89,5.13,2.93.54,0,1.1,0,1.64,0a10.33,10.33,0,0,1,4.88.63Z"/></g><g class="cls-9"><path class="cls-10" d="M114.12,361.95a98.52,98.52,0,0,0-12.23-6,6.87,6.87,0,0,1-3.53-2.39,2.78,2.78,0,0,1-.09-2.57,1.74,1.74,0,0,1,1.37-1,.46.46,0,0,1,.46.24.23.23,0,0,1-.07.28l-.19-.24a.07.07,0,0,0,0,.08.16.16,0,0,0-.14-.05,1.45,1.45,0,0,0-1.13.87,2.49,2.49,0,0,0,.08,2.27,6.65,6.65,0,0,0,3.38,2.26,98.92,98.92,0,0,1,12.27,6Z"/></g><g class="cls-9"><path class="cls-10" d="M146.07,255.59l-.08-.3a18.14,18.14,0,0,0,10.44-7.42,1.1,1.1,0,0,0,.27-.87.36.36,0,0,0-.33-.2h0c-.09,0-.14,0-.15.1l-.3-.07a.44.44,0,0,1,.44-.34h0a.66.66,0,0,1,.63.41,1.34,1.34,0,0,1-.3,1.14A18.45,18.45,0,0,1,146.07,255.59Z"/></g><g class="cls-9"><path class="cls-10" d="M215.81,261.56h-.1a.45.45,0,0,1-.34-.36.25.25,0,0,1,.19-.25l.1.29a.07.07,0,0,0,0-.06.2.2,0,0,0,.13.09c.13-.17,0-.42-.2-.6l-7-8.14.23-.2,7,8.14c.33.38.41.7.25,1A.31.31,0,0,1,215.81,261.56Z"/></g><g class="cls-9"><path class="cls-10" d="M222.52,364.61l-10.11-9.44a3.82,3.82,0,0,1-1.58-3.43l-.47-11.54h-.07v-1.86h.31l.55,13.4a3.54,3.54,0,0,0,1.48,3.21l10.11,9.44Z"/></g><path class="cls-6" d="M96.32,358.26l-1.43,3.56s16.19,10.35,16.52,10l2.58-2.76Z"/><path class="cls-6" d="M226,373.86l2.49,2.93s16.69-9.52,16.53-10l-1.24-3.56Z"/><path class="cls-6" d="M181.41,140.34h20.44s-.55,2.72-.57,3.54-19.87-5.5-19.87-5.5Z"/><path class="cls-11" d="M151.23,235.78s12.84,2.53,11.91-8.78-9.24-37.57-9.24-37.57l3,34.19C156.53,224.06,155.43,232.48,151.23,235.78Z"/><path class="cls-11" d="M223.09,191.11s6.11-10.94,20.11,12.58l1.81,3.94C241.51,207.31,232.05,198.88,223.09,191.11Z"/></svg>