<svg id="Layer_1" data-name="Layer 1" xmlns="http://www.w3.org/2000/svg" viewBox="0 0 312.07 357.55"><defs><style>.cls-1{fill:#fafafa;}.cls-2{opacity:0.32;}.cls-3{fill:#515151;}.cls-4{fill:#ffdfd9;}.cls-5{fill:#90665e;}.cls-6{fill:#ffcbbf;}.cls-7{fill:#b7ec7f;}.cls-8{fill:#f4f4f4;}.cls-9{fill:#876aaa;}.cls-10{fill:#9e80bb;}.cls-11{fill:#ea757e;}.cls-12{fill:#e2e2e2;}.cls-13{opacity:0.08;}.cls-14{fill:#fff;}</style></defs><title>Sign</title><path class="cls-1" d="M49.52,233.2a55.92,55.92,0,0,1-21.67-16.55c-6.69-8.43-10.81-18.64-13.64-29-2.2-8-3.68-16.54-2-24.71,1.48-7,5.23-13.34,9.25-19.29A193.44,193.44,0,0,1,120.4,69c15.52-5.1,31.86-8.29,46.17-16.2,12.1-6.69,22.16-16.44,33.15-24.83s23.65-15.7,37.47-16.12c1.86-.06,4,.14,5.11,1.6,1.64,2.12.1,5.15-1.47,7.33-10.57,14.73-23.1,30.48-21.65,48.55.23,2.81.92,5.8,3,7.65,2.76,2.39,6.86,2,10.48,1.64a229.71,229.71,0,0,1,68.1,2.72c2.87.55,6.22,1.57,7.11,4.36s-1.15,5.42-3.17,7.4c-14.7,14.39-37.82,20.19-47.66,38.26-2.65,4.87-3.12,12.56,2.1,14.45,2.3.83,4.82.1,7.21-.37a33.67,33.67,0,0,1,34.77,15.88,12,12,0,0,1,2,6.44c-.27,5.09-5.47,8.32-10.18,10.27a97.85,97.85,0,0,1-28.82,7c-8.34.72-16.92.4-24.86,3.06-9.27,3.11-16.71,10-24.8,15.45-14.14,9.61-30.62,15.25-47.28,19.12-34.17,7.93-69.53,8.78-104.6,9.59l-17.86.41"/><g class="cls-2"><path class="cls-3" d="M203.68,205.6q-1.88,0-3.75-.06c-12.07-.41-24.12-2.89-35.77-5.29-5.53-1.14-11.24-2.32-16.89-3.26-27.68-4.61-53.29-3.51-76.12,3.29l-1.14.34a40,40,0,0,1-8.12,1.85,39.68,39.68,0,0,1-8.45-.5l-31.36-4.1,0-.27,31.36,4.1a39.54,39.54,0,0,0,8.39.49,39.75,39.75,0,0,0,8.07-1.84l1.14-.34c22.87-6.81,48.52-7.92,76.25-3.3,5.65.94,11.37,2.12,16.9,3.26,11.64,2.4,23.67,4.88,35.72,5.29,14.12.48,28.4-1.88,42.21-4.17,16-2.65,32.52-5.38,48.85-3.69l0,.27c-16.29-1.68-32.8,1-48.77,3.69C229.59,203.45,216.6,205.6,203.68,205.6Z"/></g><path class="cls-4" d="M139.05,81.67a1,1,0,0,1,.31,1,99.81,99.81,0,0,1-2.48-18.26,3,3,0,0,0-.64-2.12c5.49.77,11.61,1.11,16.94,2.59A1.17,1.17,0,0,1,154.27,66L157.53,82a1.84,1.84,0,0,1,0,1.21c-.27.52-.95.65-1.53.72l-4.53.55a26.49,26.49,0,0,1-7.24.22C141.81,84.31,140.4,83.68,139.05,81.67Z"/><path class="cls-5" d="M135.53,20.14c-4.25.91-7.66,4.5-9.73,8.13-2.46,4.33-2.81,9-3.62,13.85a269.5,269.5,0,0,0-3.57,43.49c-.1,11.67.06,24.2,6.79,33.74,2.55,3.62,6.11,6.7,10.38,7.87s9.28.17,12.2-3.16c2.74-3.11,3.27-7.55,3.31-11.69.08-9.38-1.75-18.66-2.51-28s-.35-19.14,3.89-27.51"/><path class="cls-4" d="M165.45,63.53s-21.32,15.64-27.72,9.24l-1.06-1.09A28.2,28.2,0,0,1,129,50.89l1-20.06s1.42-10.66,7.11-10c0,0,4.26-.71,11.37,17.06C148.39,37.94,150.52,41.49,165.45,63.53Z"/><path class="cls-6" d="M132.84,21.48s8.8,14.31,14.31,16.51,9.26,17.61,9.26,17.61,7.24-13.21,1.74-20.91a144.51,144.51,0,0,0-13.21-15.41Z"/><g class="cls-2"><path class="cls-3" d="M135.38,43.4c-2.89-1.32-4.56,0-4.58,0l-.17-.21c.07-.06,1.82-1.41,4.87,0Z"/></g><g class="cls-2"><path class="cls-3" d="M150.28,44c-2.89-1.32-4.56,0-4.58,0l-.17-.21c.07-.06,1.82-1.41,4.87,0Z"/></g><path class="cls-6" d="M134.23,45.58a2.61,2.61,0,1,0-1.43,4.7,5.14,5.14,0,0,0,2.23-.82A3,3,0,0,0,136.53,48a1.92,1.92,0,0,0-.89-2.14,3.82,3.82,0,0,0-2.42-.42"/><path class="cls-6" d="M148.85,45.58a2.61,2.61,0,1,0-1.43,4.7,5.14,5.14,0,0,0,2.23-.82A3,3,0,0,0,151.16,48a1.92,1.92,0,0,0-.89-2.14,3.82,3.82,0,0,0-2.42-.42"/><path class="cls-4" d="M117.09,109.4l-30.9,20.76s-50.56-9.13-51-10.33,3.61-12,3.61-12,49,2.41,52,1.6,20.26-12.44,22.27-14,10-20.06,25.28-12.44"/><path class="cls-4" d="M38.84,107.79S28.41,97.8,26,97.4,11.56,95.35,11.16,99s-4.41,16,0,17.25,18.46,0,18.46,0,9.93,4.9,8.83,4.63S38.84,107.79,38.84,107.79Z"/><path class="cls-7" d="M168.95,160.76c3.41-3.43,8.26-6.07,9.31-10.79.33-1.48.23-3,.54-4.5,1.17-5.74,7.92-9.32,8.4-15.16l-2.37,16.23a17.54,17.54,0,0,1-1.85,6.54c-1.58,2.66-4.55,4.45-5.57,7.38-.68,2-.37,4.18-1,6.15-.79,2.36-10.83,12.48-12.24,11.78C158.93,175.82,166.78,162.94,168.95,160.76Z"/><path class="cls-7" d="M178,179.74c1.37-1.23,3-2.18,4.3-3.44a24.5,24.5,0,0,0,3-3.69c6.21-8.68,12.32-18.23,12.63-28.9.19-6.38-1.74-12.65-2-19-.18-4.95.66-9.89.5-14.84S195,99.66,191.28,96.39a31.66,31.66,0,0,1,17.51,32.16c-.61,4.41-2.18,8.64-2.88,13s-.55,8.9-1.74,13.18a34.37,34.37,0,0,1-4.15,8.79,83.29,83.29,0,0,1-13,16c-2.59,2.49-5.4,4.9-7,8.11-1.76,3.47-1.87,7.44-3.27,11-1.34,3.42-4.08,6.69-4.79,1.58C171,193.56,172.84,184.4,178,179.74Z"/><path class="cls-7" d="M203.74,196.41a10,10,0,0,0-3.38-9.1c-1-.88-2.31-1.59-2.94-2.79-.84-1.59-.29-3.59.7-5.09s2.38-2.7,3.45-4.14a12.09,12.09,0,0,0,2-10c-.45-1.77-1.31-3.63-.69-5.35,1-2.68,4.69-3.05,6.61-5.15,3.25-3.55,0-10,3-13.77A17.9,17.9,0,0,1,210,159.7a17.29,17.29,0,0,0-3,4c-1.5,3.45.59,7.33.77,11.08.26,5.34-3.37,10.85-1.27,15.77.64,1.49,1.75,2.73,2.45,4.19a7.76,7.76,0,0,1-1.28,8.64c-1.39,1.39-5,3-6.48.8S203.36,198.73,203.74,196.41Z"/><path class="cls-4" d="M166.07,93.45c0-1,8.56-22.83,18.08-11.42s4.76,58,4.76,61.84-1.9,13.32,0,13.32,7.61,13.32,7.61,17.13-1.9,56.13-1.9,56.13H188s-13.32-59.94-13.32-61.84-2.85-24.74-1.9-26.64S166.07,93.45,166.07,93.45Z"/><path class="cls-4" d="M185.61,237.19A14.35,14.35,0,0,0,188,249a1.15,1.15,0,0,0,2.08-.64l.12-3.69a1.48,1.48,0,0,1,1.66-1.82c4.61-.35,9.43-.68,13.69,1.11,2,.83,4.21,2.12,6.13,1.12a6,6,0,0,0,2.22-2.69,2.83,2.83,0,0,0-1-4.52A66.12,66.12,0,0,0,201.8,231c-2.92-1.31-6.41-4.06-9.68-3.91C186,227.42,186.76,232.67,185.61,237.19Z"/><path class="cls-4" d="M134.64,83.93c-2.81.44-5.79,1-7.87,2.91-1.61,1.5-2.43,3.64-3.2,5.7-2.16,5.78-7,13.65-7.39,19.75-.22,3.22,2.06,7.29,2.64,10.53a51.66,51.66,0,0,1,.79,10.05c-.06,3.29-1.36,6.91-1.18,10.1s1.51,6.53,1.68,9.89a282.68,282.68,0,0,1-.55,36.73c-.17,2.18-.36,4.47.54,6.46s2.91,3.52,4.9,4.65a37,37,0,0,0,40-2.9,15.92,15.92,0,0,0,4.46-4.9c2-3.8,1.45-8.39.82-12.64l-3.39-23c-.73-4.93-1.45-9.91-1-14.86s2-9.52,3.4-14.21a153.74,153.74,0,0,0,4.91-24.1c.67-5.48,3.51-17.2.05-22-3.28-4.59-10.35-2.71-15-2C151.08,81.28,142.86,82.63,134.64,83.93Z"/><path class="cls-6" d="M166.3,153.38C154,155.79,139.15,167,124.21,169.62a3.84,3.84,0,0,1-4.12-1.89c.27-2.07,2.25-3.43,4.1-4.38q14.27-7.31,29.22-13.18c2.31-.9,4.72-1.8,7.19-1.57S166,150.93,166.3,153.38Z"/><path class="cls-8" d="M148.59,81.71S135.25,94,125.22,99.05a14.43,14.43,0,0,0-7,8c-2.4,6.65-5.87,16.59-5.86,18.54,0,3,.16,8.24,6,17.24,0,0,2.19,14.25,2.15,21.75s45-11.5,45-11.5,4.81-28.25,5-29.06S176,92.84,176,92.84L153.13,81.71Z"/><path class="cls-7" d="M89.29,185.93c.72-2.79,2.68-5.07,4.09-7.59s2.23-5.79.63-8.2c-.79-1.2-2.07-2-3-3.1-2.7-3.29-1.51-8.12-1.44-12.38a21.56,21.56,0,0,0-4.11-13c1.08,4.72,5.64,8,6.8,12.74.48,1.95.36,4.07,1.29,5.85,1.25,2.4,4.2,3.73,5,6.31,1.05,3.34-2,6.82-1.34,10.25a20.77,20.77,0,0,1,.88,3.36c0,2-1.66,3.65-1.84,5.64-.24,2.71,2.34,4.79,3.21,7.37,1.48,4.38-1.76,7.75-5.58,5C90.39,195.68,88.2,190.14,89.29,185.93Z"/><path class="cls-7" d="M96,177.67a48.13,48.13,0,0,1,2.25-5.85,28.06,28.06,0,0,0,1.33-13.44,10.77,10.77,0,0,1,0-4.43c.63-2.09,2.57-3.44,4-5.08a12.25,12.25,0,0,0,1.95-12.68,3.42,3.42,0,0,1-.49-2.34c.3-.92,1.37-1.3,2.16-1.85,2.54-1.76,2.49-5.49,1.91-8.53a57.46,57.46,0,0,0-4.11-13c-.57-1.27-1.8-2.75-3-2.14,5.4,1.44,9.23,6.52,10.71,11.91s1,11.1.45,16.66c-.36,3.5-.79,7.1-2.45,10.2-1,1.86-2.43,3.51-3,5.54-.73,2.47-.11,5.16-.61,7.69-.83,4.18-4.66,7.76-3.94,12,.48,2.77,2.88,4.94,3.22,7.73.42,3.46-2.45,6.9-1.39,10.21.48,1.49,2.83,4.53.64,5.76-1.68.94-4-1.81-4.82-2.82C97.31,189.17,94.7,182.92,96,177.67Z"/><path class="cls-7" d="M106.2,179.9a11.85,11.85,0,0,0,1.2-2.58c.62-2.59-1.36-5-2.14-7.56-1.59-5.23,2-10.51,5.48-14.73s7.34-9.16,6.33-14.53c2.35,2,2.7,5.64,1.85,8.63s-2.66,5.59-4.12,8.33a37,37,0,0,0-3.93,12.18c-.56,4,1,15.72-2.11,18.62C104.16,192.58,105,182.19,106.2,179.9Z"/><path class="cls-7" d="M85.2,195c-1.81-3.73-.36-8.53-2.54-12-1.56-2.51-4.61-3.74-6.38-6.1-3.63-4.84-.54-11.69-1-17.73a54.73,54.73,0,0,1-.61-5.59c.11-4.69,3.65-9.34,2-13.72,1.31,4.95,2.63,10,2.12,15.12-.29,2.88-1.18,5.72-1,8.61.32,6.25,5.22,11.13,9.07,16.06a58.69,58.69,0,0,1,9.25,17C99,205.39,87.09,198.93,85.2,195Z"/><path class="cls-5" d="M157,50.71c-.77,4-2.42,8-2,12,.34,3.1,1.17,7.29,4.5,8.47s8.37-.34,11.87-1.88c.49-.21.95-.43,1.37-.64,4.37-2.13,8.22-5.18,12-8.2a12.68,12.68,0,0,0,3.77-4c2.7-5.46-2.35-18.45-4.72-23.59-4.17-9-8.46-19.6-19.47-22,0,0-25.59-5.68-33.4,12.08,0-1.54,6.41,1.15,6.72,1.38a15.42,15.42,0,0,1,5.16,6.51c1.17,2.73,3.82,4.72,5.89,6.81,7.88,8,8.94,6.61,6.63,17.61-2.06,9.81-3.73,24-1.16,33.75,1.42,5.4,4.49,10.21,7.71,14.78,5,7.11,10.68,14,18.17,18.46,17.34,10.23,41.59,3.62,53.84-12.35s13.19-38.86,5.27-57.37c-2.08-4.85-5.31-9.94-10.46-11-6.27-1.34-12,3.87-15.49,9.27-1.7,2.65-3.12,6.23-1.27,8.78s5.55,2.34,8.33,3.69c6.37,3.09,5.52,12.93,1,18.41-3.49,4.27-10.16,7.18-14.39,3.65-4.47-3.74-2.46-11-4.49-16.48s-7.78-8.37-13.18-10.45"/><path class="cls-9" d="M111.94,309.14c10.3-3.64,6.67-12.72,3-18.18s-18.18-3.64-20-22.42c-1.08-11.16,10.16-16.8,19-20.05,4.68-1.72,10-2.33,14.52-4.3,6.74-2.94,13.22-8.22,19.67-12,4.22-2.49,8.48-5,12.08-8.33,4.53-4.19,7.86-9.54,10.56-15.09,4.81-9.91,9.82-26.34,3-36.61-7.5-11.35-20.15,3.56-27.36,8.55-15.75,10.91-26.06-3.64-26.06-3.64-.09-4.69-64.94,42.66-69.68,66.65,0,0-11.28,60.45,61.2,65.44"/><path class="cls-10" d="M115,291s5.45-32.11,48.48-40c0,0-2,37.17-24.24,46.05-13.3,5.31-20.66,3-24.43.23A3.84,3.84,0,0,1,115,291Z"/><path class="cls-10" d="M111.94,309.14s9.09,33.93,51.5,40c0,0-9.7-17-11.51-29.09s-2.36-17.64-20-20.7C109.4,295.45,114.51,306.66,111.94,309.14Z"/><path class="cls-11" d="M111.94,309.14,115,291s4.21-24.31,32-35.17c0,0-3.57,11.88-13.58,26.68S123.53,284,111.94,309.14Z"/><path class="cls-11" d="M163.45,349.13s-8.9-18.18-10.07-22.88-2.13-10.67-2.13-10.67-6.82,15.55,1.42,24.34S163.45,349.13,163.45,349.13Z"/><line class="cls-11" x1="122.94" y1="179.76" x2="126.07" y2="182.13"/><g class="cls-2"><path class="cls-12" d="M123.77,191.18a8.78,8.78,0,0,1-3.68-.8,8.87,8.87,0,0,1-4.75-5.57c-.07-.26-.13-.53-.2-.79a8.9,8.9,0,0,0-.43-1.48l.25-.11a8.93,8.93,0,0,1,.45,1.52c.06.26.12.52.19.78a8.48,8.48,0,0,0,11.68,5.42l.11.25A8.77,8.77,0,0,1,123.77,191.18Z"/></g><g class="cls-2"><path class="cls-12" d="M161.93,203.81a8.75,8.75,0,0,1-3.37-.67l-.74-.34a8.83,8.83,0,0,0-1.43-.58l.07-.27a9.06,9.06,0,0,1,1.47.59l.73.33a8.48,8.48,0,0,0,11.51-5.78l.27.07a8.73,8.73,0,0,1-8.51,6.64Z"/></g><g class="cls-2"><path class="cls-12" d="M139.95,193.37a9.93,9.93,0,0,1-6-1.89l.16-.22a10.27,10.27,0,0,0,13.49-1.56l.21.18A10.36,10.36,0,0,1,139.95,193.37Z"/></g><g class="cls-2"><path class="cls-12" d="M158.58,187.79a3.85,3.85,0,0,1-2.17-.63l.15-.23c2.14,1.42,4.94-.14,5.75-.65,2.82-1.78,4.51-4.41,4.52-7h.28c0,2.71-1.75,5.43-4.65,7.26A7.89,7.89,0,0,1,158.58,187.79Z"/></g><g class="cls-2"><path class="cls-12" d="M153,196.79a9.65,9.65,0,0,1-4.42-1l.13-.25a10.14,10.14,0,0,0,12.36-2.88l.22.16A10.39,10.39,0,0,1,153,196.79Z"/></g><g class="cls-2"><path class="cls-12" d="M129.94,200.54a10.16,10.16,0,0,1-6.89-2.58l.19-.2a10.15,10.15,0,0,0,12.67.54l.17.22A10,10,0,0,1,129.94,200.54Z"/></g><g class="cls-2"><path class="cls-12" d="M113.63,200.22a10.5,10.5,0,0,1-9.47-6.06l.25-.11a10.15,10.15,0,0,0,11.36,5.64l.07.27A9.19,9.19,0,0,1,113.63,200.22Z"/></g><g class="cls-2"><path class="cls-12" d="M112.95,307.18l-.13-.24c6.73-3.65,9.74-11.52,11.61-18,.27-.93.53-1.86.79-2.8,1.73-6.2,3.51-12.6,7.8-17.4a41.61,41.61,0,0,1,7.31-6l13.87-9.77.16.22-13.87,9.77a41.42,41.42,0,0,0-7.26,6c-4.24,4.75-6,11.13-7.74,17.29-.26.94-.52,1.88-.79,2.8C122.8,295.54,119.76,303.49,112.95,307.18Z"/></g><g class="cls-2"><path class="cls-12" d="M112.36,310l-.09-.26a24,24,0,0,0,15.09-15.9,48,48,0,0,0,1-4.94,36.3,36.3,0,0,1,1.54-6.5c1.38-3.7,3.94-6.87,6.51-9.74A123.51,123.51,0,0,1,163.33,250l.14.23a123.25,123.25,0,0,0-26.82,22.53c-2.55,2.85-5.1,6-6.46,9.65a36.11,36.11,0,0,0-1.53,6.46,47.94,47.94,0,0,1-1,5A24.26,24.26,0,0,1,112.36,310Z"/></g><g class="cls-2"><path class="cls-12" d="M101.72,208.66a6.91,6.91,0,0,1-6.88-8.14l0-.18.16.08a2.72,2.72,0,0,1,1.51,2.18l-.27,0a2.45,2.45,0,0,0-1.19-1.87,6.65,6.65,0,0,0,8.17,7.45l.07.27A6.63,6.63,0,0,1,101.72,208.66Z"/></g><g class="cls-2"><path class="cls-12" d="M123,207.76a13,13,0,0,1-5.62-1.26l.12-.25a12.88,12.88,0,0,0,10.18.35l.1.26A12.94,12.94,0,0,1,123,207.76Z"/></g><g class="cls-2"><path class="cls-12" d="M147.1,207.72a9,9,0,0,1-7.42-3.81l.23-.15a8.76,8.76,0,0,0,9.5,3.36l-.41-.05,0-.27,1.53.2-.5.2A8.23,8.23,0,0,1,147.1,207.72Z"/></g><g class="cls-2"><path class="cls-12" d="M151.6,221.26l-.44,0a5.33,5.33,0,0,1-4-2.18l.23-.16a5.3,5.3,0,0,0,7.89.59l.2.19A5.25,5.25,0,0,1,151.6,221.26Z"/></g><g class="cls-2"><path class="cls-12" d="M99.65,306a8.07,8.07,0,0,1,3.78-9.63,6.42,6.42,0,0,1,.23-10.87l.14.24a6.15,6.15,0,0,0,0,10.53l.22.13-.24.11a7.77,7.77,0,0,0-3.86,9.4Z"/></g><g class="cls-2"><path class="cls-12" d="M88.24,302.61a8.47,8.47,0,0,1,7.3-9.33,9.14,9.14,0,0,1,1.84-11.42l.18.21a8.84,8.84,0,0,0-1.66,11.25l.13.2h-.24a8.19,8.19,0,0,0-7.27,9Z"/></g><path class="cls-11" d="M108,250.6c-2.23-.37-4.43.68-6.39,1.8a24.31,24.31,0,0,0-5.52,4,15,15,0,0,0,1.74,22.36c.05.26.25.29.37,0a1,1,0,0,0-.06-.77c-1-2.64-2.25-5.19-3-7.92a12,12,0,0,1,.4-8.28,16.52,16.52,0,0,1,3-3.9c2.79-2.95,5.75-6,9.61-7.23.22-.07.5-.21.47-.44S107.8,250.52,108,250.6Z"/><path class="cls-11" d="M148.66,179s10.56-10,16.41-10.84c5-.73,5.81.11,7.32,2.12a53.4,53.4,0,0,1,3.29,5.45s-3.2-8.05-11.45-4.68A117.36,117.36,0,0,0,148.66,179Z"/><g class="cls-2"><path class="cls-3" d="M119.12,138.87H119a.24.24,0,0,1-.19-.28l.27.05a0,0,0,0,0,0,0h.06c0-.11,0-.22-.14-.33a13.45,13.45,0,0,1-2.94-9.66,23.2,23.2,0,0,1,3.17-9.73l.24.13a22.92,22.92,0,0,0-3.14,9.61,13.16,13.16,0,0,0,2.87,9.46.66.66,0,0,1,.22.58A.32.32,0,0,1,119.12,138.87Z"/></g><g class="cls-2"><path class="cls-3" d="M84.75,126.69a3.46,3.46,0,0,1-1.47-.33,4.93,4.93,0,0,1-2.47-3.13,11.26,11.26,0,0,1-.28-4l.27,0a11,11,0,0,0,.27,3.91,4.66,4.66,0,0,0,2.33,3,3,3,0,0,0,3.49-.61,2.29,2.29,0,0,0,.43-1.89,1.87,1.87,0,0,0-.95-1.32l.12-.25a2.14,2.14,0,0,1,1.09,1.51,2.53,2.53,0,0,1-.49,2.13A3,3,0,0,1,84.75,126.69Z"/></g><g class="cls-2"><path class="cls-3" d="M181.91,166.43a3.59,3.59,0,0,1-2.89-1.1,2.11,2.11,0,0,1-.24-2.09,1.41,1.41,0,0,1,1.18-.92l0,.27a1.15,1.15,0,0,0-.95.75,1.83,1.83,0,0,0,.2,1.8,3.77,3.77,0,0,0,3.15,1,5.39,5.39,0,0,0,3.16-1.11,2.87,2.87,0,0,0,1-3,2.08,2.08,0,0,0-1.21-1.23,1.63,1.63,0,0,0-1.39,0l-.13-.24a1.89,1.89,0,0,1,1.63-.06,2.33,2.33,0,0,1,1.37,1.4,3.15,3.15,0,0,1-1.08,3.27,5.66,5.66,0,0,1-3.32,1.18Z"/></g><path class="cls-6" d="M35.23,119.83c1.77.12,34.69-.34,38.45,4.19s6.92,5.12,6.92,5.12Z"/><path class="cls-7" d="M212.71,183.13a2.76,2.76,0,0,0,.47-1.71c-.13-.63-.73-1-1.13-1.55a3.76,3.76,0,0,1-.18-3.89,11.07,11.07,0,0,1,2.62-3.13l9.7-9a76.11,76.11,0,0,1-6.12,13.69,13.78,13.78,0,0,0-2.1,5,14.31,14.31,0,0,0,.34,4.09,53,53,0,0,1,.61,12c-.13,2,0,9-2.78,5.85-1.67-1.87-1.41-7.55-1.82-9.95C211.65,190.72,210.94,186.72,212.71,183.13Z"/><g class="cls-13"><path class="cls-14" d="M79.62,198.06a9.22,9.22,0,0,1-6-4.29,6.93,6.93,0,0,1,.2-7.21,5.58,5.58,0,0,1,6.73-1.91c1.8.88,2.89,2.75,3.67,4.6s1.28,3.89.24,5.5a5.85,5.85,0,0,1-3.31,2.08c-1.75.55-3.84.84-5.26-.32a5.43,5.43,0,0,1-1.61-3.65,18.16,18.16,0,0,1-.06-3.94"/></g><path class="cls-11" d="M63.77,222.33c.83,11.69-4.94,22.84-11.68,32.44.46-1.68-.31-1.75-.78-3.42C49.8,245.87,51.5,240,54.13,235S61.18,227.38,63.77,222.33Z"/></svg>