<svg id="Layer_1" data-name="Layer 1" xmlns="http://www.w3.org/2000/svg" viewBox="0 0 306 381.55"><defs><style>.cls-1{fill:#fafafa;}.cls-2{opacity:0.27;}.cls-3{fill:#515151;}.cls-4{fill:#ffdfd9;}.cls-5{fill:#b7ec7f;}.cls-6{fill:#90665e;}.cls-7{fill:#ffcbbf;}.cls-8{fill:#9e80bb;}.cls-9{fill:#f8c878;}.cls-10{opacity:0.43;}.cls-11{opacity:0.28;}</style></defs><title>Sign</title><path class="cls-1" d="M57.9,221.81c6,13.65,13,28.16,26.07,35.31,10,5.45,22.24,5.65,33.16,2.45s20.65-9.54,29.54-16.64c17.32-13.82,31.91-30.69,46.4-47.46l64.64-74.79C270.17,106.28,283,91.25,288.2,72.94c1.83-6.4,2.22-14.36-2.91-18.59-2.73-2.25-6.41-2.87-9.91-3.36-66-9.14-132.86,2.13-198.39,14C65.16,67.12-1.42,75.39,3.17,92.37c1.14,4.22,6.16,8.81,8,13.14,3.05,7.34,5.52,15,8.34,22.39q8.62,22.72,17.81,45.22Q47.26,197.6,57.9,221.81Z"/><g class="cls-2"><path class="cls-3" d="M11.17,347.75c-1-3.41,1.17-6.88,3.58-8.66,2.7-2,6.17-2.76,9.21-3.33a132.23,132.23,0,0,1,31.3-2c8.84.49,17.74,1.88,26.35,3.23,8.12,1.27,16.52,2.59,24.86,3.14,26,1.72,51.85-3.83,78.29-10.17,19.23-4.61,38.67-9.53,57.78-14.64,2.68-.72,5.85-2.13,5.76-4.83h.25c.1,2.86-3.18,4.34-5.95,5.08-19.11,5.1-38.55,10-57.79,14.64-26.46,6.34-52.37,11.89-78.37,10.18-8.35-.55-16.75-1.87-24.88-3.14-8.6-1.35-17.49-2.74-26.32-3.23A132,132,0,0,0,24,336c-3,.56-6.45,1.32-9.11,3.28-2.34,1.73-4.43,5.09-3.49,8.39Z"/></g><path class="cls-4" d="M161.84,321.89l8.45-1.08a19,19,0,0,0,5.47,7.17c4.23,3.65,23.91,7.33,22.07,14.6-1.59,6.3-29.11-4.66-36.41-7.69a2.41,2.41,0,0,1-1.45-2.63l1.06-6.33Z"/><path class="cls-4" d="M102,352.89l8.79-1.65a15.84,15.84,0,0,0,5.13,7.75c4.23,3.65,23.91,7.33,22.07,14.6-1.59,6.3-29.11-4.66-36.41-7.69a2.41,2.41,0,0,1-1.45-2.63l1.06-6.33Z"/><path class="cls-4" d="M146.67,88.64c-5,.81-4-3-5.06-6.51a6.44,6.44,0,0,0-.61-1.54,3.91,3.91,0,0,0-4-1.6,5.88,5.88,0,0,0-3.65,2.6,2.56,2.56,0,0,0-.4.84,3.9,3.9,0,0,0,.26,1.82c1,3.78-1.14,3.92-4.17,5-1.05.37-7.28,3.32-8,2.81a51.2,51.2,0,0,0,11.19,5.66c5.32,1.91,11.63,2.81,16.31-.34a11.15,11.15,0,0,0,4.83-8.8.94.94,0,0,0-.14-.63c-.21-.26-.61-.23-.94-.18Z"/><path class="cls-5" d="M164.61,154.25c.4,3.61,3.41,22.45,4,24.25s-44.9,7.62-47.1,5.41,3.61-21,2.41-23.45-5.81-12.74-7.42-17.39-6.21-25.7-6.21-25.7-4.95-20.85-3.95-21.85,14.17-3.81,15.37-3.81,19.44,10.42,25.86,3.21c4.53-5.09,5.06-7.29,5-8.14a.55.55,0,0,1,.42-.61c2.09-.44,9-1.74,10.23.13C164.61,88.5,164.21,150.64,164.61,154.25Z"/><path class="cls-4" d="M161.84,85.52s23.81-1.22,25.21-1.43,18-5,19.64-5.81,11.43-.6,13-1,17.84-7.82,17.84-7.82,2-7.82,3.41-8.22,10.42-2.81,11.63-3,5.61,5.21,5.41,6.61-3.21,8-3.21,8-8.42,3.81-9.82,3-5.21-.8-5.21-.8-27,18.44-29.84,19.24-16.26,0-16.26,0-29.46,10.82-30.87,10.22S161.84,85.52,161.84,85.52Z"/><path class="cls-4" d="M106.34,95.52s-35.34,11-37.35,13-16.64,7.62-15.23,9.82,18.06,8.59,20.87,8,48.29-15,49.69-15.61,12.56,3.63,13.1,2,.27-9,0-10.44-7.68-6.21-8.69-5-5.41,6.21-5.41,6.21l-56,13.55,1.62-.44,52.78-14.31Z"/><path class="cls-6" d="M153.54,52.8a1.37,1.37,0,0,0,.67,1.24c1.62-2.28,3.32-4.78,3.3-7.66s-2.73-5.88-5.25-4.87c-.73.29-1.88.65-2-.17a1.43,1.43,0,0,1,.17-.76c1.11-2.79-1.06-6.17-3.82-7.07s-5.73.08-8.25,1.49c-5.34,3-9.46,7.83-12.78,13.08-2.45,3.87-5.38,6.17-4.32,11A61.67,61.67,0,0,0,129.37,78c1.22,1.88.78,4.5,1.1,6.74l1-.12c1.75.79,2.93.1,4.61-.83a10.07,10.07,0,0,0,3.86-4.17"/><path class="cls-4" d="M134.35,84.29l-1.11-12.82s-6.15-3.57-2.16-6.63,4.3,3.82,4.3,3.82,2.56.28,3.09-.42c.35-.47-6.9-13.4-1.68-13.37,3.38,0,1.36-4.77,3.86-5l8-.79a4.34,4.34,0,0,1,4.72,3.73l1.2,8.84,3.27,5.94a1.31,1.31,0,0,1-1,1.93l-1.2.16c.55,4,3.14,7.11,3.15,11.25a2.43,2.43,0,0,1-.28,1.34,2.65,2.65,0,0,1-2.05.89c-3.85.41-7.58.67-11.41,1.19"/><g class="cls-2"><path class="cls-3" d="M133,70.14a.73.73,0,0,1-.29-.06,1.48,1.48,0,0,1-.75-1.18,1.56,1.56,0,0,1,.26-1.32.87.87,0,0,1,.78-.25.62.62,0,0,1,.49.37l-.22.09a.39.39,0,0,0-.31-.23.63.63,0,0,0-.56.18,1.34,1.34,0,0,0-.2,1.12,1.32,1.32,0,0,0,.61,1,.61.61,0,0,0,.6-.11.35.35,0,0,0,.14-.35l.23-.06a.58.58,0,0,1-.22.59A.88.88,0,0,1,133,70.14Z"/></g><g class="cls-2"><polygon class="cls-3" points="147.91 60.19 147.88 59.95 150.29 59.66 150.32 59.89 147.91 60.19"/></g><path class="cls-7" d="M148.57,61.95c0,.13-.12-.11,0-.17a2.3,2.3,0,0,1,3.2,1.73,3.82,3.82,0,0,1-4.42-.15,1.29,1.29,0,0,1-.55-.84,1.06,1.06,0,0,1,.8-1,3.08,3.08,0,0,1,1.38,0"/><path class="cls-5" d="M161.84,85.52l19.15-1c.1,0,1.66,13.79,1.66,13.79s-19,7.16-19.41,7.16c-1.48,0-5-18.07-2.37-19.5C162.66,85,161.7,86,161.84,85.52Z"/><polyline class="cls-5" points="106.34 95.52 95.7 98.91 105.88 106.83 121.71 102.33 107.21 94.97"/><path class="cls-7" d="M133.19,84.25c.16.72,8.87,0,8.87,0v1.7L133.19,87Z"/><path class="cls-8" d="M168.62,178.5s-33.33,6.32-42.83,4.82-8.5,82.15-15.5,92.83-13.41,63.67-8.41,78.17L113,352c2.27-20.29,6.09-58,10.8-66.53,5-9.11,21.23-54.47,26.15-67.56a1.06,1.06,0,0,1,2,.19c1.85,10.24,6.82,37.92,6.82,39.85,0,2.38,1,43.52,1,43.52l2,21.36,8.5-2,4.5-38.5s9-43.79,5-58.64-1-29.86-4.5-34.36A77.6,77.6,0,0,1,168.62,178.5Z"/><path class="cls-9" d="M220.63,179.82a.5.5,0,0,1-.32-.12l-90.09-74.76a.5.5,0,0,1-.07-.7L209.51,6.75a.5.5,0,1,1,.78.63l-79,97.11L221,178.93a.5.5,0,0,1-.32.88Z"/><path class="cls-9" d="M222.25,182.45a12.08,12.08,0,0,1-2.2-.19,3,3,0,0,1,1.13-5.89,5.61,5.61,0,0,0,4-.75,4.3,4.3,0,0,0,1.19-3.37c.05-2.63-.72-6.78-1.61-11.58-1.89-10.14-4.47-24-2.74-39.69,1.08-9.81,6.48-20.57,12.19-32C242,73.42,250.1,57.3,245.42,45.42c-5.36-13.61-20.22-23.3-30.05-29.72-6.15-4-10.22-6.66-11.43-9.56a3,3,0,0,1,5.54-2.31c.59,1.25,5.35,4.35,9.17,6.84,10.47,6.83,26.29,17.15,32.36,32.54,5.66,14.38-3,31.72-11.43,48.48C234.11,102.61,229,112.91,228,121.65c-1.63,14.78.86,28.16,2.67,37.93,1,5.34,1.78,9.56,1.71,12.8-.08,4.32-1.92,6.7-3.44,7.93A10.6,10.6,0,0,1,222.25,182.45Z"/><path class="cls-9" d="M137.42,102.83a.5.5,0,0,1-.15-1l159.2-50.68a.5.5,0,0,1,.3,1l-159.2,50.68Z"/><polygon class="cls-9" points="290.88 45.65 300.88 49.05 295.88 59.77 290.88 45.65"/><polygon class="cls-9" points="284.88 47.65 294.88 51.05 289.88 61.77 284.88 47.65"/><path class="cls-7" d="M206.71,94.64c.33-.82,21.35-16.46,26.67-17.65s3.57,0,3.57,0c-11.19,7.6-21.87,14.73-27,17.32Z"/><path class="cls-7" d="M53.83,118.39a2.26,2.26,0,0,1,1.68-2.26.33.33,0,0,1,.18,0,.34.34,0,0,1,.17.18,2.47,2.47,0,0,1-.06,2.42,1.16,1.16,0,0,1-.86.62,1.53,1.53,0,0,1-1.1-.66.88.88,0,0,1-.31-.62"/><polygon class="cls-7" points="101.88 354.32 101.3 356.4 112.08 354.32 111.16 352.38 101.88 354.32"/><polygon class="cls-7" points="161.79 322.82 161.3 324.58 171.41 323.32 170.29 320.82 161.79 322.82"/><g class="cls-10"><path class="cls-3" d="M119.26,279.69a3.39,3.39,0,0,1-2.67-1.16l.19-.16a3.15,3.15,0,0,0,2.48,1.07h.07a4.31,4.31,0,0,0,3.27-1.58,4.15,4.15,0,0,0-.22-5.44,3.24,3.24,0,0,0-2.94-.67,2.7,2.7,0,0,0-2,1.63,2,2,0,0,0,.43,1.92,1,1,0,0,0,1,.28l.08.24a1.17,1.17,0,0,1-1.26-.34,2.21,2.21,0,0,1-.49-2.18,2.94,2.94,0,0,1,2.16-1.79,3.51,3.51,0,0,1,3.17.73,4.41,4.41,0,0,1,.25,5.78,4.56,4.56,0,0,1-3.46,1.67Z"/></g><g class="cls-10"><path class="cls-3" d="M123.58,208.44a.7.7,0,0,1-.42-.14l-.05,0,0-.95h.25l0,.82a.46.46,0,0,0,.31,0,1.69,1.69,0,0,0,.92-.71,25,25,0,0,0,4.59-14.7,1.2,1.2,0,0,0-.23-.84.42.42,0,0,0-.42-.08.2.2,0,0,0-.15.17l-.25,0a.44.44,0,0,1,.31-.38.67.67,0,0,1,.68.13,1.4,1.4,0,0,1,.3,1,25.26,25.26,0,0,1-4.63,14.84,2,2,0,0,1-1.08.82Z"/></g><g class="cls-10"><path class="cls-3" d="M169.12,201.16c-.87,0-1.66-.67-2.39-2a52.46,52.46,0,0,1-4.82-12.73l.24-.06a52.17,52.17,0,0,0,4.8,12.67c.69,1.28,1.4,1.91,2.17,1.91h.08v.25Z"/></g><g class="cls-10"><path class="cls-3" d="M169.26,193a2,2,0,0,1-.48-.06,3.06,3.06,0,0,1-1.82-1.43,8.63,8.63,0,0,1-.71-1.87,10.33,10.33,0,0,0-.53-1.53l.23-.11a10.63,10.63,0,0,1,.55,1.57,8.49,8.49,0,0,0,.68,1.82,2.81,2.81,0,0,0,1.66,1.31,1.45,1.45,0,0,0,1.17-.16c1.13-.72.68-2.55.31-3.58l-.87-2.4a.36.36,0,0,0-.19-.18.37.37,0,0,0-.21,0,.06.06,0,0,0,0-.06l-.18.18a.22.22,0,0,1,0-.26s.08-.12.27-.11a.68.68,0,0,1,.57.39l.87,2.4c.48,1.34.81,3.1-.41,3.88A1.62,1.62,0,0,1,169.26,193Z"/></g><g class="cls-10"><path class="cls-3" d="M107.53,366a6.38,6.38,0,0,1-3.88-3.61l.23-.09a6.12,6.12,0,0,0,3.72,3.47Z"/></g><g class="cls-10"><path class="cls-3" d="M203.17,93l-.25,0a4,4,0,0,1,5-3.3l-.08.24A3.73,3.73,0,0,0,203.17,93Z"/></g><g class="cls-10"><path class="cls-3" d="M126.15,167.31l-.24-.07a21.88,21.88,0,0,0,0-12.11,1.09,1.09,0,0,0-.36-.64.37.37,0,0,0-.35,0,.18.18,0,0,0-.11.15l-.25,0a.43.43,0,0,1,.25-.36.63.63,0,0,1,.6,0,1.3,1.3,0,0,1,.47.78A22.13,22.13,0,0,1,126.15,167.31Z"/></g><g class="cls-11"><path class="cls-6" d="M225.31,122.15c-1,7.83-.37,15.77.22,23.64a83.43,83.43,0,0,0,1.69,12.8c.56,2.39,2.1,9.92,4.8,10.9-.28-2.64-.85-5.74-1.53-9.37-1.82-9.77-4.31-23.16-2.67-37.93,1-8.74,6.13-19,11.59-29.94,3-5.9,5.94-11.86,8.33-17.75C237.1,89,227.45,104.5,225.31,122.15Z"/></g></svg>