<svg id="Layer_1" data-name="Layer 1" xmlns="http://www.w3.org/2000/svg" viewBox="0 0 413.84 407.48"><defs><style>.cls-1{fill:#fafafa;}.cls-2{opacity:0.32;}.cls-3{fill:#515151;}.cls-4{fill:#ffdfd9;}.cls-5{fill:#ffcbbf;}.cls-6{fill:#90665e;}.cls-7{fill:#7c5752;}.cls-8{fill:#ee4146;}.cls-9{fill:#f76670;}.cls-10{fill:#fff;}.cls-11{fill:none;}.cls-12{fill:#d1f4a8;}.cls-13{fill:#b7ec7f;}</style></defs><title>Sign</title><path class="cls-1" d="M58.91,287a1040.62,1040.62,0,0,1,96.31-175.64c26-38.2,55.4-75.41,94.33-100.34C254,8.13,258.74,5.39,264,4.86s11.13,1.73,13.28,6.55c1.33,3,1.06,6.43.56,9.66-2.57,16.68-10.31,32-16.36,47.77s-10.49,33.08-6.15,49.38c1.13,4.24,3,8.5,6.38,11.24,5.68,4.56,13.91,3.69,21,1.93,28.64-7.15,54.46-25,83.88-27.38,11.82-.94,26.38,2.78,29.46,14.24,1.17,4.35.36,9-1,13.29-3.28,10.58-9.59,19.93-16.31,28.73C360.57,184.09,338.9,205,317,225.42q-51.38,48.06-104.88,93.78c-27.11,23.17-57.58,47-93.24,47.86-31.34.72-60.24-16.83-84-37.25-3.16-2.71-8.82-8.92-3.85-12.88,2.66-2.12,6.6-.56,9.82-2.5C50.06,308.87,54.89,296.32,58.91,287Z"/><g class="cls-2"><path class="cls-3" d="M168.44,385.87a380.23,380.23,0,0,1-39.56-2.33c-47.7-5-95-15.47-136.74-24.72L-22,355.66l-3.9-.87.05-.25,3.9.87,14.17,3.15c41.73,9.25,89,19.74,136.71,24.72,43,4.49,66,1.59,81.15-1.44,8.35-1.66,16.7-4,24.78-6.22,4.58-1.27,9.31-2.58,14-3.76a265.58,265.58,0,0,1,67.11-8.4,233.41,233.41,0,0,1,78.71,14.39l-.09.24a233.15,233.15,0,0,0-78.63-14.38h-2.11a266.38,266.38,0,0,0-64.93,8.4c-4.68,1.18-9.41,2.49-14,3.76-8.08,2.24-16.43,4.56-24.8,6.22A214.06,214.06,0,0,1,168.44,385.87Z"/></g><path class="cls-4" d="M302.67,332S285.76,311,283,308.27s0-32.45,0-32.45S235.5,253,233.67,252.07s-42.5-11.88-42.5-11.88c-1.83.46-23.31.46-38.39,2.28s-58.95,62.61-76.31,72.66S45.4,359,45.4,359H35.34c.91-37.47,30.16-83.63,43-87.28a29.64,29.64,0,0,0,17.82-14.17c17.36-47.07,41.58-59.41,44.78-62.83s16-10.28,16-10.28c12.8,16,61.23,20.56,61.23,20.56l6.85-2.74c-1.58,1.87-1,6.89,40.67,28.33,41,21.14,54.38,78.6,55.75,81.34s5,60.78,5,60.78c1.6,3.63,4.74,5.67,8.59,6.62l17.27,4.26a15.52,15.52,0,0,1,5.61,2.19,5.28,5.28,0,0,1,2.3,5.24,5.53,5.53,0,0,1-1.81,2.72c-3.15,2.78-7.69,3.16-11.88,3.4l-24.88,1.42a2.41,2.41,0,0,1-1.49-.24,2.31,2.31,0,0,1-.74-1.08c-4.94-11.63-2-25.25-5.9-37.27"/><path class="cls-4" d="M137,198.64s42-48.9,59.86-52.09c0,0,26-13.71,32.9,0S247.53,179,247.53,179s-19.95,35.91-40.1,39.88-66-3.08-66.77-10.2S137,198.64,137,198.64Z"/><path class="cls-5" d="M264.62,108.21s2.87-12.37,18.55-10.83S298,97.22,298,97.22s-18.92,16.22-30,15.28Z"/><path class="cls-6" d="M226.36,206.5c-61.69,9.6-85.45-11.78-85.45-11.78-5.39-1.05-35.27,26-44.78,62.83-.57,2.19-13.8,7-14.62,10.18s-13.25-5.48-28.33,24.68-21.48,54.84-20.11,54.38,17.82,10.05,18.74,8.68,58.95-70.37,60.78-72.2,68.09-38.84,68.32-39.76,14.38-2.22,14.38-2.22l38.4,10.77L283,275.83s-1.17,27.5-1,28.92S302.67,332,302.67,332l6.73,35.79s24.34-11.46,23-10.31-5.94-43.18-5.94-47.29-19.19-65.35-56.21-80S226.36,206.5,226.36,206.5Z"/><path class="cls-7" d="M228.84,208.86s62.78,42.92,69.29,62.58,27.25,34.21,27.25,34.21-10.64-33.48-23.63-48.4-22.11-25.56-36.09-28.67S228.84,208.86,228.84,208.86Z"/><path class="cls-4" d="M121.71,140.56s55.75,2.74,59.18,1.83,23.08-14.17,25.36-16,11.42-22.85,28.79-14.17,17.82,17.82,17.82,17.82L273,180.78s-.46,21.48-3.2,31.07-14.62,69.46-14.62,69.46l-26,43.41-11-8.68s16-35.19,16-37.93,9.14-51.18,9.14-51.18c10-39.4-13.11-61-32.45-84.54L175.63,166s-57.58-10.39-58-11.76S121.71,140.56,121.71,140.56Z"/><path class="cls-8" d="M302.18,78.11c2.64-3,5-6.5,5.64-10.45s-.7-8.45-4.11-10.57-8.76-.78-10,3c-1.57-2.71-.39-6.38,2-8.41S301.35,49,304.47,49c3.46-.07,7.07.55,9.83,2.62,3.85,2.89,5.31,8.06,5.27,12.88a28.67,28.67,0,0,1-13,23.51c-4.54,2.91-9.79,4.45-14.7,6.66s-9.75,5.37-12.06,10.24c1.23-2.59-.19-7.86,1-11.06,1-2.59,1.89-3.87,4.28-5.17C291.54,85.16,297.07,84,302.18,78.11Z"/><path class="cls-4" d="M121.71,140.56s-11.88-11.37-14.62-11.83-16.45-2.34-16.91,1.78-5,18.28,0,19.65,21,0,21,0,11.31,5.58,10.05,5.27S121.71,140.56,121.71,140.56Z"/><path class="cls-4" d="M225,312.06c.54.14-6.19,2-5.81,1.56-.19,1-2.26,5.34-2.59,6.25-1.35,3.78-4.78,6.36-8,8.71l-15.49,11.16c-2.32,1.67-4.9,3.9-4.6,6.74a8.22,8.22,0,0,0,1.76,3.7l2.84,4.05a7.46,7.46,0,0,0,3.21,3,6.47,6.47,0,0,0,3.26.1c7.72-1.26,14.51-6.18,19.29-12.37s7.74-13.6,10-21.09C224.74,320.21,230.53,312.61,225,312.06Z"/><path class="cls-9" d="M314.83,73.36c1.49-5.08-.54-10.45-2.55-15.34-.4-1-1-2.1-2-2.32-1.3-.27-2.34,1-3,2.17l-.92,1.52a11.28,11.28,0,0,1,2.05,8.72c-.66,4-3,7.43-5.64,10.45-5.11,5.86-10.64,7.06-17,10.54-2.39,1.3-3.31,2.59-4.28,5.17a11.5,11.5,0,0,0-.52,3.88c2.26-1.91,4.64-4.54,6.67-5.29,1.8-.67,3.7-1,5.53-1.65,4.08-1.35,7.67-3.84,11.2-6.29C308.67,81.9,313.33,78.47,314.83,73.36Z"/><path class="cls-10" d="M137,192c.09,1.22,19.69,29.49,51.48,25.41s24.78-6.52,30-5.91,10.4-2.66,10.4-2.66L269,170.66l-17.57-52-12.12-4.52-69.72,50.79Z"/><path class="cls-4" d="M241.81,132.9c0,2.64-2.58,4.89-2.21,7.51.22,1.53,1.38,2.72,2.49,3.79q7.71,7.43,15.93,14.3a71.48,71.48,0,0,1,12.44-19.87c.53-.6,1.44-1.21,2-.67-.61-1.22-3.49-1.81-4.84-2-4.2-.55-7.83-3.2-11.9-4.39s-8.63-.87-13-.5a4.24,4.24,0,0,0-2.28.64C239.87,132.22,241.24,132.34,241.81,132.9Z"/><line class="cls-4" x1="202.98" y1="128.73" x2="205.95" y2="140.45"/><path class="cls-6" d="M281.68,101.47a1.77,1.77,0,0,0,.57,1.8c2.9-2.51,6-5.28,6.76-9s-2.08-8.41-5.86-7.81c-1.09.18-2.79.32-2.76-.79a1.83,1.83,0,0,1,.46-.94c2.34-3.31.3-8.32-3.26-10.26s-7.95-1.51-11.85-.39c-8.24,2.37-15.33,7.51-21.45,13.39-4.5,4.34-9.22,6.5-9.14,13.07.1,8.66,2.54,18.9,5.83,26.93,1.14,2.78-.22,6.07-.42,9.07l1.4.13"/><path class="cls-4" d="M262.41,141.45c5.12.39,10,1.08,15.17,1.61a3.53,3.53,0,0,0,2.91-.58,3.23,3.23,0,0,0,.74-1.66c1.13-5.39-1.39-10.14-1-15.5l1.61.12a1.74,1.74,0,0,0,1.8-2.24L281,114.56l.88-11.82a5.77,5.77,0,0,0-5.11-6.16l-10.61-1.18c-3.31-.37-2,6.41-6.4,5.45-6.78-1.48-.92,17.34-1.51,17.85-.89.77-4.13-.31-4.13-.31s1.5-9-4.53-6.16,1,9.22,1,9.22-8.06,7.72-8.94,8.48l-1.07,6.58Z"/><polygon class="cls-5" points="267.71 141.95 251.89 139.07 264.32 146.66 267.71 141.95"/><path class="cls-8" d="M226.46,89.1c-8.64-9.55-11.6-23.72-8.07-36.1s13.28-22.69,25.23-27.47a28.69,28.69,0,0,1,14.45-2.22c4.88.68,9.63,3.28,12.16,7.52,3.88,6.5,1.45,15.51-4.27,20.47-3.71,3.22-9.54,4.9-13.48,2a9.8,9.8,0,0,0-2.56-18.67,12.93,12.93,0,0,0-7.11,1.23,20.45,20.45,0,0,0-11.39,15.85,24.08,24.08,0,0,0,6.11,18.8c3.17,3.54,7.25,6.16,10.59,9.54s6,8,5.26,12.69C250.93,107.77,231.46,94.62,226.46,89.1Z"/><path class="cls-11" d="M312.6,374.17l-1.16,4.62"/><path class="cls-4" d="M22.2,389.1a23.73,23.73,0,0,0,1,7.23c1.59,5,7.9,6.64,13.17,6.61a50.64,50.64,0,0,0,8.37-.74,3.9,3.9,0,0,0,2.3-1A3.54,3.54,0,0,0,47.8,399c.27-4.69-1.83-9.14-2.93-13.7-1.8-7.49-.44-15,.59-22.46,1-7-2.75-8.56-9.25-4.75a13.06,13.06,0,0,0-6.13,8.62c-.58,2.94-.18,6.19-1.76,8.73a25.17,25.17,0,0,1-2.72,3.1C23.23,381.23,22.23,385.19,22.2,389.1Z"/><g class="cls-2"><path class="cls-3" d="M211.15,127l-.25,0c.48-3.08,1-6.57,3-9.3a10.83,10.83,0,0,1,13.59-2.93l-.12.22a10.57,10.57,0,0,0-13.26,2.86C212.16,120.5,211.62,124,211.15,127Z"/></g><g class="cls-2"><path class="cls-3" d="M225,324.4a13.42,13.42,0,0,1-6.74-7.65l.24-.08a13.16,13.16,0,0,0,6.61,7.51Z"/></g><g class="cls-2"><path class="cls-3" d="M253.91,166.53l-12-11.11a26.42,26.42,0,0,1-4.93-5.52c-3-5-2.42-11.27-1.47-17.75l.25,0c-.95,6.43-1.55,12.61,1.44,17.58a26.25,26.25,0,0,0,4.89,5.47l12,11.11Z"/></g><g class="cls-2"><path class="cls-3" d="M173.79,145.92c-13.17-1.1-26.54-1.59-39.74-1.46v-.25c13.2-.12,26.59.37,39.76,1.46Z"/></g><g class="cls-2"><path class="cls-3" d="M324.28,394.19a6.17,6.17,0,0,1-3.07-.72,4.08,4.08,0,0,1-1.92-2.67,2.8,2.8,0,0,1,.47-2.3l.2.15a2.56,2.56,0,0,0-.42,2.1,3.82,3.82,0,0,0,1.8,2.5c1.74,1,3.93.71,5.42.41l1.21-.26a16.14,16.14,0,0,1,4-.56v0l.44,0,0,.25a14.72,14.72,0,0,0-4.32.53l-1.22.26A13,13,0,0,1,324.28,394.19Z"/></g><g class="cls-2"><path class="cls-3" d="M33,396.26l-.05-.25,7.66-1.69a1.75,1.75,0,0,0,1.23-.66,1.7,1.7,0,0,0,.08-1l-1.52-12.05-.36.56-.21-.14.74-1.14,0,.34,1.56,12.4a1.5,1.5,0,0,1-1.51,2Z"/></g><path class="cls-9" d="M253.29,95.48a13.48,13.48,0,0,0,.43-1.81c.77-4.69-1.92-9.31-5.26-12.69s-7.42-6-10.59-9.54a24.08,24.08,0,0,1-6.11-18.8,20.38,20.38,0,0,1,.76-3.43l-.21,0a3.77,3.77,0,0,0-1.57,1.1c-4.42,4.66-4.48,12.2-1.87,18.07s7.38,10.45,12,14.88C244.51,86.74,248.83,92.37,253.29,95.48Z"/><path class="cls-9" d="M270.78,32.37A16.77,16.77,0,0,1,269,37.81c-2,3.6-5.43,6.15-8.86,8.42a16.51,16.51,0,0,1-2.42,1.16,10,10,0,0,1-5.34,6.07c3.93,2.94,9.77,1.26,13.48-2C271.15,46.86,273.61,38.72,270.78,32.37Z"/><g class="cls-2"><path class="cls-3" d="M168.34,210.73a6.33,6.33,0,0,1-3.5-1.61L149.7,196.87c-1.27-1-2.62-2.25-2.63-3.89s1.14-2.71,2.22-3.71c2.11-2,4.62-4.1,7.63-4.61.45-.08.91-.12,1.35-.15a7.36,7.36,0,0,0,5.45-2.5l6.74-5.82.16.19-6.74,5.82a7.58,7.58,0,0,1-5.59,2.56c-.44,0-.89.08-1.33.15-2.94.5-5.42,2.61-7.5,4.54-1,1-2.15,2.12-2.14,3.53s1.31,2.71,2.53,3.7L165,208.92c1.13.91,3.21,2.26,4.59,1.11l.16.19A2.14,2.14,0,0,1,168.34,210.73Z"/></g><path class="cls-3" d="M277.5,108.44a25.5,25.5,0,0,0-6.35-.54v-.25a26.08,26.08,0,0,1,6.41.54Z"/><path class="cls-5" d="M275.13,111.44a2.38,2.38,0,1,0-1.31,4.3,4.7,4.7,0,0,0,2-.75,2.72,2.72,0,0,0,1.38-1.3,1.75,1.75,0,0,0-.82-2,3.49,3.49,0,0,0-2.21-.39"/><path class="cls-12" d="M114.56,173.72c-4.29-1.15-8.68-2.46-12.11-5.29a37.29,37.29,0,0,1-5.17-5.75,140,140,0,0,0-23.17-23c-2.4-1.88-4.93-3.77-6.33-6.47a29.5,29.5,0,0,0,13.45-5.31c2.68-1.93,5.4-4.44,8.69-4.25.54,1.69,1.8,2.48,3.15,3.62a39.72,39.72,0,0,1,4.45,5c2.64,3.14,5.82,5.78,8.48,8.91,2.09,2.46,3.85,5.21,6.28,7.32a30.75,30.75,0,0,0,7.28,4.34q2.73,1.28,5.5,2.46a3.61,3.61,0,0,1,1.7,1.16,3.13,3.13,0,0,1,.4,1.13,12.42,12.42,0,0,1-2,9.58c-1.81,2.5-4.51,4.16-7.14,5.77C116.5,173.89,116.25,174.17,114.56,173.72Z"/><path class="cls-13" d="M114.56,171.83c-4.29-1.15-8.68-2.46-12.11-5.29a37.29,37.29,0,0,1-5.17-5.75,140,140,0,0,0-23.17-23c-2.4-1.88-4.93-3.77-6.33-6.47A29.5,29.5,0,0,0,81.23,126c2.68-1.93,5.4-4.44,8.69-4.25.54,1.69,1.8,2.48,3.15,3.62a39.72,39.72,0,0,1,4.45,5c2.64,3.14,5.82,5.78,8.48,8.91,2.09,2.46,3.85,5.21,6.28,7.32a30.75,30.75,0,0,0,7.28,4.34q2.73,1.28,5.5,2.46a3.61,3.61,0,0,1,1.7,1.16,3.13,3.13,0,0,1,.4,1.13,12.42,12.42,0,0,1-2,9.58c-1.81,2.5-4.51,4.16-7.14,5.77C116.5,172,116.25,172.28,114.56,171.83Z"/><g class="cls-2"><path class="cls-3" d="M71.72,132.58l-.06,0c.33-1,1.76-1.06,2.62-1.09a11.5,11.5,0,0,0,8.1-3.84c.37-.42.72-.89,1.06-1.33a8.82,8.82,0,0,1,3.17-3l0,.06a8.76,8.76,0,0,0-3.14,3c-.34.45-.69.91-1.07,1.34a11.56,11.56,0,0,1-8.14,3.86C73.15,131.57,72,131.69,71.72,132.58Z"/></g><g class="cls-2"><path class="cls-3" d="M116.35,169.56a3.07,3.07,0,0,1-1.61-.43l-.3-.2a1.8,1.8,0,0,0-1-.42h-.07v-.06h.07a1.83,1.83,0,0,1,1,.44l.29.2a3.43,3.43,0,0,0,2.81.21,7.56,7.56,0,0,0,2.48-1.53,18.51,18.51,0,0,0,5.07-7.08,5.25,5.25,0,0,0,.48-2.23h.06a5.29,5.29,0,0,1-.49,2.26,18.56,18.56,0,0,1-5.09,7.11,7.62,7.62,0,0,1-2.5,1.54A4,4,0,0,1,116.35,169.56Z"/></g><path class="cls-12" d="M92.67,147.2a5.47,5.47,0,0,0,10.07.38,4.9,4.9,0,0,0,.47-1.92,5.12,5.12,0,0,0-3.44-4.74C95.59,139.42,90.91,142.55,92.67,147.2Z"/><g class="cls-2"><path class="cls-3" d="M90.91,140.84a5.68,5.68,0,0,1-1.49-2.29l.06,0A5.61,5.61,0,0,0,91,140.79Z"/></g><g class="cls-2"><path class="cls-3" d="M94.67,139.62A7.38,7.38,0,0,1,91.8,137l-.85-1.11,0,0,.85,1.11a7.35,7.35,0,0,0,2.84,2.57Z"/></g><g class="cls-2"><path class="cls-3" d="M106,154.25a6,6,0,0,1-2.75-2c0-.05-.09-.14-.05-.21a.09.09,0,0,1,.08,0h0a.1.1,0,0,1,.09,0,.06.06,0,0,1,0,.07l0,0h-.06s0,.08,0,.15a5.9,5.9,0,0,0,2.72,2Z"/></g><g class="cls-2"><path class="cls-3" d="M108.44,152.62c-1.37-1.06-2.79-2.12-4.21-3.15l0-.05c1.42,1,2.84,2.08,4.21,3.15Z"/></g><polygon class="cls-5" points="243.73 194.69 271.97 178.25 268.96 170.66 243.73 194.69"/><path class="cls-5" d="M255.15,281.31l4.14-47.85a5.43,5.43,0,0,1,6.37-4.88h0S257.58,277.26,255.15,281.31Z"/><polygon class="cls-5" points="314.88 365.58 314.88 370.21 325.97 365.58 325.85 360.21 314.88 365.58"/><polygon class="cls-5" points="35.78 352.46 46.02 357.52 47.56 354.09 35.78 347.81 35.78 352.46"/><path class="cls-5" d="M239.27,102.46s-4.75-11.77-20-7.83-14.68,2.13-14.68,2.13,21.2,13.1,32,10.45Z"/><g class="cls-2"><path class="cls-3" d="M270.25,106.76l-.23-.1c1-2.34,3.62-3.83,7.68-4.42l1.42-.19c2.35-.3,4.78-.61,6.72-1.86l-.19,0,0-.25,1.31-.26-.43.33c-2.07,1.58-4.74,1.92-7.33,2.25l-1.42.19C273.76,103.07,271.24,104.5,270.25,106.76Z"/></g><g class="cls-2"><path class="cls-3" d="M235.94,102.72a.28.28,0,0,1-.27-.16.18.18,0,0,1,.07-.21l.15.21a.07.07,0,0,0,0-.05.07.07,0,0,0,0,0h0c0-.09-.17-.18-.23-.2l-5.19-2.58a21.19,21.19,0,0,0-3.66-1.54,10.65,10.65,0,0,0-8.52,1.28l-.14-.21a10.91,10.91,0,0,1,8.72-1.31,21.45,21.45,0,0,1,3.7,1.56l5.19,2.58c.35.17.39.37.36.5a.22.22,0,0,1-.21.18Z"/></g></svg>