<svg id="Layer_1" data-name="Layer 1" xmlns="http://www.w3.org/2000/svg" viewBox="0 0 384.27 340.67"><defs><style>.cls-1{fill:#fafafa;}.cls-2{fill:#fff;}.cls-3{opacity:0.32;}.cls-4{fill:#515151;}.cls-5{fill:#f1f4ed;}.cls-6{fill:#ffdfd9;}.cls-7{fill:#90665e;}.cls-8{fill:#ffcbbf;}.cls-9{fill:#96c65d;}.cls-10{fill:#b7ec7f;}.cls-11{fill:#ee4146;}.cls-12{fill:#9e80bb;}.cls-13{fill:#876aaa;}.cls-14{fill:#5f4682;}.cls-15{fill:none;}</style></defs><title>Sign</title><path class="cls-1" d="M61,251.93c-4.6-2.45-8.49-6.05-12.09-9.82-14-14.65-25-34.12-22.82-54.27s17-36.73,34.12-47.38,36.67-16.53,55.25-24.34c47.09-19.78,87.74-51.83,129.63-81,15-10.45,30.52-20.73,48.08-25.77a89.5,89.5,0,0,1,44.91-1.1c17.12,4,34.19,14.75,39.1,31.63,5.52,19-5.85,38.75-19.15,53.38s-29.44,27.7-36.72,46.08a57.37,57.37,0,0,0,4.27,50.15c5.34,8.78,13.12,16.17,16.69,25.81,3.84,10.36,2.22,22.19-2.59,32.14s-12.56,18.19-21,25.31c-20.23,17.08-45.31,28.58-71.6,31.71s-53.69-2.29-76.27-16.11c-19.07-11.67-34.65-29-55.25-37.71-12.48-5.25-26.17-7-39.71-7.24-6.09-.11-12.44.15-17.84,3s-9.53,8.93-8.22,14.88"/><path class="cls-2" d="M211.37,98c-12.14-8.68-26.43-13.84-40.76-18-12.31-3.6-27.5-5.85-36.31,3.47-6.3,6.67-6.74,16.79-6.82,26-.36,42.61-.71,85.34,3.76,127.72.49,4.68,2.07,10.49,6.72,11.22,5.08.79,8.27-5.19,9.83-10.08l20.57-64.37c.6-1.89,1.41-4,3.25-4.75,1.42-.57,3-.13,4.56-.37,4-.64,5.63-5.41,5.83-9.41s-.12-8.49,2.55-11.46c1.89,2.28,5.86.92,7.47-1.57s1.83-5.61,2.92-8.37c2.31-5.88,8.15-9.42,13.29-13.1s10.31-8.8,10.07-15.11"/><g class="cls-3"><path class="cls-4" d="M203.56,98c-.45-.19-44.86-18.81-54.75-12.94l-.14-.24c4.21-2.5,14.75-1.09,31.32,4.21,12.32,3.94,23.56,8.66,23.67,8.71Z"/></g><g class="cls-3"><path class="cls-5" d="M145.3,221.68A32.28,32.28,0,0,1,142.83,234a2.88,2.88,0,0,1-1.5,1.81c-1.24.4-2.35-.88-2.94-2.05-3.32-6.6-3-14.4-2.1-21.73s2.48-14.73,1.42-22"/></g><path class="cls-6" d="M177,89.41a1,1,0,0,1,.31,1,99.81,99.81,0,0,1-2.48-18.26,3,3,0,0,0-.64-2.12c5.49.77,11.61,1.11,16.94,2.59a1.17,1.17,0,0,1,1.09,1.11l3.26,15.93a1.84,1.84,0,0,1,0,1.21c-.27.52-.95.65-1.53.72l-4.53.55a26.49,26.49,0,0,1-7.24.22C179.79,92,178.38,91.42,177,89.41Z"/><path class="cls-7" d="M173.5,27.87c-4.25.91-7.66,4.5-9.73,8.13-2.46,4.33-2.81,9-3.62,13.85A103.84,103.84,0,0,0,158.7,68c0,2.39.15,4.9,1.38,6.95A9.39,9.39,0,0,0,166.93,79a21.36,21.36,0,0,0,8.17-.82"/><path class="cls-8" d="M175.64,81.69q-.13-.63-.27-1.25c.78.7,1.43.41,2.42.28l3.6-.49,8.56-1.17c1.19-.16,1.81-1.53,3-1.69l.78,3.59c-3.58.74-6.56,1.72-14.31,4a6.13,6.13,0,0,1-1.63.14,11.68,11.68,0,0,1-1.62-.35Q175.94,83.19,175.64,81.69Z"/><path class="cls-6" d="M203.42,71.26S182.1,86.9,175.71,80.5l-1.06-1.09a28.2,28.2,0,0,1-7.71-20.78l1-20.06s1.42-10.66,7.11-10c0,0,4.26-.71,11.37,17.06C186.37,45.68,188.5,49.23,203.42,71.26Z"/><path class="cls-8" d="M170.82,29.22s8.8,14.31,14.31,16.51,9.26,17.61,9.26,17.61,7.24-13.21,1.74-20.91A144.51,144.51,0,0,0,182.92,27Z"/><path class="cls-7" d="M209.42,77c.49-.21.95-.43,1.37-.64,4.37-2.13,8.22-5.18,12-8.2a12.68,12.68,0,0,0,3.77-4c2.7-5.46-2.35-18.45-4.72-23.59-4.17-9-8.46-19.6-19.47-22,0,0-25.59-5.68-33.4,12.08,0-1.54,6.41,1.15,6.72,1.38a15.42,15.42,0,0,1,5.16,6.51c1.17,2.73,3.82,4.72,5.89,6.81a18.07,18.07,0,0,0,4,3.32,15.5,15.5,0,0,1,2.84,1.59c1.64,1.41,1.92,3.84,1.74,6-.39,4.69-2.82,9.47-2.3,14.22.34,3.1,1.17,7.29,4.5,8.47S205.92,78.53,209.42,77Z"/><g class="cls-3"><path class="cls-4" d="M178.17,43.92a81.09,81.09,0,0,1-16.7-1.74l.06-.27c.3.07,29.81,6.86,45.84-7.23l.18.21c-8.44,7.42-20.52,9-29.18,9Z"/></g><path class="cls-9" d="M206.06,35.05A8.27,8.27,0,0,1,209,29.23a5,5,0,0,1-.43,3.8,14.74,14.74,0,0,1-2.36,3.13,8.29,8.29,0,0,0,2.95-2,4,4,0,0,1,3.26-1.24c.48,1.42-.67,3-2.08,3.48a8.61,8.61,0,0,1-4.44,0"/><path class="cls-9" d="M194.57,41.25a8.27,8.27,0,0,1,4.51-4.7,5,5,0,0,1-1.53,3.5,14.74,14.74,0,0,1-3.18,2.29,8.29,8.29,0,0,0,3.42-1.08,4,4,0,0,1,3.48-.22c0,1.5-1.52,2.65-3,2.71A8.61,8.61,0,0,1,194,42.42"/><path class="cls-9" d="M181.81,42.58a8.27,8.27,0,0,1,5.83-2.91A5,5,0,0,1,185,42.45a14.74,14.74,0,0,1-3.76,1.09,8.29,8.29,0,0,0,3.58.13,4,4,0,0,1,3.35,1c-.46,1.43-2.32,2-3.75,1.54a8.61,8.61,0,0,1-3.54-2.68"/><path class="cls-9" d="M169,42.13a8.27,8.27,0,0,1,5.24-3.87,5,5,0,0,1-2.1,3.19,14.74,14.74,0,0,1-3.52,1.72,8.29,8.29,0,0,0,3.55-.49,4,4,0,0,1,3.46.37c-.21,1.48-1.94,2.35-3.43,2.16a8.61,8.61,0,0,1-4-2"/><path class="cls-10" d="M233.17,288.31c.42-.47-2.13-5.07,2-10.08S232.75,288.78,233.17,288.31Z"/><path class="cls-10" d="M233.43,288.28c.53-.35,4.69,2.87,10.26-.4S232.9,288.63,233.43,288.28Z"/><path class="cls-10" d="M226.15,296.35c.42-.47-2.13-5.07,2-10.08S225.73,296.82,226.15,296.35Z"/><path class="cls-10" d="M226.41,296.32c.53-.35,4.69,2.87,10.26-.4S225.88,296.67,226.41,296.32Z"/><path class="cls-11" d="M275.14,268.71a14.28,14.28,0,0,1-2.12,5.54,7.16,7.16,0,0,1,5.24,2.77q-2.91.57-5.85.88a8.44,8.44,0,0,1,4,4.68c.11.31.18.7-.06.93a.94.94,0,0,1-.88.08c-3.91-1-9.13-3.93-8.52-8.84.21-1.68,1.59-3.17,2.84-4.2C270.18,270.23,275.28,267.82,275.14,268.71Z"/><path class="cls-10" d="M259.22,276.33c.57-.31,4.55,3.28,10.46.37S258.66,276.64,259.22,276.33Z"/><path class="cls-10" d="M258.72,277.23c.63.15,3.49-4.39,10-3.21S258.09,277.08,258.72,277.23Z"/><path class="cls-11" d="M245.39,263.39a14.28,14.28,0,0,1,3.12,5,7.16,7.16,0,0,1,5.38-2.48q-1.31,2.66-2.85,5.19a8.44,8.44,0,0,1,6.15-.35c.31.1.66.28.7.61s-.23.56-.47.75c-3.14,2.52-8.66,4.88-12.2,1.41-1.21-1.18-1.56-3.19-1.62-4.8C243.59,268.25,244.77,262.74,245.39,263.39Z"/><path class="cls-10" d="M241.8,280.67c.1-.64,5.37-1.63,6.65-8.09S241.7,281.31,241.8,280.67Z"/><path class="cls-10" d="M242.2,281.62c.5-.41-1.38-5.44,3.5-9.87S241.71,282,242.2,281.62Z"/><g class="cls-3"><path class="cls-4" d="M180.08,334.74l-.12-.25a121.25,121.25,0,0,0,38.73-29.79c1.54-1.78,3.05-3.65,4.52-5.46,4.75-5.85,9.66-11.89,16-16.11A37.8,37.8,0,0,1,263.44,277l0,.27a37.58,37.58,0,0,0-24.06,6.11c-6.31,4.19-11.2,10.22-15.94,16.06-1.47,1.81-3,3.68-4.52,5.47A121.53,121.53,0,0,1,180.08,334.74Z"/></g><g class="cls-3"><path class="cls-4" d="M213.8,274.62l-.27,0c2.27-24.38-6.85-50.25-24.4-69.2a102.51,102.51,0,0,0-30.19-22.28,113.7,113.7,0,0,0-36.1-10.77c-24.16-3-49.62,1.23-73.62,12.33l-.12-.25c24-11.12,49.55-15.39,73.77-12.36a114,114,0,0,1,36.19,10.79,102.79,102.79,0,0,1,30.27,22.34C206.93,224.21,216.07,250.16,213.8,274.62Z"/></g><path class="cls-10" d="M60,242.58c-7.11-5.42-14.94-10.32-23.73-12-10-1.86-20.36.68-30.49-.38,3.72,7.37,8.41,14.46,15,19.4s15.43,7.44,23.33,5c.74.35,2-1.06,2.68-1.49a30.47,30.47,0,0,0,6.71-5.37c2-2.24,3.93-5.06,6.9-5.69C60.26,242.21,60.14,242.48,60,242.58Z"/><path class="cls-9" d="M30,220c-5.18-11.22-6.6-23.94-5.51-36.25.74-8.45,2.62-16.85,3.63-25.26a2.73,2.73,0,0,1,5.27-.67c4.71,12.41,10.6,24.41,15.3,36.85A129.34,129.34,0,0,1,55.31,218c.87,5,3.88,17.54.22,21.79C47.35,249.27,32.53,225.57,30,220Z"/><path class="cls-10" d="M53,208.63c3.75-17.37,14.55-32.25,25.1-46.56a60.37,60.37,0,0,1,5.28,47.45c-3,9.58-11.37,26.37-21.59,30.23C48.24,244.85,51.53,215.26,53,208.63Z"/><path class="cls-6" d="M123.42,246.24s-6.53,4.16-25.23,16.27-47.32,20.91-58.32,4.4,60.52-55,60.52-55l37.42-39.62,47.32,14.31c0,2.2,14.31,33,2.2,57.22S126.8,297.73,118,299.93s-18.71,5.5-27.51-2.2,9.9-36.31,26.41-47.32S140,238.3,140,238.3"/><g class="cls-3"><path class="cls-4" d="M173.36,51.14c-2.88-1.32-4.56,0-4.58,0l-.17-.21c.07-.06,1.82-1.41,4.87,0Z"/></g><g class="cls-3"><path class="cls-4" d="M188.26,51.75c-2.88-1.32-4.56,0-4.58,0l-.17-.21c.07-.06,1.82-1.41,4.87,0Z"/></g><path class="cls-8" d="M172.2,53.32a2.61,2.61,0,1,0-1.43,4.7A5.14,5.14,0,0,0,173,57.2a3,3,0,0,0,1.51-1.42,1.92,1.92,0,0,0-.89-2.14,3.82,3.82,0,0,0-2.42-.42"/><path class="cls-8" d="M186.83,53.32A2.61,2.61,0,1,0,185.4,58a5.14,5.14,0,0,0,2.23-.82,3,3,0,0,0,1.51-1.42,1.92,1.92,0,0,0-.89-2.14,3.82,3.82,0,0,0-2.42-.42"/><path class="cls-2" d="M204.07,99.15c11.34-9.71,25.12-16.09,39-21.51,12-4.66,26.89-8.22,36.48.3,6.86,6.09,8.18,16.14,9.05,25.27,4.07,42.42,8.14,85,7.38,127.56-.08,4.71-1.15,10.63-5.72,11.76-5,1.23-8.69-4.45-10.67-9.19L253.53,171c-.77-1.83-1.75-3.87-3.65-4.45-1.47-.45-3,.14-4.57,0-4-.29-6.08-4.9-6.63-8.87s-.62-8.46-3.54-11.2c-1.69,2.44-5.76,1.42-7.58-.91s-2.31-5.43-3.64-8.08c-2.81-5.65-8.94-8.67-14.38-11.89s-11-7.87-11.35-14.18"/><path class="cls-6" d="M181.59,193.08l.23.1s16.51-22,16.51-38.52,3.3-26.41,3.3-26.41q3.84-6.29,7.89-12.45c2-3,4-6,6.14-8.89a14.68,14.68,0,0,1,1.46-1.88c.57-.54,1.45-.72,2-1.24,1.55-1.55-.64-2.42-2.15-2.59-2.47-.28-5-.93-6.83-2.64-2.52-2.38-3.39-6.62-6.67-7.75a14,14,0,0,0-2.11-.43c-1.36-.25-3.12-1.52-4.38-1.5a18.38,18.38,0,0,0-2.08.74,24.74,24.74,0,0,1-5.89.25c-3.7-.14-7.38-.81-11.08-.89-10.6-.23-20.63-1.9-31.23.06a17.09,17.09,0,0,0-6.11,2c-1.82,1.15-1.95,2.17-2.75,4.18-2.2,5.5,0,11,0,16.51s3.3,28.61,4.4,38.52-4.4,23.11-4.4,23.11L167,186.52c2.83,1.27,5.91,2.11,8.49,3.82,7,4.61,7.36,3.52,8-3.37.93-10,10.8-16,15.93-24.6a70.87,70.87,0,0,0,6.44-13.67c1.32-4.06,2.23-8.42,1.32-12.59s-4-8.1-8.25-8.81"/><path class="cls-6" d="M199.43,115.05c0-1.1,9.9-26.41,20.91-13.21s5.5,67.13,5.5,71.53-2.2,15.41,0,15.41,8.8,15.41,8.8,19.81-2.2,64.93-2.2,64.93h-7.7S209.33,204.19,209.33,202s-3.3-28.61-2.2-30.81S199.43,115.05,199.43,115.05Z"/><path class="cls-6" d="M222,281.3A16.59,16.59,0,0,0,224.81,295a1.34,1.34,0,0,0,2.41-.75l.14-4.27a1.72,1.72,0,0,1,1.92-2.1c5.33-.41,10.9-.78,15.83,1.29,2.3,1,4.87,2.45,7.08,1.3a6.88,6.88,0,0,0,2.56-3.11,3.27,3.27,0,0,0-1.19-5.23c-4.09-2.92-8.22-5.9-12.82-8-3.37-1.52-7.42-4.7-11.19-4.52C222.46,270,223.36,276.07,222,281.3Z"/><path class="cls-8" d="M211,111.38c2.32-1.93,4.93-3.5,7.17-5.52,1-.95,2.07-2.14,2-3.55,0-.85-.65-1.8-1.49-1.68a2.06,2.06,0,0,0-.81.37c-4.5,3-9.19,6.11-11.64,10.89-.79,1.54-1.95,4.75-.65,6.25,1-.53,1.48-2.5,2.16-3.44A18.79,18.79,0,0,1,211,111.38Z"/><path class="cls-12" d="M184.92,187.28c3.24-2.92,11.11-20,9.82-19.87-.32,0,6.35-2.88,9.4-16.83,1-4.61-.3-33.32,1.9-37.72,1.72-3.44,8.8-8.21,11.82-10.14a1.06,1.06,0,0,0,0-1.78q-3.72-6.76-13.74-9.21c-19.51,11.88-27.82-1.14-27.81-3.08l-12.46,0c-1.79,0-8-1-9.3.12-3.21,2.73-3.37,11.21-4.27,15.13-1.63,7.06-6.55,12.64-10.15,18.74-1.56,2.63-3.74,6.17-4.13,9.25-.54,4.15,1.54,9.5,2.72,13.43,1.41,4.69,3.26,10.24,1.78,15.14-1.59,5.26-7.09,16.26-4.89,14.06,1.19-1.19,6.29,1.41,7.43,1.84,5.1,1.93,10.11,4.07,15.21,6,8.61,3.24,24.25,10.51,31.74,1.47,1.44-1.74,2-4,2.65-6.17a134,134,0,0,1,11-27.21l-.61,1.27"/><path class="cls-12" d="M136.7,173.38s-36.31,35.21-44,39.62S62.3,224.84,73.52,236.83a24.5,24.5,0,0,0,13.42,7.31c5.69,1,11.79,0,17.13,2.27,6.61,2.75,10.35,9.63,13.78,15.92s7.72,13,14.62,14.92a20.87,20.87,0,0,0,8.91.16c8.84-1.45,17.06-5.77,26-6.7,7-.73,17.55,1.28,22-5.58,3.13-4.87,3.57-12,3.94-17.64a137.23,137.23,0,0,0-1.07-27.35s-.45-27-7.05-33.56S136.7,173.38,136.7,173.38Z"/><path class="cls-8" d="M74.61,273.52l33.08-25,4.89,5.12S82.95,274.62,74.61,273.52Z"/><path class="cls-8" d="M108.57,302.09l40.54-26.57,13.39-4s-15.64,15.94-27.42,21.07A272.15,272.15,0,0,1,108.57,302.09Z"/><path class="cls-8" d="M211.09,211s12.4,41.85,12.55,50l.14,8.17Z"/><g class="cls-3"><path class="cls-4" d="M160.23,146.43c-1.34-11.21,6.09-18.13,9.26-21.09a6.83,6.83,0,0,0,1.2-1.25l.27.07c-.06.24-.44.6-1.28,1.38-3.14,2.93-10.5,9.78-9.17,20.85Z"/></g><g class="cls-3"><path class="cls-4" d="M44.79,269.42c-2-1.59-4-3.35-4.2-5.79a8.93,8.93,0,0,1,.8-3.76,10.52,10.52,0,0,0,.81-3.14h.28a10.75,10.75,0,0,1-.83,3.22,8.62,8.62,0,0,0-.79,3.64c.19,2.33,2.13,4,4.1,5.6Z"/></g><g class="cls-3"><path class="cls-4" d="M121,294.08l-.22-.17c2.85-3.79,7.21-6,11.43-8.12.91-.46,1.85-.93,2.75-1.41a67.42,67.42,0,0,0,8.45-5.33l.16.22a67.68,67.68,0,0,1-8.48,5.35c-.91.48-1.85,1-2.75,1.42C128.16,288.16,123.82,290.35,121,294.08Z"/></g><g class="cls-3"><path class="cls-4" d="M140.21,103.25c-.07-1.58-.1-3.17-.1-4.74a7.39,7.39,0,0,1,.41-2.85c.56-1.33,1.8-2.35,3.91-3.2A22.14,22.14,0,0,1,150.18,91l0,.27a21.79,21.79,0,0,0-5.68,1.44c-2,.82-3.23,1.79-3.76,3.05a7.08,7.08,0,0,0-.39,2.74c0,1.56,0,3.15.1,4.73Z"/></g><g class="cls-3"><path class="cls-4" d="M213.61,195.58a2.85,2.85,0,0,1-1.38-.26,2.6,2.6,0,0,1-1.09-2.38,7.08,7.08,0,0,1,4.37-6.51,3.79,3.79,0,0,1,2.58-.21,2.07,2.07,0,0,1,1.49,2,1.73,1.73,0,0,1-.68,1.19,3,3,0,0,1-2.15.58l0-.27a2.76,2.76,0,0,0,1.95-.52,1.47,1.47,0,0,0,.58-1,1.82,1.82,0,0,0-1.3-1.76,3.52,3.52,0,0,0-2.39.21,6.8,6.8,0,0,0-4.19,6.26,2.47,2.47,0,0,0,.95,2.14,2.6,2.6,0,0,0,1.3.23,18.67,18.67,0,0,0,8.71-2.21c.41-.22,1.35-.82,1.16-1.56l.27-.07c.24.93-.83,1.62-1.3,1.87a18.94,18.94,0,0,1-8.84,2.25Z"/></g><g class="cls-3"><path class="cls-4" d="M185.24,186.32a87.88,87.88,0,0,1-34.11-6.94c-4.17-1.77-9.19-4.42-11.06-9.24l.26-.1c1.83,4.72,6.8,7.33,10.91,9.08a87.61,87.61,0,0,0,34,6.92h1v.28Z"/></g><path class="cls-13" d="M177.63,186.21c-.94,3.76-1.2,9.85-1.26,13.72a120.05,120.05,0,0,0,1.07,14.38Q178.59,225,179,235.84c.28,7.53.28,15.18-1.65,22.47a26.21,26.21,0,0,1-4.62,9.82,22.83,22.83,0,0,1-2.52,2.63c6.88-.28,15.82.75,19.79-5.43,3.13-4.87,3.57-12,3.94-17.64a137.23,137.23,0,0,0-1.07-27.35s-.45-28.06-7.05-34.66"/><path class="cls-14" d="M183.68,101.21a13.67,13.67,0,0,1-4.68,2.43,12.42,12.42,0,0,1-4.59.92,10,10,0,0,1-6.52-3.43c-1.69-1.76-3.07-4.09-2.76-6.51q.55.33,1.09.69c.71.47,1.39,1,2.11,1.43a17.32,17.32,0,0,0,13.56,1.91,12.65,12.65,0,0,1,2.58-.81C186.71,97.76,184.44,100.53,183.68,101.21Z"/><path class="cls-14" d="M204.73,102.38a13.67,13.67,0,0,1-4.68,2.43,12.42,12.42,0,0,1-4.59.92,10,10,0,0,1-6.52-3.43c-1.69-1.76-3.07-4.09-2.76-6.51q.55.33,1.09.69c.71.47,1.39,1,2.11,1.43a17.32,17.32,0,0,0,13.56,1.91,12.65,12.65,0,0,1,2.58-.81C207.77,98.93,205.5,101.7,204.73,102.38Z"/><path class="cls-13" d="M125,233.62a88.77,88.77,0,0,0,30.69-39.06,40.78,40.78,0,0,1-5.6,27.73,70.76,70.76,0,0,1-9.1,11.15,113.6,113.6,0,0,1-12.59,11.7c-4.78,3.69-10.15,6.9-13.56,11.88.83-1.21-4.33-6.51-5.1-7.42-1.77-2.11-2.5-3.06-.52-5.27C113,240,120.21,237,125,233.62Z"/><path class="cls-13" d="M185.88,95.35c.53,2.67-1.63,5.18-4,6.47a14,14,0,0,1-14.21-.75,6.36,6.36,0,0,1-2.67-3.2,6.57,6.57,0,0,1-.12-2.73,7.52,7.52,0,0,1,2.37-5c1.49-1.2,3.53-1.39,5.44-1.54l4.52-.35c-.93.44-.78.52-.32,1.44a8.36,8.36,0,0,0,9,4.29C185.63,94,186.12,95.32,185.88,95.35Z"/><path class="cls-13" d="M198.52,89.29c1.43.74,5.8.51,6.87,1.71a8.28,8.28,0,0,1-5.73,13.78,13.21,13.21,0,0,1-4.76-.8,15.5,15.5,0,0,1-6.16-3.39c-1.28-1.25-3.34-3.83-3.57-5.67-.15-1.2.62-.81,1.74-.89a25.13,25.13,0,0,0,3.25-.43,25.68,25.68,0,0,0,6-2C196.76,91.33,198.4,89.22,198.52,89.29Z"/><g class="cls-3"><path class="cls-4" d="M211.85,98.49l-.13-.24c.11-.06,10.89-5.75,22.83-10.74,16.05-6.72,26.43-9,30.83-6.92l-.12.25C254.89,75.83,212.28,98.26,211.85,98.49Z"/></g><g class="cls-3"><path class="cls-4" d="M286.19,230.45a1.67,1.67,0,0,1-.38,0,3,3,0,0,1-1.75-1.74,32.61,32.61,0,0,1-3.55-12.06l.27,0a32.32,32.32,0,0,0,3.52,12c.37.7.84,1.43,1.57,1.6,1.16.26,2.1-1,2.59-2.22,2.81-7.07,1.68-15,.2-21.75-.29-1.33-.61-2.68-.91-4-1.36-5.82-2.77-11.85-2.43-17.88l.28,0c-.34,6,1.06,12,2.42,17.81.31,1.31.62,2.66.91,4,1.49,6.83,2.63,14.77-.21,21.91C288.24,229.24,287.34,230.45,286.19,230.45Z"/></g><path class="cls-15" d="M347,217.64l.37.37"/><g class="cls-3"><path class="cls-4" d="M271.92,202.93c-3.35-6.39-3.74-8.54-4.5-12.82-.3-1.7-.68-3.81-1.34-6.66a1.91,1.91,0,0,0-.66-1.27c-.2-.12-.28-.24-.25-.35a.17.17,0,0,1,.14-.12A256.26,256.26,0,0,0,250,151.09a8.19,8.19,0,0,0-2.58,3.54l0,.05,0,0c-1.92,1-4.3-.16-5.49-1.79a13.26,13.26,0,0,1-1.92-5.79l-1.39-8.38c-.1-.62-.26-1.21-.73-1.43-.72-.34-1.16.31-1.8,1.41a7.7,7.7,0,0,1-.78,1.17,2.28,2.28,0,0,1-2.38.63,3.75,3.75,0,0,1-2.65-2.68c-.43-2.1.66-4.17,1.82-6.12l.24.14c-1.18,2-2.2,3.92-1.79,5.92a3.46,3.46,0,0,0,2.45,2.47,2,2,0,0,0,2.11-.55,7.7,7.7,0,0,0,.75-1.13c.57-1,1.16-2,2.15-1.53a2,2,0,0,1,.89,1.64l1.39,8.38a13.05,13.05,0,0,0,1.87,5.67c1.12,1.53,3.32,2.59,5.1,1.73a8.46,8.46,0,0,1,2.78-3.71l.12-.09.08.13A256.37,256.37,0,0,1,265.72,182l.05.12a2.55,2.55,0,0,1,.57,1.28c.66,2.86,1,5,1.34,6.68.76,4.25,1.14,6.38,4.47,12.74Z"/></g><g class="cls-3"><path class="cls-4" d="M285.19,174.93A368.55,368.55,0,0,1,274.89,119l-.14-1.37c-.72-6.91-1.46-14-4.62-20.24a5.36,5.36,0,0,0-2-2.39,5.63,5.63,0,0,0-3.46-.3,50.86,50.86,0,0,0-16.87,5.38l-.13-.24a51.14,51.14,0,0,1,17-5.41,5.88,5.88,0,0,1,3.63.34,5.58,5.58,0,0,1,2.07,2.51c3.19,6.24,3.93,13.41,4.65,20.34l.14,1.37a368.4,368.4,0,0,0,10.29,55.85Z"/></g><g class="cls-3"><path class="cls-4" d="M58.83,238.55a34.21,34.21,0,0,1-.69-11.87c.94-8.72,4.7-16.87,8.33-24.75,3.14-6.82,6.4-13.88,7.83-21.3l.27.05c-1.44,7.45-4.7,14.52-7.85,21.36-3.62,7.86-7.37,16-8.31,24.67a34,34,0,0,0,.69,11.78Z"/></g><g class="cls-3"><path class="cls-4" d="M41.54,244.11c-3.72,0-7.46-.17-11.15-.5a17,17,0,0,1-6.84-1.67c-1.92-1.07-3.77-3.28-3.56-5.8l.27,0c-.2,2.4,1.57,4.51,3.42,5.54a16.79,16.79,0,0,0,6.73,1.63,125,125,0,0,0,15,.44V244Q43.5,244.11,41.54,244.11Z"/></g><g class="cls-3"><path class="cls-4" d="M43.33,225.17c-3.58-8.59-4.33-18.07-5.06-27.23a144.61,144.61,0,0,0-2.11-17.45l.27-.05a144.75,144.75,0,0,1,2.11,17.48c.73,9.14,1.48,18.6,5,27.15Z"/></g><g class="cls-3"><path class="cls-4" d="M125.58,150.44l-.27,0c1.13-10.35,1-21,.9-31.2-.08-7.46-.17-15.18.23-22.76.15-2.79.39-5.48,1.74-7.76s4.14-4,6.85-3.15l-.09.26c-2.57-.86-5.28.92-6.53,3s-1.56,4.89-1.7,7.64c-.4,7.57-.31,15.28-.23,22.74C126.59,129.46,126.71,140.07,125.58,150.44Z"/></g></svg>