<svg id="rooster" xmlns="http://www.w3.org/2000/svg" viewBox="0 0 300 300"><defs><style>.cls-1{fill:#e9eae5;}.cls-2{fill:#bc2654;}.cls-3{fill:#7c162c;}.cls-4{fill:#f3294f;}.cls-5{fill:#fff2e6;}</style></defs><title>rooster</title><ellipse class="cls-1" cx="136.47" cy="244.08" rx="96.22" ry="7.13"/><path class="cls-2" d="M132.21,235.83l10.52-6.51a.67.67,0,0,0-.52-1.21l-8.79,2.33L141.14,206l.16-7.79-29.7-9.09,15.84,15.53,2.92,12.58.23,4.26-6.06,23.21s-18-2.1-18.87-2.1-4.94,5.39-4.94,5.39h27.85l2.24-3.37L134.4,248h6.9l-8.92-7.19Z"/><path class="cls-3" d="M260.2,122.24l-6.37-20.6A9.76,9.76,0,0,0,250.76,97L232,81.19a9.87,9.87,0,0,0-3.6-1.92l-22.58-6.52a6.84,6.84,0,0,0-4.29.16l-18.87,7a6.9,6.9,0,0,0-2.33,1.46L163.37,97.55a9.27,9.27,0,0,0-1.79,2.34l-15.05,27.83,27.35,34.79,8.13,2.85a2.15,2.15,0,0,0,2.84-2.27l-1.45-12.78L201.89,159a.92.92,0,0,0,1.23-1.23L198,146.75l-8.92-7.14h9.51l9,6a.93.93,0,0,0,1.35-1.19l-4.66-9.32-7.13-5.05,12.22-5.9,7.45,4.58a1.19,1.19,0,0,0,1.77-1.34l-1.82-6.26-8.33-10.11,11.41,5.57a1.19,1.19,0,0,0,1.41-1.86L214,106.62l10.21,2,14.43,12.55a1.19,1.19,0,0,0,1.94-1.15L238,108.6l-6-11.23,9.86,7.73L251,128.63a1.18,1.18,0,0,0,2.29-.47L253,117.31l5.19,6A1.19,1.19,0,0,0,260.2,122.24Z"/><polygon class="cls-3" points="92.71 188.07 111.87 204.62 114.78 217.19 124.13 210.51 125.72 198.18 92.71 188.07"/><path class="cls-4" d="M85.15,248s4-5.39,4.94-5.39,18.86,2.1,18.86,2.1l5.19-19.89.64-7.58,9.35-6.69-6.29,19.93,8.79-2.33a.67.67,0,0,1,.52,1.21l-10.52,6.51.18,4.94,8.91,7.19h-6.89l-3.6-3.37L113,248Z"/><path class="cls-4" d="M82,96.5,62.39,92,52.28,106l10.11,14-4.46,16.35.89,20.52,33.89,31.22,33,10.1H148.2a2.4,2.4,0,0,0,2.24-3.3l-5-5.69a2,2,0,0,1,1.19-3.33l10.71-1.77a3.57,3.57,0,0,0,2.68-4l-3-5a1.61,1.61,0,0,1,1-2.4l9.33-2.42a5.71,5.71,0,0,0,2.88-2.24l6.07-9.1-8-16.65,15.17-3.87-31.22-11.89-21.81,4.76a10,10,0,0,1-8.37-2l-11.42-9.17a10.66,10.66,0,0,1-4.7-4.19L101.12,108a10.55,10.55,0,0,0-4.28-4Z"/><path class="cls-2" d="M76.05,95.14l8.73-5.85a1.89,1.89,0,0,0,.82-1.39l.67-8.4a1.85,1.85,0,0,0-.43-1.34L83.21,75A1.85,1.85,0,0,0,81,74.5l-9.6,4.3a.39.39,0,0,1-.54-.46l2.73-9.71a.52.52,0,0,0-.9-.47l-7.9,9.48a.39.39,0,0,1-.69-.21l-1.05-9a.52.52,0,0,0-1-.12L57.87,80a.4.4,0,0,1-.71.07l-3.92-6.34a.52.52,0,0,0-1,.27V84.8a.4.4,0,0,1-.68.27l-4.25-4.45a.52.52,0,0,0-.89.46l1.28,6.71-1.48,5.56a2.3,2.3,0,0,0,0,.94L47,99a2.27,2.27,0,0,0,1.23,1.66l8.17,4,8.65-8Z"/><path class="cls-2" d="M53.65,107.91l-1.37,5A2.54,2.54,0,0,0,52.5,114l3.63,8.12a2.72,2.72,0,0,0,1.5,1.44l6,2.42a2.81,2.81,0,0,0,1.94,0l3.85-1.34a2.81,2.81,0,0,0,1.73-1.78l-.86-6.81L66,108.63a2.92,2.92,0,0,0-1.56-1.29L60.64,106Z"/><path class="cls-3" d="M53.86,101.92l-6.67,3.14a3.2,3.2,0,0,0-1.44,1.77l-2.81,8.57a.53.53,0,0,0,.86.55l5.23-4.8a3.18,3.18,0,0,1,1.68-.8l7.53-1.16a2.28,2.28,0,0,0,1.81-1.51l1.21-3.41a1.1,1.1,0,0,0-.65-1.39l-4.55-1.16A3.28,3.28,0,0,0,53.86,101.92Z"/><path class="cls-2" d="M58.82,156.86l34.77,23.53,20.46-1.49a.86.86,0,0,0,.54-1.48l-12.07-11.65a1,1,0,0,1,1-1.69L140,174.45a.86.86,0,0,0,.84-.2L151,164.5a.87.87,0,0,0-.06-1.29l-14.1-11.45a1,1,0,0,1,.29-1.73l16.59-5.95a.87.87,0,0,0,.27-1.47L138.57,129.5l3.08-.69,23.49,14.51a.86.86,0,0,1-.18,1.56L143.05,152l15.85,11.13a.87.87,0,0,1,.16,1.28l-15.64,17.89a.86.86,0,0,1-.91.26l-16-5a.87.87,0,0,0-1,1.27l2.14,3.57a.86.86,0,0,1-.63,1.3l-34.31,4.41Z"/><path class="cls-2" d="M122,129.33l5.46,7.83a1.13,1.13,0,0,1-.83,1.77l-16.43,1.31a1.49,1.49,0,0,0-1.29,1.95l3.44,10.46a1.22,1.22,0,0,1-1.47,1.56l-24.11-6.44a1.49,1.49,0,0,0-1.86,1.61l1,8.49a1.43,1.43,0,0,1-2.31,1.29l-12.71-9.94a2.69,2.69,0,0,0-3.43.09l-8.61,7.55,8.47-3.35a2.7,2.7,0,0,1,2.59.34L88.51,167.7a1.44,1.44,0,0,0,2.29-1.27l-.86-10.58a1.49,1.49,0,0,1,1.83-1.57L116.11,160a1.23,1.23,0,0,0,1.49-1.36l-1.83-13.53a1.49,1.49,0,0,1,1.34-1.68L134,141.91a1.12,1.12,0,0,0,.62-2Z"/><path class="cls-5" d="M68.89,100.29c.49.84-.26,2.21-1.1,2.7s-2.4.5-2.9-.34.26-2.21,1.1-2.71S68.39,99.45,68.89,100.29Z"/></svg>