<svg id="ox" xmlns="http://www.w3.org/2000/svg" viewBox="0 0 300 300"><defs><style>.cls-1{fill:#e9eae5;}.cls-2{fill:#bc2654;}.cls-3{fill:#f3294f;}.cls-4{fill:#7c162c;}</style></defs><title>ox</title><ellipse class="cls-1" cx="149.97" cy="242.85" rx="108.99" ry="7.63"/><polygon class="cls-2" points="176.9 175.35 191.7 195.98 190.76 235.31 185.61 242.32 198.5 242.32 203.63 195.02 210.11 171.48 205.72 163.43 176.9 175.35"/><path class="cls-3" d="M277.94,188.83a2.94,2.94,0,0,0-3.87-1.48c-.6.27-14.71,6.37-22.46-6.26-3.66-6-1-10.76,4.12-18.75,4.44-7,10-15.65,8.71-27.13a41.4,41.4,0,0,0-14.88-27c-5.59-4.71-12.3-8-18-9.12h0l-.15,0c-.49-.09-1-.16-1.46-.22l-39.12-5.77-74.6-25.67L68.79,87.49,54.58,107.43l17.47,59.46L81.51,197l2.63,38.66-3.62,6.64H94.43l.74-45.3,6.59-21.74h5.31L114.72,197l2.42,38.66-5.35,6.64h14.12l2.8-45.3,2.71-20.34,1.49,1.11a28.82,28.82,0,0,0,24.81,4.67l43.74-12L209.85,197l1.4,38.66-4.19,6.64H219l3.16-45.3s13.63-28.73,17.82-53.92a66.19,66.19,0,0,0-4.67-36.84,39.36,39.36,0,0,1,10.52,6.41c5.18,4.37,11.61,11.93,12.84,23.18,1,9.43-3.47,16.51-7.83,23.35-4.88,7.66-9.93,15.58-4.17,25,5.44,8.86,13.25,10.74,18.9,10.74h.16a28.85,28.85,0,0,0,10.8-2.21A2.92,2.92,0,0,0,277.94,188.83Z"/><path class="cls-2" d="M67.37,151l4.68,15.92,3.85,12.26c10.84-4.31,11.46-16.52,12.11-19.68.88-4.28,8.65-22.15,8.65-22.15Z"/><path class="cls-4" d="M125.77,71.79l-7.56,20.67a6.45,6.45,0,0,1-4.6,2.73c-6.89.57-25.92,2.07-35.28,2.81a11.45,11.45,0,0,0-8.63,5.56l-2.33,3.66L65,103.56A11.43,11.43,0,0,0,56.42,98c-9.37-.74-28.4-2.24-35.28-2.81a6.48,6.48,0,0,1-4.61-2.73L9,71.79c-.85-1.15-2.39,0-2,1.41l4.27,25a8.26,8.26,0,0,0,5.63,5.94l35.64,12.12,14.82,1.58,14.82-1.58,35.64-12.12a8.24,8.24,0,0,0,5.63-5.94l4.27-25C128.16,71.75,126.62,70.64,125.77,71.79Z"/><rect class="cls-2" x="55.25" y="163.81" width="20.52" height="12.82" rx="6.41" ry="6.41"/><path class="cls-2" d="M93.43,110.23l25.44,2.17-7.75,5.81a10.81,10.81,0,0,1-10.18,1.5l-5.8-2.11Z"/><path class="cls-2" d="M44.26,110.23,18.81,112.4l7.76,5.81a10.8,10.8,0,0,0,10.18,1.5l5.8-2.11Z"/><path class="cls-3" d="M38,116.5,36.5,136.71a8.37,8.37,0,0,0,3.36,7.22l2.54,1.88,11.42,22.9c1.49,3.53,3.77,1.71,7.61,1.71h7.75c4.15,0,9,1.44,10.27-2.51l8.6-19.4,10.57-7.4a8.36,8.36,0,0,0,2.46-6.29l-2.24-18.11A11.85,11.85,0,0,0,87,105.35H49.84A11.85,11.85,0,0,0,38,116.5Z"/><ellipse class="cls-4" cx="84.73" cy="135.53" rx="3.53" ry="2.69" transform="translate(-57.15 61.92) rotate(-30.56)"/><path class="cls-4" d="M44.5,133.74c-.75,1.28.39,3.36,1.67,4.11s3.66.76,4.41-.52-.39-3.36-1.67-4.12S45.26,132.46,44.5,133.74Z"/><path class="cls-4" d="M68.19,170.42H62.43c-2.33,0-8-4.66-8-8.22v-3.84a6.48,6.48,0,0,1,6.47-6.46h8.82a6.48,6.48,0,0,1,6.46,6.46v3.84C76.18,165.76,70.51,170.42,68.19,170.42Z"/><path class="cls-1" d="M70.55,162.2s3.41-.88,4.91-6.75a3.85,3.85,0,0,0-1.1-1.5s-1,3.81-3.81,4.13S68.69,163.84,70.55,162.2Z"/><path class="cls-1" d="M60.22,162.2s-3.46-.9-5-6.86a3.79,3.79,0,0,1,1.11-1.52s1,3.86,3.88,4.19S62.11,163.86,60.22,162.2Z"/><path class="cls-4" d="M265.68,189.67l3.61-4.17a12.38,12.38,0,0,1,6.67-4l8.21-1.84v2.73l8.83-2.73-3.86,9a9.59,9.59,0,0,1-6.44,5.52l-3.36.86,4.18,1s-8.41,6.82-17.84-1.14Z"/></svg>