<svg id="dog" xmlns="http://www.w3.org/2000/svg" viewBox="0 0 300 300"><defs><style>.cls-1{fill:#e9eae5;}.cls-2{fill:#f3294f;}.cls-3{fill:#7c162c;}.cls-4{fill:#bc2654;}</style></defs><title>dog</title><ellipse class="cls-1" cx="149.06" cy="241.92" rx="125" ry="9.27"/><path class="cls-2" d="M120.61,90.31l26.74,31.06a18.34,18.34,0,0,1,3,4.89l15.08,36.55,20.5,20.47a13.73,13.73,0,0,1,5.92,18L181.7,222.57l13.35,12.75H71.66L86.09,222l-7.48-34.19L57.78,147.26l-2.89,3.26c-1,1-2.61.42-2.5-1.45l.58-9.29-5.84-.08a1.41,1.41,0,0,1-1.2-2.39L54,129.63l-5.51-4.92a1.12,1.12,0,0,1,.11-2.1l6.47-1.52,11.75-23.5Z"/><path class="cls-3" d="M178.14,214.56l32.4-9.08,12.72-12.72a1.93,1.93,0,0,1,3.3,1.37l-1.09,8.11,18.76-23.67a1.93,1.93,0,0,1,3.31,1.72l-6,28.4,8.07-5.05a1.93,1.93,0,0,1,2.84,2.3L246.61,222a8.59,8.59,0,0,1-5.1,5.13l-20.72,7.63a8.61,8.61,0,0,1-3,.53H175.47Z"/><polygon class="cls-4" points="85.55 169.16 95.67 204.15 122.94 169.16 130.62 212.19 147.26 218.51 160.3 235.31 76.71 235.31 85.55 169.16"/><path class="cls-2" d="M64.19,143.52l2.62,64a6.21,6.21,0,0,1-.37,2.34l-9.06,24.44a6.05,6.05,0,0,0,1,5.94l1.31,1.57a6,6,0,0,0,4.62,2.17H70a6,6,0,0,0,3.14-.89l5.29-3.23a6,6,0,0,0,2.88-5.13v-22.5q0-.3,0-.6l4.24-42.43"/><path class="cls-2" d="M101.58,143.52l2.62,64a5.91,5.91,0,0,1-.35,2.24l-9.13,24.64a5.74,5.74,0,0,0,1,5.67l1.49,1.79a5.75,5.75,0,0,0,4.42,2.07h5.84a5.67,5.67,0,0,0,3-.85l5.49-3.35a5.73,5.73,0,0,0,2.75-4.9V212.18a5.63,5.63,0,0,1,0-.58l4.24-42.44"/><path class="cls-3" d="M182.06,222.92l-.36-.35,10.15-21.25a13.73,13.73,0,0,0-5.92-18l-20.5-20.47-15.08-36.55a18.34,18.34,0,0,0-3-4.89L120.61,90.31l-5.94.8,8.27,26.47-3,12.09s-7.93,13-5.94,12.45l14,1.4-5.07,25.64,30.5,33.08h4.5a17.53,17.53,0,0,1,17.53,17.53v15.55Z"/><polygon class="cls-3" points="55.16 120.98 66.85 118.06 62.43 106.45 55.16 120.98"/><path class="cls-4" d="M59.45,67.35S53.06,53,53.06,50.3c0-1.94,6.51-21.25,10-28a2.48,2.48,0,0,1,4.4,0L76.5,46Z"/><path class="cls-4" d="M112.22,70.59S120,53,120,50.3c0-2-6.69-21.59-10.18-28.25a2.48,2.48,0,0,0-4.33-.12L95.67,45Z"/><path class="cls-2" d="M46.81,97.36l6.25-10.84-5.54.76a1.39,1.39,0,0,1-1.33-2.19L60,65.75,73.83,45H95.67l22.38,28.77,9.72,12.41A1.52,1.52,0,0,1,126,88.42l-7.46-3.76,3.73,10.39-20.24,19.17-5.33,15.45-34.3-19.28-9-1.72a1.4,1.4,0,0,1-.71-2.38l7-6.85L48,99.46A1.4,1.4,0,0,1,46.81,97.36Z"/><path class="cls-3" d="M90.69,105.75a1.64,1.64,0,0,1-.61-.11l-5.37-2.15-5.1,2.14a1.65,1.65,0,0,1-1.28-3l5.72-2.4a1.69,1.69,0,0,1,1.25,0l6,2.4a1.65,1.65,0,0,1-.61,3.18Z"/><path class="cls-3" d="M85.26,96.09H84.12a3.09,3.09,0,0,1-3-2.59l-.27-1.68a2,2,0,0,1,2-2.33H86.6a2,2,0,0,1,2,2.33L88.3,93.5A3.08,3.08,0,0,1,85.26,96.09Z"/><path class="cls-3" d="M84.69,103.36A1.65,1.65,0,0,1,83,101.71V92.79a1.65,1.65,0,0,1,3.3,0v8.92A1.65,1.65,0,0,1,84.69,103.36Z"/><path class="cls-3" d="M112.07,66.06c-2.08-.51-11.63-4.52-12.55-4.83s-7.89,4.05-7.89,4.05L87,85.58h-4.4L79,66.62l-8.35-6.39L58.56,67.74,73.83,45H95.67Z"/><path class="cls-3" d="M57.78,147.26l4.64-5.14,1.67,7.78a1,1,0,0,0,1.77.41l1.48-1.85a1,1,0,0,1,1.8,1l-4.23,11.7Z"/><path class="cls-3" d="M100.68,71.88l-7.18,4a.26.26,0,0,0-.13.16l-2.24,7.4A1.32,1.32,0,0,0,93,84.94l6.78-3.6a.25.25,0,0,0,.14-.16l2.63-7.71A1.32,1.32,0,0,0,100.68,71.88Z"/><path class="cls-1" d="M99.9,78.33a3,3,0,1,1-3-3A3,3,0,0,1,99.9,78.33Z"/><path class="cls-3" d="M68.76,71.88l7.18,4a.28.28,0,0,1,.14.16l2.23,7.4a1.32,1.32,0,0,1-1.89,1.55l-6.78-3.6a.28.28,0,0,1-.14-.16l-2.63-7.71A1.32,1.32,0,0,1,68.76,71.88Z"/><circle class="cls-1" cx="72.5" cy="78.33" r="2.96" transform="translate(-34.16 74.2) rotate(-45)"/></svg>