<svg id="dragon" xmlns="http://www.w3.org/2000/svg" viewBox="0 0 300 300"><defs><style>.cls-1{fill:#7c162c;}.cls-2{fill:#bc2654;}.cls-3{fill:#f3294f;}.cls-4{fill:#e9eae5;}</style></defs><title>dragon</title><path class="cls-1" d="M91.63,135.05c-7.6,3.44-12.59-4.54-16.06-6.56-1.94-1.12-4.77-.61-7,.1,0-.15,0-.3,0-.45a9.3,9.3,0,0,0-9.3-9.3l-.68,0,0,.13c.75,3.75-.26,6.74-2.7,8a4.91,4.91,0,0,1-2.22.54,4.5,4.5,0,0,1-3.29-1.39,4.28,4.28,0,0,1-.82-5,3,3,0,0,1,3.26-1.54,2.78,2.78,0,0,1,2,1.31,3.32,3.32,0,0,1,.21,2.48,1.15,1.15,0,0,1-2.18-.72,1,1,0,0,0,0-.62.68.68,0,0,0-.42-.21.71.71,0,0,0-.8.42,2,2,0,0,0,.49,2.32,2.38,2.38,0,0,0,2.79.38c1.48-.76,2.05-2.82,1.51-5.51s-1.48-4.46-3.25-5.51a6.66,6.66,0,0,0-8.85,2.39,5,5,0,0,0-5.67-1.09A9.29,9.29,0,0,0,23,125.08a6.37,6.37,0,0,0-1.39-.16,6.07,6.07,0,0,0-5.87,7.62,6.81,6.81,0,0,0-.93,12.79,6.79,6.79,0,0,0,10.76,5.38A6.82,6.82,0,0,0,38.63,148a6.91,6.91,0,0,0-.12-1.22,8.55,8.55,0,0,0,6.56,3.06,8.8,8.8,0,0,0,1.94-.22c4.62-2.28,5.82-4.68,5.06-9.22-.46-2.71-1.72-4.43-3.37-4.62a2.41,2.41,0,0,0-2.48,1.35,2,2,0,0,0,.37,2.35.72.72,0,0,0,.9.11c.11-.07.3-.21.32-.35a1,1,0,0,0-.21-.6,1.13,1.13,0,0,1,.17-1.6,1.14,1.14,0,0,1,1.61.17,3.25,3.25,0,0,1,.69,2.38,2.75,2.75,0,0,1-1.35,1.92,3,3,0,0,1-3.59-.27,4.27,4.27,0,0,1-1-5A4.64,4.64,0,0,1,49,133.54c2.73.3,4.74,2.74,5.38,6.51.71,4.24-.21,7-2.4,9.07A5,5,0,0,0,55,150.2a5,5,0,0,0,4.88-3.83,6.47,6.47,0,0,0,2.42.46A6.67,6.67,0,0,0,69,140.41c1.57-.87,2.59-2.61,4.25-3.63,2.83-1.74,6.17,1.86,12.84,2.51,4.55.44,6-1.95,6.39-3.51A.62.62,0,0,0,91.63,135.05Z"/><path class="cls-2" d="M62.13,199.55l13.44-.44a2.17,2.17,0,0,0,2-2.84l-2.27-7.12L70.4,188a2.56,2.56,0,0,1-1.53-1l-2.7-3.81a.53.53,0,0,1,.72-.75l3.62,2.83a1.93,1.93,0,0,0,1,.41l4.32.52a.45.45,0,0,0,.46-.65L73,179.18l0-5a1.39,1.39,0,0,1,1-1.34l4.61-1.21a.69.69,0,0,1,.47,1.24l-3.77,1.62.25,3.65,4.19,5.06a.46.46,0,0,0,.76-.1l1.85-3.95a1.81,1.81,0,0,1,1.17-1l4.2-1.1a1.29,1.29,0,0,1,1.45.74l1.25,2.8a.62.62,0,0,1-1,.72l-2.28-2-2.3.89-1.11,6.69a3.19,3.19,0,0,1-.79,1.65l-2,1.44a2,2,0,0,0-.69,2.33l3.52,9.42a2.17,2.17,0,0,1-.85,2.47l-7.9,5.37Z"/><path class="cls-2" d="M62.7,202.75l-7.89,15a2.17,2.17,0,0,1-3.12,1.53L45,215.87l-.32-5a2.58,2.58,0,0,0-.77-1.68l-3.33-3.26a.53.53,0,0,0-.86.58l2.23,4a2,2,0,0,1,.24,1.05L42,215.92a.45.45,0,0,1-.72.35L35.54,212l-5-.79a1.4,1.4,0,0,0-1.49.82l-1.92,4.36a.69.69,0,0,0,1.15.66l2.2-3.47,3.56.83,4.33,4.93a.46.46,0,0,1-.22.74L34,221.29a1.85,1.85,0,0,0-1.14,1l-1.76,4a1.3,1.3,0,0,0,.51,1.54l2.57,1.68a.61.61,0,0,0,.85-.83l-1.57-2.57L34.69,224l6.78,0a3.2,3.2,0,0,0,1.75-.52L45,221.7a2,2,0,0,1,2.41-.31l8.75,5a2.17,2.17,0,0,0,2.57-.44l9-12.44Z"/><path class="cls-3" d="M98.19,231.83C82.08,229,68.79,223.3,58.67,215,49.33,207.3,43,197.5,40.39,186.64A47.46,47.46,0,0,1,41.6,160a44.66,44.66,0,0,1,15.19-21.2c10.7-8.11,26.12-11.6,45.84-10.35a141.16,141.16,0,0,1,25.31,3.95l-2.74,10.11-2.72,10.11A123.08,123.08,0,0,0,101,149.35c-14.18-.85-25.07,1.28-31.49,6.16a23.75,23.75,0,0,0-8,11.32,26.57,26.57,0,0,0-.66,14.9c3.56,14.73,18.54,25.47,41.1,29.47Z"/><path class="cls-3" d="M115.28,129.86c-16.3,4.33-24,15.14-26.47,19.55a87.18,87.18,0,0,1,12.14-.06,124.45,124.45,0,0,1,17.78,2.43c1.62-1.36,3.42-2.92,5.22-4.59l1.25-4.66,2.74-10.11A128,128,0,0,0,115.28,129.86Z"/><path class="cls-3" d="M86.92,229.24a112.74,112.74,0,0,0,11.27,2.59l3.66-20.63c-11.26-2-20.62-5.67-27.63-10.68A54.36,54.36,0,0,0,86.92,229.24Z"/><path class="cls-2" d="M151.37,105.77,138.3,116.5a2.18,2.18,0,0,1-3.47.2L130,111l1.65-4.74a2.54,2.54,0,0,0-.06-1.84l-1.8-4.3a.53.53,0,0,0-1,.2l.49,4.58a2.15,2.15,0,0,1-.18,1.06l-1.84,3.94a.45.45,0,0,1-.8,0l-3.68-6.17-4.28-2.66a1.4,1.4,0,0,0-1.7.18l-3.45,3.27a.69.69,0,0,0,.79,1.06l3.38-2.35,3,2.14,2.08,6.23a.46.46,0,0,1-.48.6l-4.33-.52a1.81,1.81,0,0,0-1.44.48l-3.17,3a1.3,1.3,0,0,0-.13,1.62l1.72,2.55a.61.61,0,0,0,1.11-.44l-.46-3,2-1.48,6.26,2.6a3.25,3.25,0,0,0,1.82.2l2.26-.9A2,2,0,0,1,130,117l6.13,8a2.17,2.17,0,0,0,2.55.58l8.73-3.86Z"/><path class="cls-1" d="M231.47,158.21,237,147.8a.82.82,0,0,1,1.53.2l1.37,6,11.26-8.4a.82.82,0,0,1,1.31.62l.29,5.21,13.74-4.29a1.39,1.39,0,0,1,1.75,1.72l-2,6.82s6.88-2.78,15.78.73a1.1,1.1,0,0,1-.26,2.12c-2.69.37-5.93,1.1-6.86,2.56,0,0,4.71,10.44,15,13.17a1.08,1.08,0,0,1,0,2.08,51.89,51.89,0,0,1-18.61,2.26l2.88,3.49a1.35,1.35,0,0,1-1.44,2.14c-4.49-1.41-11.69-4.17-16.72-8.61l-.91,3.84a1.34,1.34,0,0,1-2.3.59l-11.33-12.63-.46,3.8a1,1,0,0,1-1.77.52L232,163Z"/><path class="cls-1" d="M183.39,190.58a11,11,0,0,1-8.9-17.54c.81-1.11,10.28-5.55,26.18-11.75,19.63-7.65,36.31-4.25,47.21-2,7.79,1.63,20.28,6.88,22.85,7.84a2,2,0,0,1-1.37,3.67c-2.12-.79-17-5.15-22.81-6-8-1.12-25.4-1.3-39.34,4.3-10.2,4.09-20.6,14.47-20.64,14.53C184.41,186.64,186.79,190.58,183.39,190.58Z"/><path class="cls-3" d="M143.06,249.93a74.34,74.34,0,0,1-27-4.85,59.9,59.9,0,0,1-23.94-16.73,50.74,50.74,0,0,1-11.24-44.66c4.11-17.81,11.5-31.49,22-40.64a50.1,50.1,0,0,1,22.31-11.29l.38-.09c1.37-1,2.72-2,4-2.93,11.75-8.48,17.87-13.44,17.59-25.07-.18-7.39-4.57-11-7.86-13a29.53,29.53,0,0,0-8.7-3.55l3.64-20.63a49.53,49.53,0,0,1,16.11,6.38A38.71,38.71,0,0,1,162.1,84a35.13,35.13,0,0,1,6,19.15c.33,13.46-4.54,22.72-11,29.81,9.15,2.47,16.61,6.88,22.21,13.13a39.3,39.3,0,0,1,9.42,19.56c13.44,11.52,18.63,27.79,13.92,44.33a53,53,0,0,1-19,27,63.51,63.51,0,0,1-34.43,12.7C147.13,249.86,145.08,249.93,143.06,249.93ZM102,185.41c-.26,1-.5,2-.74,3A30,30,0,0,0,108,214.76c8.6,10.07,23.08,15.2,39.74,14.06a42.67,42.67,0,0,0,23.13-8.44,31.79,31.79,0,0,0,11.54-16.13,21.52,21.52,0,0,0,.78-8.16,44.43,44.43,0,0,1-21,19.19c-15.87,6.8-32.05,5.21-44.4-4.35A44.11,44.11,0,0,1,102,185.41Zm32.12-33.91c-6.58,5.37-10.7,10.51-12,18.79-1.48,9.63,1.79,18.86,8.52,24.08,6.25,4.84,14.53,5.43,23.33,1.66,9.11-3.91,15.24-14.68,14.26-25.07a18.59,18.59,0,0,0-4.63-10.89c-3.16-3.53-7.84-6-13.89-7.33A51.53,51.53,0,0,0,134.12,151.5Z"/><path class="cls-3" d="M163.53,105.33,171,116.5a2.18,2.18,0,0,0,3.47.2l4.84-5.7-1.65-4.74a2.54,2.54,0,0,1,.06-1.84l1.8-4.3a.53.53,0,0,1,1,.2l-.49,4.58a1.94,1.94,0,0,0,.18,1.06l1.84,3.94a.45.45,0,0,0,.8,0l3.67-6.17,4.29-2.66a1.39,1.39,0,0,1,1.69.18l3.46,3.27a.69.69,0,0,1-.79,1.06l-3.38-2.35-3,2.14-2.08,6.23a.46.46,0,0,0,.48.6l4.33-.52a1.81,1.81,0,0,1,1.44.48l3.16,3a1.29,1.29,0,0,1,.14,1.62l-1.72,2.55a.61.61,0,0,1-1.11-.44l.46-3-2-1.48-6.26,2.6a3.25,3.25,0,0,1-1.82.2l-2.26-.9a2,2,0,0,0-2.34.64l-6.13,8a2.17,2.17,0,0,1-2.55.58l-8.74-3.86Z"/><path class="cls-2" d="M109.2,62.55,108.76,54a.74.74,0,0,1,1.35-.25l2.31,4.81a.47.47,0,0,0,.75.06l7.2-12a.48.48,0,0,1,.81.16l.5,9.13a.46.46,0,0,0,.48.32l25.74-1.71a.47.47,0,0,1,.27.87l-5.09,3a.47.47,0,0,0,.18.87l18.83,2.48a.47.47,0,0,1,0,.92l-11,2.67a.47.47,0,0,0-.09.88L169.74,75a.47.47,0,0,1-.2.9h-19.7a.47.47,0,0,0-.39.73l5.27,8a.47.47,0,0,1-.49.71l-8.45-1.81a.48.48,0,0,0-.56.56L147.8,97a.47.47,0,0,1-.77.44l-7.23-6.31a.47.47,0,0,0-.76.22l-2.6,8.84a.47.47,0,0,1-.8.18L123.46,87l0-.07S109.18,62.66,109.2,62.55Z"/><path class="cls-1" d="M149.42,33.09l-14.3,11.53,1-7.78a.84.84,0,0,0-1.65-.24l-3.24,11.12-1.75,1.41a17.7,17.7,0,0,0-5.6,7.73l-2.8,6.46,5.42,1.18,1.61-5a17.7,17.7,0,0,1,4.26-8.06l18.14-17.09A.84.84,0,0,0,149.42,33.09Z"/><path class="cls-2" d="M125.49,131.67S92.61,150.58,102,185.41a77.69,77.69,0,0,0-1.48,8.92c-1.31-2.54-18.19-38.56,5-55.28C119.49,129,125.49,131.67,125.49,131.67Z"/><path class="cls-2" d="M157,133s-14.13,8.94-22.91,18.53l7.8,0s6.7-9.9,21.2-16.52Z"/><path class="cls-2" d="M188.66,165.66a62.78,62.78,0,0,1-5.45,30.43s.07,3.69,0,4.43c0,0,11.53-12.66,9.47-31.05C192.65,169.47,190.65,166.49,188.66,165.66Z"/><path class="cls-3" d="M138.31,64.48a3.43,3.43,0,0,0-1.76-1.35l-8.32-2.45-3.46-1.15a3.94,3.94,0,0,0-4.57,1.63l-.06.08c-1.2,1.9-1.13,1.82-3.32,1.31l-4-.9a4,4,0,0,0-3.58.9L107.59,64a4.05,4.05,0,0,1-3.14,1l-12.1-.19a2.62,2.62,0,0,0-2.83,1.88l-1.61,5.64a2.36,2.36,0,0,0,.94,2.6l1.72,5.88a.38.38,0,0,0,.73,0l1.08-5,3.64.71L97.63,82a.38.38,0,0,0,.73,0l1-4.82.23,0,13.16.34a1.52,1.52,0,0,1,.84,2.75l-8.11,4.95a11.47,11.47,0,0,1-4.11,1.52l-1.36-2.58a.38.38,0,0,0-.71.17l0,2.56H98.8l-1.58-3a.38.38,0,0,0-.71.17l0,2.46a1.17,1.17,0,0,0-1.09,1.17V89.5a1.17,1.17,0,0,0,.48.94L99.15,92a10.79,10.79,0,0,0,7.4.59l8.71-2.45a9.19,9.19,0,0,1,4.5-.44l5.4.57a4.32,4.32,0,0,0,4.25-1.86l8.32-15.73Z"/><path class="cls-4" d="M111.68,66.16l.65-.39a2.72,2.72,0,0,1,2-.33l2.11.46a.58.58,0,0,1,0,1.12l-2.13.65a2.71,2.71,0,0,1-2.14-.24l-.49-.28A.57.57,0,0,1,111.68,66.16Z"/><path class="cls-2" d="M128.68,92.72l-1.61.65-1.64,0-4-3a.85.85,0,0,1,.35-1.52l7.87-1.58a.55.55,0,0,0,.33-.87l-4-5.19a.86.86,0,0,1,.49-1.35l9.48-2.2a.56.56,0,0,0,.09-1.05L132,74.85a.86.86,0,0,1-.16-1.48l2.72-2a.55.55,0,0,0-.2-1l-4.22-1a.85.85,0,0,1-.49-1.35l4.56-6s8.49.78,9.33,6.18-1.57,13.18-1.57,13.18Z"/><path class="cls-1" d="M165,43.72l-16.5,4.89,4.23-6.16a.73.73,0,0,0-1.19-.85l-7.89,8.46-3.2.95a17.59,17.59,0,0,0-8.14,5l-6.45,6.44a1.19,1.19,0,0,0,.33,1.93l1.47.69a2.53,2.53,0,0,0,2.84-.46l4.74-4.58a17.69,17.69,0,0,1,7-5.84l23.32-8.94A.83.83,0,0,0,165,43.72Z"/><path class="cls-2" d="M84.66,101A4.54,4.54,0,0,1,80,97.26a.7.7,0,0,1,.55-.83.71.71,0,0,1,.83.55,3.18,3.18,0,0,0,3.44,2.65,4.38,4.38,0,0,0,4.22-3.85c.27-2.34-2.28-5.08-5-8-3-3.19-6.06-6.49-6.22-10.08a8.28,8.28,0,0,1,2.23-6.33c3.4-3.56,9.45-3.6,9.71-3.6a.71.71,0,0,1,0,1.41h0c-.06,0-5.72,0-8.7,3.17a6.89,6.89,0,0,0-1.83,5.29c.13,3.07,3,6.18,5.84,9.18S90.8,93,90.45,95.94a5.8,5.8,0,0,1-5.56,5.1Z"/><path class="cls-2" d="M121.72,96.87a13.63,13.63,0,0,1-7.69-2c-2-1.38-4-4.14-2.29-9.41s1.48-9.28-.61-11.94c-3.23-4.12-10-3.7-10.12-3.69a.79.79,0,0,1-.11-1.57c.31,0,7.71-.49,11.47,4.29,2.43,3.09,2.72,7.59.87,13.39-1.12,3.5-.55,6.07,1.69,7.64,3.64,2.55,12.9,2.3,17.76-1.46,2.24-1.73,3.32-3.74,3.06-5.66a4.58,4.58,0,0,0-2.88-3.55.78.78,0,1,1,.59-1.45,6.15,6.15,0,0,1,3.85,4.79c.2,1.45,0,4.3-3.66,7.12C130.91,95.51,126.15,96.87,121.72,96.87Z"/><path class="cls-1" d="M93,71.06s-3.59-.46-4.64-2.2-.14-5.61,5.35-3.88c0,0,9.88-1.12,8.2,4.73-1.29,4.47-3.85,2.75-5,1.7a.57.57,0,0,1,.14-.93h0a.94.94,0,0,1,1,.08,1.84,1.84,0,0,0,1.57.43c.83-.34-.07-2.89-2.44-1.84S95.54,71.06,93,71.06Z"/><path class="cls-1" d="M265.85,227.62c-8.69,3.94-14.41-5.19-18.37-7.49-2.23-1.29-5.46-.71-8,.11,0-.17,0-.34,0-.52a10.63,10.63,0,0,0-10.63-10.63l-.77,0,0,.15c.86,4.28-.3,7.7-3.09,9.14a5.53,5.53,0,0,1-2.54.62,5.12,5.12,0,0,1-3.76-1.58,4.9,4.9,0,0,1-.94-5.74,3.43,3.43,0,0,1,3.73-1.76,3.17,3.17,0,0,1,2.22,1.5,3.71,3.71,0,0,1,.24,2.83,1.31,1.31,0,1,1-2.48-.82,1.13,1.13,0,0,0,0-.7.8.8,0,0,0-.48-.25.84.84,0,0,0-.92.48,2.3,2.3,0,0,0,.57,2.66,2.73,2.73,0,0,0,3.19.44c1.69-.88,2.34-3.23,1.72-6.31s-1.69-5.09-3.72-6.3a7.63,7.63,0,0,0-10.12,2.74,5.71,5.71,0,0,0-6.48-1.25,10.63,10.63,0,0,0-19.09,6.44,10.72,10.72,0,0,0,1.16,4.83,6.83,6.83,0,0,0-1.58-.19,7,7,0,0,0-7,7,6.79,6.79,0,0,0,.23,1.76A7.79,7.79,0,0,0,178,239.38a7.78,7.78,0,0,0,12.32,6.16,7.79,7.79,0,0,0,14.95-3.07,8.1,8.1,0,0,0-.13-1.4,9.79,9.79,0,0,0,7.51,3.51,9.48,9.48,0,0,0,2.21-.26c5.28-2.61,6.66-5.34,5.78-10.54-.51-3.09-2-5.07-3.85-5.28a2.72,2.72,0,0,0-2.83,1.54,2.32,2.32,0,0,0,.42,2.69.84.84,0,0,0,1,.12c.12-.08.34-.24.37-.4a1.13,1.13,0,0,0-.25-.68,1.31,1.31,0,1,1,2-1.64,3.7,3.7,0,0,1,.79,2.73,3.17,3.17,0,0,1-1.54,2.19,3.42,3.42,0,0,1-4.11-.31,4.89,4.89,0,0,1-1.17-5.69A5.3,5.3,0,0,1,217,225.9c3.12.35,5.42,3.13,6.15,7.44.81,4.86-.24,8-2.74,10.38a5.74,5.74,0,0,0,9.12-3.14A7.64,7.64,0,0,0,240,233.75c1.79-1,3-3,4.86-4.15,3.23-2,7,2.13,14.68,2.87,5.21.51,6.82-2.22,7.31-4A.71.71,0,0,0,265.85,227.62Z"/><path class="cls-1" d="M248.32,85.72c-5.37,2.43-8.89-3.2-11.34-4.62-1.37-.8-3.36-.44-4.92.07,0-.11,0-.21,0-.32a6.56,6.56,0,0,0-6.56-6.56H225s0,.06,0,.09c.53,2.65-.18,4.76-1.91,5.64a3.37,3.37,0,0,1-1.56.39,3.17,3.17,0,0,1-2.32-1,3,3,0,0,1-.58-3.54,2.13,2.13,0,0,1,2.3-1.09,2,2,0,0,1,1.37.93,2.31,2.31,0,0,1,.15,1.75A.81.81,0,0,1,221,77a.74.74,0,0,0,0-.44.54.54,0,0,0-.3-.15.51.51,0,0,0-.56.3,1.42,1.42,0,0,0,.35,1.64,1.68,1.68,0,0,0,2,.27c1-.54,1.45-2,1.07-3.89s-1.05-3.14-2.3-3.89a4.64,4.64,0,0,0-2.23-.56,4.7,4.7,0,0,0-4,2.25,3.53,3.53,0,0,0-2.55-1.08,3.49,3.49,0,0,0-1.45.31,6.56,6.56,0,0,0-11.06,7,4.46,4.46,0,0,0-1-.12,4.29,4.29,0,0,0-4.29,4.29,4.34,4.34,0,0,0,.15,1.09,4.81,4.81,0,0,0-.66,9,4.8,4.8,0,0,0,7.6,3.8,4.8,4.8,0,0,0,9.22-1.9,4.91,4.91,0,0,0-.08-.86,6,6,0,0,0,4.63,2.16,6.19,6.19,0,0,0,1.37-.15c3.26-1.61,4.11-3.3,3.57-6.51-.32-1.91-1.21-3.13-2.38-3.26a1.71,1.71,0,0,0-1.75.95,1.44,1.44,0,0,0,.26,1.66.51.51,0,0,0,.64.08c.07,0,.21-.15.22-.25a.62.62,0,0,0-.15-.42.81.81,0,0,1,1.26-1A2.27,2.27,0,0,1,219,89a2,2,0,0,1-1,1.36,2.13,2.13,0,0,1-2.54-.2,3,3,0,0,1-.72-3.51,3.27,3.27,0,0,1,3.42-1.94c1.93.21,3.34,1.93,3.79,4.59.5,3-.14,4.94-1.69,6.41a3.55,3.55,0,0,0,5.63-2,4.61,4.61,0,0,0,1.71.33,4.72,4.72,0,0,0,4.71-4.54c1.11-.61,1.83-1.84,3-2.56,2-1.22,4.35,1.32,9.06,1.78,3.21.31,4.2-1.38,4.51-2.48A.44.44,0,0,0,248.32,85.72Z"/></svg>