<svg id="horse" xmlns="http://www.w3.org/2000/svg" viewBox="0 0 300 300"><defs><style>.cls-1{fill:#e9eae5;}.cls-2{fill:#bc2654;}.cls-3{fill:#7c162c;}.cls-4{fill:#f3294f;}</style></defs><title>horse</title><ellipse class="cls-1" cx="165.11" cy="243.14" rx="120.76" ry="8.95"/><path class="cls-2" d="M45,24.23,43,9s9.23,2.2,8.68,10.46S45,24.23,45,24.23Z"/><path class="cls-3" d="M38.79,28s5.88-15.25,16.1-15.25c22,0,34.65,13.21,34.65,13.21L110.9,58.17l17.51,7,26,22.34-58.9-2.12Z"/><path class="cls-3" d="M207.13,90.72l7.16-7.47A15.72,15.72,0,0,1,235.63,82l13.62,11.22a14.36,14.36,0,0,1,5,8.48L261.59,141a14.34,14.34,0,0,1,.07,4.89l-3.41,21.55a14.39,14.39,0,0,0,1.86,9.64l3.45,5.78a2.19,2.19,0,0,1-3.11,2.94l-13.76-9.3a14.39,14.39,0,0,1-6.12-9.42l-.77-23.31a16.09,16.09,0,0,0-3.86-10.19l-7.43-15.17Z"/><path class="cls-2" d="M174.32,142.23l15.91,40.24a15.46,15.46,0,0,1,1.31,5.14l3.19,41.54-8,10.8h12.87l6.08-11.53-3.34-46.25a15.1,15.1,0,0,1,0-1.78L204,136.64S196,117.45,174.32,142.23Z"/><path class="cls-4" d="M41.87,24.52c7.4-6.5,23.91-3.15,26.38,0,2,2.51,25,32.11,34.42,44.27A19.09,19.09,0,0,0,113,75.57l36,9.25a19.43,19.43,0,0,0,6.31.53l42.61-2.69a19.12,19.12,0,0,1,14.66,5.14l13.93,13.13a24.34,24.34,0,0,1,7.38,21.35l-7.65,55.46a15.25,15.25,0,0,0-.17,2.24l-.24,54.09-5.35,12.09H208.34l7.78-12.09-3.93-47.91a15.4,15.4,0,0,0-1.15-4.72L196.92,143l-38.61,11.58A32.72,32.72,0,0,1,144,156.8l-17.84-1.2-5.32,36.48a9.43,9.43,0,0,0,0,3.18l6.76,38.81L123,246.16H108.82l9.53-12.09-9-39.43-9.61-44.36a8,8,0,0,0-5.59-5.83L86,142.12a8,8,0,0,0-8.82,3.15l-12.13,17.5a6.7,6.7,0,0,0,.41,8.18l8.87,10.41,6.07-5.84L89.91,187,74.12,188.4l-21-15.26a6.7,6.7,0,0,1-2.37-7.7l15.58-43.25a10.06,10.06,0,0,0,.08-6.59L52.36,73.5a3.2,3.2,0,0,0-4.07-2L34.07,76.34l-2,3.48a4,4,0,0,1-3.54,2,20.64,20.64,0,0,1-7-1.51c-5.59-2.21-5.59-12.61-5.59-12.61S34.46,31,41.87,24.52Z"/><path class="cls-4" d="M50.16,23.64l5.19-14.4s7.19,6.17,2.91,13.27S50.16,23.64,50.16,23.64Z"/><path class="cls-3" d="M53.43,36.34c.82,1.38-.42,3.62-1.8,4.43s-3.93.82-4.75-.56.43-3.62,1.8-4.43S52.62,35,53.43,36.34Z"/><path class="cls-2" d="M58.82,66.57a5.85,5.85,0,0,0,3.3-4.65c.28-2.69.74-6.12,1.31-6.3,1.31-.42,2.21,5.22,2.67,9.17a5.1,5.1,0,0,1-3,5.22L52.76,74.7l-.4-1.2a3.21,3.21,0,0,0-3.75-2.11Z"/><polygon class="cls-3" points="74.91 180.83 80.43 175.53 89.91 186.95 80.71 187.79 74.91 180.83"/><polygon class="cls-3" points="122.96 246.16 108.82 246.16 114.43 239.04 125.68 239.04 122.96 246.16"/><polygon class="cls-3" points="220.49 246.16 208.34 246.16 212.92 239.04 223.64 239.04 220.49 246.16"/></svg>