<svg id="monkey" xmlns="http://www.w3.org/2000/svg" viewBox="0 0 300 300"><defs><style>.cls-1{fill:#e9eae5;}.cls-2{fill:#bc2654;}.cls-3{fill:#7c162c;}.cls-4{fill:#f3294f;}</style></defs><title>monkey</title><ellipse class="cls-1" cx="136.29" cy="206.27" rx="76.82" ry="36.77"/><circle class="cls-2" cx="82.8" cy="55" r="14.12"/><circle class="cls-2" cx="144.99" cy="55" r="14.12"/><path class="cls-3" d="M112.27,250.51a3.68,3.68,0,0,1-2.17-6.66l.42-.34c3.94-3.26,14.41-11.9,73-6.78,33.37,2.92,43.63-9.49,46.77-17.15a26.07,26.07,0,0,0,.84-16.48,25.61,25.61,0,0,0-7.87-13c-7.84-6.5-17.34-8.46-28.26-5.83a48.58,48.58,0,0,0-14.38,6,3.69,3.69,0,0,1-4.14-6.1,56,56,0,0,1,16.8-7.12c13.11-3.15,25.1-.62,34.69,7.33a32.7,32.7,0,0,1,10.29,16.82,33.57,33.57,0,0,1-1.15,21.16C233.6,231,223.21,244.53,193,244.53c-3.15,0-6.5-.14-10.09-.46-36.91-3.22-59.69-1.5-67.7,5.12-.27.22-.52.42-.79.62A3.68,3.68,0,0,1,112.27,250.51Z"/><path class="cls-2" d="M86,162.09l-10.74,17a10.17,10.17,0,0,0-1.53,6.56l1,9.49a10.22,10.22,0,0,0,1.77,4.76L91.7,221.69,81.46,233.14a2.8,2.8,0,0,0-.58,2.74l.84,2.58a2.8,2.8,0,0,0,3.4,1.85L97.36,237l22.58-19.55a2.81,2.81,0,0,0-1.48-4.91l-9.92-1.31a5,5,0,0,1-3.6-3.65l-1.79-7.21a2.69,2.69,0,0,1,.89-2.72l8-6.6Z"/><path class="cls-4" d="M145.29,73.05l37.09,46.88a18.12,18.12,0,0,1,3.85,9.93l9.85,63.54a14.08,14.08,0,0,1-1.59,7.59l-15.84,22.1A9.28,9.28,0,0,1,170,228l-55.73-2.76a5.63,5.63,0,0,0-4.48,2.23l-8,9.89a4.24,4.24,0,0,1-6.14.67l-3.74-3.21a4.44,4.44,0,0,1,.45-7.09l20.09-13.21,13-18.36-23.72-3.82L84.86,167.14,96.34,83.76Z"/><polygon class="cls-2" points="125.41 196.2 143.03 184.02 172.53 172.86 182.85 178.12 170.23 127.23 129.33 89.36 142 150.96 123.05 168.86 112.66 186.4 119.66 195.28 125.41 196.2"/><polygon class="cls-3" points="135.09 75.28 156.72 156.07 112.01 192.83 93.98 167.09 84.86 140.25 96.34 83.76 135.09 75.28"/><path class="cls-4" d="M96.34,83.76l-7.08,55.89a17.36,17.36,0,0,0,.95,7.22l15.3,34.59a6.94,6.94,0,0,0,3,3.65l3.49,2,2.08,6.25a2.53,2.53,0,0,1-3.17,3.21l-9.51-3a7,7,0,0,1-3.74-2.86L77.22,159.2a16.74,16.74,0,0,1-2.59-7.29l-.8-7.55a16.62,16.62,0,0,1,1.13-8Z"/><path class="cls-4" d="M125,77.49l25.89,71.31a6.34,6.34,0,0,1-2.5,7.48L126,170.85,112.66,186.4a2.7,2.7,0,0,0-.65,1.76v4.67a2.73,2.73,0,0,0,.64,1.75l1.41,1.66a2.71,2.71,0,0,0,3.65.44l14.61-10.52,35.33-16.84A11.19,11.19,0,0,0,174,157.84l-3.73-30.61a14.68,14.68,0,0,0-1.29-4.45L145.29,73.05Z"/><path class="cls-4" d="M146.46,71.4A32.23,32.23,0,0,1,82,71.4c0-17.81,4.11-42,32.23-42S146.46,53.59,146.46,71.4Z"/><path class="cls-3" d="M139.12,65c0-8.7-6.3-15.75-14.07-15.75a75.3,75.3,0,0,0-11.44,1.3,75.5,75.5,0,0,0-11.45-1.3c-7.77,0-14.07,7-14.07,15.75,0,7.13,4.23,13.14,10,15.09a16.67,16.67,0,0,0-.17,2.35A15.76,15.76,0,1,0,129.27,80C135,78,139.12,72,139.12,65Z"/><path class="cls-1" d="M131.81,62.32c.86,1.46-.45,3.84-1.92,4.71s-4.18.86-5-.6.45-3.85,1.92-4.71S130.94,60.85,131.81,62.32Z"/><path class="cls-1" d="M95.18,62.32c-.86,1.46.45,3.84,1.92,4.71s4.18.86,5-.6-.44-3.85-1.91-4.71S96.05,60.85,95.18,62.32Z"/><path class="cls-1" d="M116.89,76.12h-6.57a2.17,2.17,0,0,0-1.53,3.71l3.29,3.28a2.37,2.37,0,0,0,.65.45l0,7.2a.84.84,0,0,0,.67.81l.2,0a.85.85,0,0,0,.82-.87l0-7.14a2,2,0,0,0,.73-.48l3.27-3.28A2.16,2.16,0,0,0,116.89,76.12Z"/></svg>