<svg id="pig" xmlns="http://www.w3.org/2000/svg" viewBox="0 0 300 300"><defs><style>.cls-1{fill:#e9eae5;}.cls-2{fill:#bc2654;}.cls-3{fill:#f3294f;}.cls-4{fill:#7c162c;}</style></defs><title>pig</title><ellipse class="cls-1" cx="149.41" cy="239.97" rx="114.35" ry="10.74"/><path class="cls-2" d="M251.3,146s3.49,31.43,22.45,37.28a.93.93,0,0,1-.36,1.81c-7.16-.72-18.08-6.15-26-29.69Z"/><path class="cls-2" d="M63.11,103.39S43,97.94,40.66,98.57c-6.2,1.62-10.1,5.84-15.07,5.27s6.84,12.07,16.14,17,13.15,6.16,14.94,2.28,5.08-11.93,5.08-11.93Z"/><path class="cls-2" d="M210.41,207.85s-5,17.08-7.47,19.49l1,6.73H192.59l1.73-6.73-11.39-18.11Z"/><path class="cls-3" d="M252.16,150.89c-.6-17-21.84-53.41-25.49-57.66-2.59-3-32.58-13.83-49.56-19.78a38.61,38.61,0,0,0-23.18-.73l-83.66,29c-22,2.7-31.19,24.76-31.19,24.76-22.21,32.41,5.8,42.06,10.11,58.17,1.21,4.5,5.1,7.48,10.42,9.15,7.08,13.85,17,20.14,17,20.14.69,5.17,6.55,17.76,6.55,17.76L80,238.41h11l-1.38-6.73L99,216l22.42,1.37,4.14,14.32-3.45,6.73h11.73l-.69-6.73,6.9-13.63c31.74,0,65.2-4.48,65.2-4.48l11.38,18.11-1.72,6.73H226.3l-1-6.73c2.41-2.41,7.47-19.5,7.47-19.5S252.77,167.88,252.16,150.89Z"/><path class="cls-4" d="M58.45,163.75H46a9,9,0,0,1-9-9v-1.92a9.06,9.06,0,0,1,6.94-8.77,12.3,12.3,0,0,0,3.73-1.58,8.5,8.5,0,0,1,9.16,0,12.52,12.52,0,0,0,3.73,1.58,9,9,0,0,1,6.94,8.77v1.92A9,9,0,0,1,58.45,163.75Z"/><path class="cls-3" d="M55.67,159.58h0A1.56,1.56,0,0,1,54.11,158v-6.57a1.56,1.56,0,0,1,1.56-1.56h0a1.56,1.56,0,0,1,1.56,1.56V158A1.56,1.56,0,0,1,55.67,159.58Z"/><path class="cls-3" d="M47.63,159.58h0A1.56,1.56,0,0,1,46.07,158v-6.57a1.56,1.56,0,0,1,1.56-1.56h0a1.56,1.56,0,0,1,1.56,1.56V158A1.56,1.56,0,0,1,47.63,159.58Z"/><path class="cls-2" d="M44.53,175.74a28.68,28.68,0,0,1,4.46,8.2,33.25,33.25,0,0,0,15.31,3.24c16.57-.35,23.6-7.89,23.6-7.89s-5.29,2.61-22.2,4.37A25.18,25.18,0,0,1,44.53,175.74Z"/><path class="cls-2" d="M98,113.13a11.1,11.1,0,0,1,6.57-4.72c5.14-1.31,13.3-3.25,14.91-2.83,6.19,1.62,10.09,5.84,15.06,5.27s-7.61,5.91-14.63,14.59c-6.62,8.19-13.63,1.77-18.12-1.54-1.78-1.32-3.77-2.6-5.26-3.52a2.65,2.65,0,0,1-.83-3.7Z"/><path class="cls-4" d="M87.9,133.13a3.7,3.7,0,1,1-3.7-3.7A3.7,3.7,0,0,1,87.9,133.13Z"/><circle class="cls-4" cx="44.53" cy="133.13" r="3.7"/><path class="cls-2" d="M59.61,193.78s25.89,2.92,39.49-3.7c0,0-7.64,11.19-37.39,7.47Z"/></svg>