<svg id="rabbit" xmlns="http://www.w3.org/2000/svg" viewBox="0 0 300 300"><defs><style>.cls-1{fill:#e9eae5;}.cls-2{fill:#bc2654;}.cls-3{fill:#7c162c;}.cls-4{fill:#f3294f;}</style></defs><title>rabbit</title><ellipse class="cls-1" cx="149.79" cy="243.48" rx="87.39" ry="8.17"/><path class="cls-2" d="M110.17,96.42l-5.65-41.64a4,4,0,0,1,.6-2.81L108,47.48a4.12,4.12,0,0,1,6-1.07L116,48A4.15,4.15,0,0,1,117.61,51l2.82,40.39,3.07,8.42Z"/><path class="cls-3" d="M196.22,195.12s8.28-8.36,13.91-2a23.27,23.27,0,0,0,6.82,5.58.68.68,0,0,1-.23,1.28l-6.42.82s7.32,2.32,13.4,2.31a1.27,1.27,0,0,1,1.12,1.87c-1.42,2.58-4.3,6.91-8.18,8.13l4.46,2.09a1.11,1.11,0,0,1,.21,1.87c-3,2.32-10.84,6.94-21.22,2C186.71,212.73,196.22,195.12,196.22,195.12Z"/><path class="cls-2" d="M114.17,128l-11.93,13.71L85.88,134a4.68,4.68,0,0,0-4.19.13l-4.16,2.27a4.63,4.63,0,0,0-2.36,3.36l-.57,3.62L85,146.28l2.12-3.94,16,11.54L123.44,141Z"/><path class="cls-4" d="M129.42,118.87l32.2,35,26.14,15.62a22,22,0,0,1,6.54,7.92c3.95,8.09,10.81,24.54,8.3,37.09-3.47,17.3-12.36,18.79-12.36,18.79l6.46,1.5a8,8,0,0,1,5.67,5h0a2.88,2.88,0,0,1-2.7,3.9H96.29L102,237.9a9.29,9.29,0,0,1,4.6-2.52l24.05-6.93-9.77-7.2-7.55-16.78-9.65-42.59-.49-33.62Z"/><path class="cls-2" d="M143,141l-17.89,12.84-21.52,1.05.1,6.95a49,49,0,0,1,1.51,6.66l2.8-3.27,3.43-4.19,11.46,4.84a6.28,6.28,0,0,0,8-2.76Z"/><path class="cls-4" d="M129.15,130.53l-8,18.15-19.07-2.6A6,6,0,0,0,97,147.84l-3,3.08a5.94,5.94,0,0,0-1.6,5l.52,3.52,11.7-.38.93-4.79L122.92,160a4.85,4.85,0,0,0,5.25-1.47L143,141Z"/><polygon class="cls-2" points="103.48 146.26 121.19 148.68 124.58 140.93 119.15 143.7 103.44 143.64 103.48 146.26"/><path class="cls-2" d="M155.68,197.72c-4.27,7.05-12.65,25,5.94,34.23l-28,3.86a10.16,10.16,0,0,0-5.82,2.89l-4.92,4.93H112l16.74-11.32,19.12-2.89s-5.9-13.81-18.06-23.28a.85.85,0,0,1,.64-1.51l8.68,1.36,15.45-9.34A.78.78,0,0,1,155.68,197.72Z"/><path class="cls-4" d="M116,92.48l-13.13,3.59a10.89,10.89,0,0,0-6.64,5.2C92.36,108.14,85,121.54,85,122.45c0,1.23-2.46,11.36,10.13,12.9s16.14-1.54,16.14-1.54l11.51,2s13.51-7.17,13.51-8.09-5.73-27.6-5.73-27.6L121,93.37A6,6,0,0,0,116,92.48Z"/><path class="cls-3" d="M90,132.74a.73.73,0,0,1-.71-.55l-1.61-6.58a.73.73,0,0,1,1.41-.35l1.61,6.58a.72.72,0,0,1-.53.88Z"/><path class="cls-3" d="M87.87,127.14,85,124.31a1.87,1.87,0,0,1,1.32-3.2H92a1.87,1.87,0,0,1,1.32,3.2l-2.82,2.83A1.88,1.88,0,0,1,87.87,127.14Z"/><path class="cls-3" d="M110.5,112.63s.92-10.18,7.42-7.15C124.78,108.68,116.29,117.4,110.5,112.63Z"/><path class="cls-4" d="M118.48,97.72s3.24-31.47,4.4-42.94a10.34,10.34,0,0,1,3.6-6.84c1.82-1.55,4.16-3.52,6.24-5.22a4.7,4.7,0,0,1,7.43,2.14l2.95,8.77a10.55,10.55,0,0,1-.34,7.62l-13.2,43.07Z"/><path class="cls-2" d="M122.52,94.62s3.26-26.49,4.1-34.76a9.67,9.67,0,0,1,2-5.31,23.53,23.53,0,0,1,3.62-3.4,3.4,3.4,0,0,1,5.36,1.55A24.31,24.31,0,0,1,139,58.47a23.49,23.49,0,0,1-.64,6L127.76,97.74Z"/></svg>