<svg id="rat" xmlns="http://www.w3.org/2000/svg" viewBox="0 0 300 300"><defs><style>.cls-1{fill:#e9eae5;}.cls-2{fill:#7c162c;}.cls-3{fill:#f3294f;}.cls-4{fill:#bc2654;}</style></defs><title>rat</title><ellipse class="cls-1" cx="154.81" cy="235.14" rx="94.49" ry="6.62"/><path class="cls-2" d="M122.75,251.48a1.35,1.35,0,0,1-.22-2.68c10.94-1.83,49.32-4.39,71.39-3.33,12.75.61,23.76,1.14,32.44.55s13.87-2.27,15.89-5.13c1.89-2.66,2.34-5.83,1.37-9.69a34.46,34.46,0,0,0-5.71-11.3,82.18,82.18,0,0,0-11.83-13,2.95,2.95,0,0,1,3.82-4.49,87.87,87.87,0,0,1,12.74,13.93c5.56,7.74,10.83,18.86,4.42,27.91-6.6,9.3-26.24,7.18-53.42,5.88-21.78-1.05-60-.5-70.66,1.28A.9.9,0,0,1,122.75,251.48Z"/><path class="cls-2" d="M153.83,228.15v4.09l-11.67-3.32a10.53,10.53,0,0,0-8,1.85l-2.81,2a1.29,1.29,0,0,0,.76,2.34H157l1.44-7Z"/><path class="cls-2" d="M110.71,225.74l-2.89,5.9-10.58-1.35a7.43,7.43,0,0,0-5.44,1.6l-1.63,1.31a1.09,1.09,0,0,0,.68,1.94h19.86L117,224.29Z"/><path class="cls-3" d="M85.74,138.27l33,11.24a25.55,25.55,0,0,0,13.15.88l15.43-3a36.77,36.77,0,0,1,23.26,3.08l31.11,15.29A33.27,33.27,0,0,1,213.87,176l19.76,27.16A13.79,13.79,0,0,1,235,217l-3.09,6.81a11,11,0,0,1-9.19,6.42L157,235.14l-24.37-12.9a5.34,5.34,0,0,0-6,.7l-7.2,6.27a4.45,4.45,0,0,1-5.3.4l-4-2.53a6.74,6.74,0,0,1-3-4.66l-1.82-11.85a18.11,18.11,0,0,0-4.52-9.47L78.47,176.63Z"/><path class="cls-4" d="M109.74,145.83a12.61,12.61,0,0,0-7.4-6.62L78.6,170l12.2,27,12-3.88,3.9-6.9,7.18-7.46a13.38,13.38,0,0,0,3.68-8l.27-2.75a14.6,14.6,0,0,0-1.31-7.59Z"/><path class="cls-2" d="M103,142.88s14.71-17.15,19.36-12.89,1,20.82-5.93,22.3S99.07,151.22,103,142.88Z"/><path class="cls-2" d="M88.53,141.46s-6.07-21-12.22-18.21-11.14,19.46-4.55,23.28S89.7,151.23,88.53,141.46Z"/><path class="cls-3" d="M97.88,132.79l-4.34-.42a12.67,12.67,0,0,0-11.44,5.16l-9.43,13a14.65,14.65,0,0,0-2.73,7.21l-.26,2.75a13.37,13.37,0,0,0,2.09,8.55l3.73,8.87,8.37,19.15a5.32,5.32,0,0,0,4.54,3.62l1.51.14a5.34,5.34,0,0,0,5.15-2.68l10-17.75,7.18-7.46a13.32,13.32,0,0,0,3.68-8l.27-2.75a14.6,14.6,0,0,0-1.31-7.59L108.13,140A12.64,12.64,0,0,0,97.88,132.79Z"/><path class="cls-2" d="M99.48,167s-.07-10.28,6.73-7.88C113.39,161.67,105.74,171.21,99.48,167Z"/><path class="cls-2" d="M84,165.81s1.5-10.17-5.57-8.74C70.92,158.59,77.16,169.1,84,165.81Z"/><path class="cls-2" d="M54.69,194.53a.75.75,0,0,1-.63-.25.73.73,0,0,1,.08-1c6.48-5.61,14.12-6.55,19.39-6.35a34.68,34.68,0,0,1,10,1.78.73.73,0,1,1-.51,1.37c-.16-.06-16.18-5.83-27.89,4.3A.76.76,0,0,1,54.69,194.53Z"/><path class="cls-2" d="M50,204.15a.74.74,0,0,1-.63-.26.73.73,0,0,1,.09-1c14.29-12,34-10.69,34.19-10.68a.73.73,0,0,1-.1,1.46c-.2,0-19.32-1.25-33.15,10.34A.68.68,0,0,1,50,204.15Z"/><path class="cls-2" d="M124.77,192a.77.77,0,0,1-.5-.14c-12.48-9.22-28-2.22-28.14-2.15a.74.74,0,0,1-1-.35.76.76,0,0,1,.36-1,35.37,35.37,0,0,1,9.81-2.54c5.24-.6,12.93-.25,19.82,4.84a.73.73,0,0,1,.15,1A.72.72,0,0,1,124.77,192Z"/><path class="cls-2" d="M129.67,201.05a.73.73,0,0,1-.49-.13c-14.68-10.49-33.66-7.79-33.84-7.76a.73.73,0,1,1-.22-1.45c.19,0,19.74-2.82,34.91,8a.73.73,0,0,1,.17,1A.73.73,0,0,1,129.67,201.05Z"/><path class="cls-2" d="M92.67,189.27,87,189.09a1.88,1.88,0,0,0-1.43,3.17l2.75,2.94a1.85,1.85,0,0,0,.56.4l0,4.63a.73.73,0,0,0,.55.71.55.55,0,0,0,.18,0,.73.73,0,0,0,.74-.72l0-4.56a2,2,0,0,0,.64-.4l2.93-2.75A1.88,1.88,0,0,0,92.67,189.27Z"/><path class="cls-4" d="M198.16,196.52l-4.4-1.19a9.7,9.7,0,0,0-5.86.26l-18,6.61a16.09,16.09,0,0,0-4.32,2.41L142.05,223l-2.18-3.17a5.91,5.91,0,0,0-8.91-1l-4.37,4.11a5.34,5.34,0,0,1,6-.7l14.12,7.47,21.81-22a15.92,15.92,0,0,1,5.35-3.56l15.73-6.35a9.63,9.63,0,0,1,4.41-.68l3.8.31A.51.51,0,0,0,198.16,196.52Z"/></svg>