<svg id="sheep" xmlns="http://www.w3.org/2000/svg" viewBox="0 0 300 300"><defs><style>.cls-1{fill:#e9eae5;}.cls-2{fill:#bc2654;}.cls-3,.cls-5{fill:#f3294f;}.cls-4{fill:#7c162c;}.cls-5{stroke:#f3294f;stroke-miterlimit:10;stroke-width:0.2px;}</style></defs><title>sheep</title><ellipse class="cls-1" cx="166.25" cy="250.39" rx="101.92" ry="9.57"/><path class="cls-2" d="M218.64,216.36s-6.18,23.17-4.53,28.1c3.28,1.64,6.57,1.64,10.52.13,1.27-3,5-18.34,7-29.73,1.15-6.53,1.75-11.76,1-12.62-2-2.35-16-9.41-16,0S218.64,216.36,218.64,216.36Z"/><path class="cls-3" d="M141.91,215.09s-1.27,22.82-1,33c.06,3,.25,4.85.62,4.85,1.69,0,5.48,3.81,8.85-4.13s8.1-36.1,6.41-36.1S147,207.15,141.91,215.09Z"/><path class="cls-3" d="M253.28,211.31s-1.68,21.84-5.05,29.79,0,11.91-3.37,11.91-11.8,0-10.12-4,6.75-19.86,5.06-23.83-8.43-7.94-6.74-9.93S244.86,203.37,253.28,211.31Z"/><path class="cls-3" d="M124.27,213.56l13.81-3.18.7,1A22.36,22.36,0,0,0,155,221.24l0-.24c.12,0,7.56-.2,7.68-.23l18.76-4.53,13.35,5.19a24.75,24.75,0,0,0,15.74.73l16.62-4.75,14.09,4.45a18,18,0,0,0,15.46-2.2c8.67-5.81,22-15.11,22-17.49s7.06-29.2,11.57-46.09a25.86,25.86,0,0,0-5.93-24.14L251.18,95.72a17.22,17.22,0,0,0-6.68-3.56L191.58,77.63a16.57,16.57,0,0,0-6.31-.47l-75.31,9-9.33,4.24a6.7,6.7,0,0,1-6.76-.78,16.85,16.85,0,0,0-21.15.85l-7.87,6.88a18.59,18.59,0,0,0-5,21l7.89,19.37-2.34,16.41,8.2,16.4v7L74,179c3.26,4.31,11.41,11.53,11.41,11.53,2.11,1.15,13.5,15.27,13.5,15.27a22.19,22.19,0,0,0,4.55,4.53"/><rect class="cls-4" x="54.24" y="157.18" width="20.72" height="16.87" rx="6.03" ry="6.03"/><path class="cls-4" d="M51.75,100.35c-13.52,7.4-38.4,2.72-38.4,2.72-1.86.13-2.87,2.79-1.7,4.47,2.76,3.95,7.37,9.33,12.22,9.54,6,.27,31.45-8.23,31.45-8.23S65.27,93,51.75,100.35Z"/><path class="cls-2" d="M169.48,212.08c6.12-11.8,3.52-19.65,3.52-19.65s-.2,4.73-5.46,17.31A20,20,0,0,1,155,221.24c.48.06,1,.1,1.45.12a21.77,21.77,0,0,1,2.42,0,23.16,23.16,0,0,0,3.48-.5A26.92,26.92,0,0,0,169.48,212.08Z"/><path class="cls-2" d="M78.61,184a26.76,26.76,0,0,0,12-.09c13-3,17.23-10.07,17.23-10.07s-3.72,2.92-16.71,7.08c-7.52,2.4-13.35.55-17.15-1.88l.59,1.43"/><path class="cls-2" d="M93.74,193.19c7.38-1.47,9.92-5.4,9.92-5.4s-2.16,1.58-9.57,3.72a11.22,11.22,0,0,1-8.68-1l2.46,2.7A15.06,15.06,0,0,0,93.74,193.19Z"/><path class="cls-4" d="M67.66,84.78h-5.5A16,16,0,0,0,48.4,92.64L38.11,110.13a18.53,18.53,0,0,0-2.55,9.38V123a16.9,16.9,0,0,0,3.66,10.5l8.13,10.24,5.81,23.52c1.07,2.43,8.13,4,10.79,4h1.91c2.66,0,8.17-1.56,9.25-4l7.35-23.52,8.13-10.24A16.91,16.91,0,0,0,94.26,123v-3.49a18.54,18.54,0,0,0-2.56-9.38L81.41,92.64A16,16,0,0,0,67.66,84.78Z"/><path class="cls-3" d="M42.63,102.45s9.29-.63,10.84,11.77-.14,35,0,37.19c.21,3.09-.37,16.25,2.92,18.2s11.85,2.9,13.76.87,4.32-11.2,5-19.07c.89-10.07-2.78-33.33,1.55-38.74,6.2-7.75,10.84-9.3,10.46-10.23-2.49-6-4-12.82-11.08-15.24S53.48,78.28,42.63,102.45Z"/><path class="cls-1" d="M87.35,118.74c-.15,1.94-2.93,3.3-4.87,3.15S78,120,78.15,118s2.93-3.3,4.87-3.16S87.49,116.8,87.35,118.74Z"/><path class="cls-1" d="M50.77,118.74c-.14,1.94-2.93,3.3-4.86,3.15S41.43,120,41.58,118s2.93-3.3,4.86-3.16S50.92,116.8,50.77,118.74Z"/><path class="cls-4" d="M67.2,160.43a5,5,0,0,0-8.29-.07c-2.41,0-3.64,1.84-1.94,2.94L61.09,166a3.9,3.9,0,0,0,3.83,0l4.17-2.61C70.81,162.33,69.61,160.45,67.2,160.43Z"/><path class="cls-4" d="M63.61,171.47a.79.79,0,0,1-.65-.63l-.5-5.73c0-.34.3-.59.74-.57a.85.85,0,0,1,.85.65l.49,5.73c0,.34-.3.6-.74.58A.63.63,0,0,1,63.61,171.47Z"/><path class="cls-4" d="M81.24,100.35c13.52,7.4,38.4,2.72,38.4,2.72,1.86.13,2.87,2.79,1.7,4.47-2.76,3.95-7.38,9.33-12.22,9.54-6,.27-31.45-8.23-31.45-8.23S67.72,93,81.24,100.35Z"/><path class="cls-3" d="M41.51,86.82,44,80.31a5.32,5.32,0,0,1,8.41-2.2l3.92,3.32,4.78-5.66A5.41,5.41,0,0,1,68.58,75l4.53,3.61,11-2.34A5.22,5.22,0,0,1,90.42,82l-.24,2.13,9.46,1.08a4.43,4.43,0,0,1,3.3,6.68L99.2,98.11l-1.83,6.39a5.3,5.3,0,0,1-8.23,2.82l-1.48-1.09-10.66,5a9.54,9.54,0,0,1-10.22-1.35L65,108.37l-6.47,4.06a6.56,6.56,0,0,1-9.41-2.72l-1.58-3.33L44,107.9A5.58,5.58,0,0,1,36.65,105l-1.52-3.54-3.9-4a5.67,5.67,0,0,1,3.24-9.56Z"/><path class="cls-5" d="M102.13,200.81v6l1.33,3.56c3.44,9.23,12.47,33.71,13.83,40.12,1.69,7.94,6.75,2,6.75,2l.23-38.88,0-7.53S102.13,194.86,102.13,200.81Z"/></svg>