<svg id="tiger" xmlns="http://www.w3.org/2000/svg" viewBox="0 0 300 300"><defs><style>.cls-1{fill:#e9eae5;}.cls-2{fill:#f3294f;}.cls-3{fill:#bc2654;}.cls-4{fill:#7c162c;}</style></defs><title>tiger</title><ellipse class="cls-1" cx="150.33" cy="242.27" rx="122.01" ry="8.55"/><path class="cls-2" d="M164.3,153.26l13.41,20.23V221a3.77,3.77,0,0,1-1.44,3L171.13,228a3.8,3.8,0,0,0-1.12,4.5h0a3.79,3.79,0,0,0,3.48,2.27h12.56a3.81,3.81,0,0,0,3.12-1.63l3.56-5.13a3.64,3.64,0,0,0,.61-1.48l8.73-47.08-4.54-19S183.91,147.27,164.3,153.26Z"/><path class="cls-2" d="M282.5,147a5,5,0,0,0-6.86-2.23,5.15,5.15,0,0,0-2,6.7c10.8,23,5.87,33.89,4.1,36.69s-4,4.1-6.74,4.1c-7.39,0-15.77,0-24.47-39-8.34-37.42-10.76-43.55-20.12-50.23-1.39-1-36.63-17.53-36.63-17.53a24.72,24.72,0,0,0-13.25-2.27l-51.77,4.7a24.37,24.37,0,0,1-6.44-.16L84.58,82.45s-36.74,6-37.36,6.4-20,37.15-20,37.15L43.82,228.5a3.81,3.81,0,0,1-1,3.22l-1.73,1.83a3.8,3.8,0,0,0-.12,5.08l1.59,1.86a3.79,3.79,0,0,0,2.88,1.32h8.2a3.79,3.79,0,0,0,3.71-3l1.76-8.16a3.19,3.19,0,0,0,.08-.62l3.29-70.39,15.9,14.87,10.14,53.8a3.81,3.81,0,0,1-1.11,3.46l-2,1.93a3.77,3.77,0,0,0-.42,5l1.17,1.56a3.77,3.77,0,0,0,3,1.52H97a3.78,3.78,0,0,0,3-1.45l4.14-5.27a3.83,3.83,0,0,0,.79-2.07l4.67-64.7,10,3.54a16.45,16.45,0,0,0,13.24-1l38-16.32,35.61,30.58a9,9,0,0,1,4.17,6.2l3.88,37.3a3.77,3.77,0,0,1-1,3l-1.78,1.88a3.8,3.8,0,0,0-.07,5.13l1.71,1.91a3.75,3.75,0,0,0,2.83,1.27h9.4a3.78,3.78,0,0,0,3.37-2.06l2.55-5a4,4,0,0,0,.4-1.3L236.73,191l-7.6-22.63a8.51,8.51,0,0,1-.09-5.14L234.48,145c.73,3.13,1.51,6.56,2.36,10.37,8.77,39.36,18.77,46.82,34.16,46.82a17.79,17.79,0,0,0,15.12-8.71C292.8,182.92,291.48,166,282.5,147Z"/><polygon class="cls-3" points="78.39 174.51 73.59 147.99 62.49 159.65 78.39 174.51"/><path class="cls-1" d="M36.2,82.09S12.81,94.26,13.28,94.37s5,.48,5,.48l-6,7.43,3.07-.58-5,23.1v11.62l3.19-3.19.94,4.49,4.26-2.18,8.85,5-.82,3.19L30.29,142l-.12,3.31L40.92,140Z"/><polygon class="cls-4" points="21.96 98.41 16.11 114.67 18.55 115.13 20.9 128.67 29.2 133.81 31.82 140.85 40.4 140.85 21.96 98.41"/><path class="cls-1" d="M65,82.09S88.36,94.26,87.88,94.37s-5,.48-5,.48l6,7.43-3.07-.58,5,23.1v11.62l-3.19-3.19-1,4.49-4.25-2.18-8.86,5,.83,3.19L70.87,142l.12,3.31L60.24,140Z"/><polygon class="cls-4" points="81.17 98.41 87.01 114.67 84.57 115.13 82.22 128.67 73.92 133.81 71.3 140.85 62.73 140.85 81.17 98.41"/><path class="cls-1" d="M78.17,100.16,52.8,121.08a1.79,1.79,0,0,1-2.27,0L25.16,100.16a1.77,1.77,0,0,0-2.84.91l-2.86,10.51a1.77,1.77,0,0,0,0,1l4.59,14.1a1.81,1.81,0,0,0,.77,1l6.48,3.92a1.72,1.72,0,0,1,.81,1.09l1.44,5.82a1.77,1.77,0,0,0,1.4,1.32l3.27.62a1.78,1.78,0,0,1,1.39,2.19l-.23.9a1.78,1.78,0,0,0,.93,2L48,149.38a8.15,8.15,0,0,0,7.27,0L63,145.57a1.78,1.78,0,0,0,.93-2l-.23-.9a1.78,1.78,0,0,1,1.39-2.19l3.28-.62a1.77,1.77,0,0,0,1.39-1.32l1.44-5.82a1.72,1.72,0,0,1,.81-1.09l6.48-3.92a1.81,1.81,0,0,0,.77-1l4.59-14.1a1.77,1.77,0,0,0,0-1L81,101.07A1.77,1.77,0,0,0,78.17,100.16Z"/><path class="cls-2" d="M81.23,98.41,68.42,81.49l4.69-4.59L59.44,74.17a39.89,39.89,0,0,0-15.7,0L30.08,76.9l4.69,4.59L22,98.41l1.53,16,12.33,7.84L31.52,128l5.92,4,6.25-2.11H59.5L65.74,132l5.93-4-4.3-5.73,12.33-7.84Z"/><path class="cls-4" d="M56.44,128.41a6.34,6.34,0,0,0-4.85-2.6,6.31,6.31,0,0,0-4.84,2.6c-2.82,0-4.24,2.18-2.24,3.45L49.35,135a4.53,4.53,0,0,0,4.48,0l4.85-3.09C60.68,130.59,59.26,128.41,56.44,128.41Z"/><path class="cls-3" d="M36,75.72,27.34,71a10.73,10.73,0,0,0-5.38.7c-3.4,1.15,9.59,13.89,9.59,13.89l7.38-4.52Z"/><path class="cls-3" d="M66.46,75.72,75.1,71a10.73,10.73,0,0,1,5.38.7c3.4,1.15-9.59,13.89-9.59,13.89l-7.38-4.52Z"/><polygon class="cls-3" points="67.37 122.22 57.53 106.66 60.24 101.61 72.24 102.28 62.51 108.78 72.24 119.12 67.37 122.22"/><polygon class="cls-3" points="35.77 122.22 45.61 106.66 42.89 101.61 30.9 102.28 40.62 108.78 30.9 119.12 35.77 122.22"/><path class="cls-1" d="M34.54,83.61,23.4,71.34S13.56,72.86,15,82.43s5.34,10.63,5.34,10.63Z"/><path class="cls-1" d="M67.9,83.61,79,71.34s9.84,1.52,8.38,11.09-5.34,10.63-5.34,10.63Z"/><path class="cls-1" d="M40.57,101.74l4.67-12.29-9.6,1.87v7.09l-4.74,3.87,3.05,2c-.82,3.93,3.7,5.88,3.7,5.88l-.37,2,4.15-3.47,1.71-2.39Z"/><path class="cls-1" d="M62.63,101.74,58,89.45l9.6,1.87v7.09l4.74,3.87-3,2c.82,3.93-3.7,5.88-3.7,5.88l.3,2.12-4.08-3.61-1.71-2.39Z"/><path class="cls-4" d="M72.24,102.28,61.34,104l-1.28,2.29,2,6.22.48-3.11.06-.05a4.36,4.36,0,0,0,3.3-.35,4.1,4.1,0,0,0,1.94-3.52Z"/><path class="cls-4" d="M30.9,102.28l4.26,3.13A4,4,0,0,0,37.08,109a4.34,4.34,0,0,0,3.43.3l.12.1.49,3.11,2-6.22L41.87,104Z"/><path class="cls-1" d="M37,105.8c-.36.61.19,1.61.8,2s1.76.36,2.12-.25-.19-1.61-.8-2S37.38,105.18,37,105.8Z"/><ellipse class="cls-1" cx="64.54" cy="106.66" rx="1.75" ry="1.33" transform="translate(-45.27 47.64) rotate(-30.57)"/><polygon class="cls-4" points="43.89 87.17 49.3 85.67 51.59 87.17 54.9 85.67 60.06 87.17 55.26 84.22 51.68 86.03 49.18 84.22 43.89 87.17"/><polygon class="cls-4" points="41.03 82.84 48.36 80.6 51.46 82.84 55.93 80.6 62.92 82.84 56.42 78.45 51.58 81.14 48.2 78.45 41.03 82.84"/><polygon class="cls-4" points="39.07 77.78 47.71 75.94 51.37 77.78 56.64 75.94 64.88 77.78 57.22 74.17 51.5 76.38 47.52 74.17 39.07 77.78"/><polygon class="cls-4" points="95.35 84.22 110.76 103.49 103.06 125 105.96 134.82 99.27 149.1 112.03 134.82 109.37 125 118.6 103.49 109.78 86.39 95.35 84.22"/><polygon class="cls-4" points="123.41 87.99 134.02 103.49 125.8 124.21 129.21 131.97 125.55 141.52 134.02 130.68 130.1 123.96 140.43 103.62 132.54 87.17 123.41 87.99"/><polygon class="cls-4" points="146.17 85.94 155.53 102.28 148.2 119.03 153.89 123.96 150.85 135.54 157.81 123.83 153.63 116.66 162.82 100.58 155.17 85.19 146.17 85.94"/><polygon class="cls-4" points="168.02 83.96 175.53 102.28 169.89 119.63 175.53 132.95 169.89 137.93 179.85 133.28 174.21 119.63 182.83 101.61 175.53 83.27 168.02 83.96"/><polygon class="cls-4" points="191.97 86.47 202.07 106.83 193.25 121.62 198.56 132.42 194.67 137.93 202.07 133.28 198.08 121.81 207.84 107.97 203.32 91.83 191.97 86.47"/><polygon class="cls-4" points="218.54 99.07 221.59 115.17 214.29 125.41 215.62 136.88 205.95 146.26 218.93 137.93 218.08 126.07 227.37 116.66 224.69 102.32 218.54 99.07"/><polygon class="cls-4" points="233.58 148.02 224.37 147.33 212.92 159.55 199.91 163.85 213.57 163.85 225.02 153.96 231.15 156.18 233.58 148.02"/><polygon class="cls-4" points="229.37 169.12 220.21 174.9 205.12 174.12 220.34 178.03 231.53 175.55 229.37 169.12"/><polygon class="cls-4" points="233.88 182.53 224.11 191.56 213.05 190.77 224.89 194.42 235.59 187.64 233.88 182.53"/><polygon class="cls-4" points="235.38 202.77 216.66 203.39 234.83 207.56 235.38 202.77"/><polygon class="cls-4" points="234.12 213.81 220.47 215.62 233.41 219.94 234.12 213.81"/><polygon class="cls-4" points="235.02 147.33 244.32 143.48 246.34 152.34 236.84 155.36 235.02 147.33"/><path class="cls-4" d="M289.5,168.08l-10.26-.93a44.42,44.42,0,0,1,1.17,9.16l9.91.9A51.84,51.84,0,0,0,289.5,168.08Z"/><path class="cls-4" d="M287.82,190.26l-7.92-7.93a17.14,17.14,0,0,1-2.16,5.83,10.26,10.26,0,0,1-2.23,2.53l7,7a20.11,20.11,0,0,0,3.58-4.25A23.93,23.93,0,0,0,287.82,190.26Z"/><path class="cls-4" d="M261.14,200.68a27.53,27.53,0,0,0,8.89,1.49l1.78-10a7.34,7.34,0,0,1-.81,0c-2.58,0-5.27,0-8.06-1.66Z"/><path class="cls-4" d="M245.74,184.06a48.3,48.3,0,0,0,4.45,7.83l8.67-5a36.12,36.12,0,0,1-4.51-7.81Z"/><path class="cls-4" d="M241.86,174.06l9.45-3q-1.26-3.84-2.54-8.65l-9.48,3C240.13,168.55,241,171.42,241.86,174.06Z"/><path class="cls-4" d="M282.5,147a4.86,4.86,0,0,0-1.66-1.95l.54-4.67a.57.57,0,0,0-1-.45l-2.65,2.85-3-2.62a.57.57,0,0,0-.94.38l-.35,3.58-2.91-.17a.56.56,0,0,0-.37,1l3.28,2.4a5.41,5.41,0,0,0,.2,4.1,91.25,91.25,0,0,1,3.49,8.47l9.79-1.95A95.22,95.22,0,0,0,282.5,147Z"/><polygon class="cls-3" points="109.56 168.32 109.56 159.94 117.72 154.66 136.04 162.45 155.97 160.91 135.74 169.6 131.92 176.53 128.84 174.51 124.67 178.03 123.41 174.06 117.33 177.21 116.2 171.34 109.56 168.32"/><polygon class="cls-4" points="109.56 166.34 95.35 172.18 82.46 171.22 96.48 177.21 109.11 174.51 109.56 166.34"/><path class="cls-4" d="M108.49,183.09l-10.24,4.43s-13.52.52-13.14.95,13.4,3.42,13.4,3.42L108,190.6Z"/><polygon class="cls-4" points="107.38 198.51 98.13 201.42 89.66 201.42 97.75 205.16 106.97 204.18 107.38 198.51"/><polygon class="cls-4" points="106.2 214.95 98.52 216.87 91.3 214.95 99.27 220.63 105.69 222.03 106.2 214.95"/><polygon class="cls-4" points="33.74 166.34 48.87 172.18 61.76 171.22 47.73 177.21 35.11 174.51 33.74 166.34"/><path class="cls-4" d="M36.45,183.09l10.93,4.43s13.52.52,13.14.95-13.39,3.42-13.39,3.42l-9.45-1.29Z"/><polygon class="cls-4" points="38.87 197.99 48.63 201.42 57.09 201.42 49.01 205.16 39.94 204.61 38.87 197.99"/><polygon class="cls-4" points="41.1 211.74 49.48 213.84 56.7 211.91 48.74 217.59 42.32 219 41.1 211.74"/></svg>